<svg viewBox="0 0 200 200" fill="none" xmlns="http://www.w3.org/2000/svg">
<mask id="mask0_3801_5123" style="mask-type:luminance" maskUnits="userSpaceOnUse" x="0" y="0" width="200" height="200">
<path d="M200 0H0V200H200V0Z" fill="white"/>
</mask>
<g mask="url(#mask0_3801_5123)">
<path d="M200 100C200 44.7715 155.228 0 100 0C44.7715 0 0 44.7715 0 100C0 155.228 44.7715 200 100 200C155.228 200 200 155.228 200 100Z" fill="white"/>
<path fill-rule="evenodd" clip-rule="evenodd" d="M170.399 143.212C163.085 155.212 152.807 165.128 140.552 172.006C128.297 178.885 114.479 182.494 100.425 182.488C82.6331 182.517 65.3191 176.728 51.1217 166.004L170.399 143.212ZM18.4792 100.54C18.4792 89.779 20.5988 79.123 24.7171 69.1808C28.8354 59.2387 34.8716 50.205 42.4812 42.5957C50.0908 34.9863 59.1246 28.9504 69.0669 24.8324C79.0092 20.7144 89.6653 18.5951 100.427 18.5954C111.283 18.581 122.034 20.7307 132.05 24.9189C142.066 29.1071 151.147 35.2498 158.762 42.9879L151.169 45.2229L143.544 89.5979L136.439 49.5517L120.197 54.3242L113.088 98.5492L105.463 58.6529L86.6804 64.1754L77.1717 66.9879V109.137L60.4217 71.9317L41.6354 77.4754V152.125L52.2992 148.982V101.247L71.0854 143.437L87.3354 138.644V67.2604L101.412 134.478L116.137 130.149L124.262 79.5342L132.379 125.374L147.103 121.045L161.928 46.3904C175.126 61.3375 182.398 80.5978 182.372 100.538C182.376 107.263 181.556 113.963 179.929 120.488L44.2592 160.215C36.1081 152.562 29.6144 143.317 25.1801 133.053C20.7457 122.789 18.4651 111.724 18.4792 100.543" fill="#D1050C"/>
</g>
</svg>
