<svg viewBox="0 0 200 200" fill="none" xmlns="http://www.w3.org/2000/svg">
<rect width="200" height="200" rx="100" fill="#D1050C"/>
<path d="M83.436 153.08C81.4102 151.587 80.136 146.867 83.0751 150.796C83.6855 151.341 85.935 153.455 83.436 153.08ZM87.8263 152.596C84.0237 150.639 82.1149 146.453 80.5263 142.828C79.0362 138.173 79.3284 133.382 78.0122 128.673C76.953 127.13 77.7743 120.448 79.3626 122.302C78.145 128.123 80.6238 133.849 81.1018 139.623C82.4219 143.684 83.9519 147.841 87.2063 150.907C88.0612 151.543 89.9496 154.42 87.8263 152.596ZM95.9481 152.379C97.2353 152.278 95.2498 150.427 95.9481 152.379ZM88.9555 150.332C85.4682 146.912 83.7262 142.123 82.3894 137.639C81.4037 133.06 80.2371 128.495 80.6144 123.797C80.7989 119.874 81.9157 114.796 84.9611 112.381C83.7666 116.316 81.0527 121.025 81.6458 125.713C81.8674 129.963 82.5231 133.951 83.9241 138.045C85.2633 142.216 86.9899 146.336 89.7594 149.843C93.5805 150.92 90.099 153.193 88.9555 150.332ZM94.4208 151.56C98.2547 150.839 90.7222 149.537 94.4208 151.56ZM97.8954 150.869C93.1664 148.483 91.7723 143.04 89.5919 138.927C91.2599 134.648 94.2942 144.118 94.8734 146.188C95.4726 148.644 99.4761 150.393 100.138 151.222C99.3902 151.322 98.5313 151.324 97.8954 150.869ZM103.552 150.362C104.51 150.938 103.669 149.406 103.552 150.362ZM91.3945 149.381C88.3932 146.055 87.2241 141.749 85.7781 137.763C85.0813 133.679 88.2424 136.582 87.6828 138.95C88.2079 142.714 92.7609 146.401 91.8626 149.705C91.7066 149.597 91.5506 149.489 91.3945 149.381ZM101.328 149.487C99.0414 148.912 93.853 144.44 96.3679 143.751C96.9218 146.085 101.938 147.552 101.328 149.487ZM106.255 149.487C101.952 148.234 99.3641 144.316 95.9725 141.799C99.3288 141.616 102.507 146.603 106.043 148.256C106.574 148.617 107.885 150.587 106.255 149.487ZM79.6301 148.101C84.176 149.946 77.665 142.529 79.6301 148.101ZM108.471 147.586C106.293 147.07 100.412 143.194 103.082 142.59C105.287 144.031 108.935 146.72 109.857 147.899C109.388 148.011 108.803 147.973 108.471 147.586ZM76.9939 147.598C78.0261 148.367 77.2641 146.573 76.9939 147.598ZM75.7666 146.404C73.3588 142.948 72.7949 138.632 73.3716 134.668C73.0229 130.835 75.0852 127.37 75.0294 123.534C76.4551 119.553 76.4886 115.123 78.8351 111.418C80.1669 109.139 82.1752 106.487 85.0146 106.826C84.5189 103.873 87.6223 106.502 88.891 103.717C93.4108 101.068 98.6549 100.003 103.805 99.1038C111.148 100.762 116.55 106.138 120.801 111.792C124.247 115.195 126.064 119.801 129.678 123.059C131.157 125 129.785 128.046 128.387 124.522C125.869 121.085 122.211 118.245 120.545 114.388C117.985 110.359 114.909 106.986 111.338 103.804C107.213 101.088 101.771 99.4622 96.9501 101.631C91.0279 103.074 85.8016 106.652 82.801 111.777C79.9499 112.988 86.4838 105.464 81.889 109.2C78.6678 112.339 78.361 117.065 76.9165 121.039C76.4049 125.709 74.7517 129.779 74.5865 134.363C74.3842 138.618 75.5544 142.928 77.0144 146.792L76.6288 146.833L75.7666 146.404ZM112.633 146.906C108.414 144.87 104.814 141.827 101.648 138.589C99.5861 136.287 103.199 132.992 103.72 136.909C105.802 141.573 111.413 142.947 114.086 146.896L113.688 147.036L112.633 146.906ZM116.953 145.751C120.193 146.117 116.023 142.799 116.953 145.751ZM79.1843 144.361C80.3273 144.731 78.7849 143.256 79.1843 144.361ZM112.939 143.175C109.118 141.013 105.949 137.99 104.166 134.091C101.571 129.469 99.971 123.979 100.099 118.605C102.043 117.227 101.43 123.242 102.517 124.448C102.929 128.887 105.23 131.526 106.758 135.69C109.25 138.356 113.18 141.728 116.324 144.097C115.323 145.31 113.656 144.113 112.939 143.175ZM77.3927 143.291C75.6957 139.186 76.651 134.645 76.3495 130.352C78.3501 129.657 76.6595 136.061 77.9862 138.102C77.541 139.3 80.8876 145.542 77.3927 143.291ZM118.992 143.463C115.245 141.143 111.767 138.718 109.367 135.481C107.082 131.534 104.564 127.411 103.717 122.921C107.307 122.198 105.707 129.794 109.26 130.755C110.308 135.504 115.111 139.957 119.838 142.149C121.584 143.112 120.878 144.429 118.992 143.463ZM100.747 142.236C97.5224 140.847 94.0596 134.387 96.8353 132.476C98.9128 135.204 98.115 139.335 101.77 141.266C101.756 141.545 101.081 143.071 100.747 142.236ZM70.8686 141.765C69.5348 138.021 71.5013 134.027 71.0631 130.25C70.8924 125.571 72.7601 121.014 74.2439 116.444C75.6098 113.262 73.5927 113.152 72.7886 116.086C71.5687 119.725 70.1861 123.25 69.6001 127.124C67.4193 129.741 72.3533 133.546 68.1849 135.617C63.7525 131.424 69.9461 125.736 70.2214 120.837C71.1191 116.863 72.4496 112.71 76.2569 110.434C77.8469 108.72 81.5564 104.105 82.6826 105.137C79.149 108.772 75.1299 112.268 74.9277 117.597C73.7613 122.411 72.0912 127.024 72.0762 132.215C71.8191 135.411 71.9782 138.711 70.8686 141.765ZM68.7316 133.367C69.8898 130.046 65.0539 134.87 68.7316 133.367ZM94.5563 140.327C91.9059 137.015 91.6312 132.895 91.8083 128.94C91.297 126.741 92.0835 119.268 92.7052 125.229C93.0371 129.556 93.1905 134.491 95.543 138.101C96.2985 138.814 96.0619 142.874 94.5563 140.327ZM121.062 141.01C122.351 137.192 116.006 134.824 114.82 131.17C112.539 127.642 110.226 124.31 109.139 120.283C107.143 117.138 103.898 110.953 99.2909 113.876C94.6194 116.674 95.8529 122.581 96.0575 127.018C97.1355 128.779 96.8448 133.382 94.7152 130.095C94.6256 125.902 93.9517 121.605 94.9064 117.456C96.0378 114.09 100.315 110.384 104.18 112.016C108.688 115.45 110.735 120.771 113.155 125.604C115.548 129.765 118.061 133.802 121.509 137.279C123.273 138.153 123.724 141.549 121.062 141.01ZM118.902 140.157C112.391 136.074 109.507 128.704 106.504 122.173C105.989 118.664 100.981 112.842 98.798 118.466C97.5943 123.093 100.283 127.388 100.236 131.759C97.8178 132.572 98.5544 126.1 97.4453 124.19C96.6134 120.364 98.3311 112.578 103.816 115.463C107.863 118.677 108.086 124.062 110.967 128.039C113.26 132.697 116.595 136.935 120.646 140.283C120.323 140.806 119.344 140.134 118.902 140.157ZM124.05 137.08C121.294 133.549 117.493 130.784 115.744 126.578C112.68 122.146 111.259 116.71 107.429 112.792C104.304 110.79 99.7697 106.373 96.125 109.853C92.9779 111.115 90.0076 116.946 88.4353 116.99C89.4645 112.596 93.6744 109.185 97.8462 107.481C102.189 106.528 105.355 110.209 108.81 112.004C114.853 118.424 116.334 127.82 123.161 133.727C123.611 134.542 127.861 139.616 124.05 137.08ZM68.585 137.465C69.127 136.708 69.0463 138.454 68.585 137.465ZM67.9527 137.048C69.0437 137.863 67.8352 135.554 67.9527 137.048ZM88.9297 136.947C86.8762 132.831 85.9067 128.371 86.1116 123.749C84.8326 121.399 89.6221 115.565 87.91 120.74C87.0156 124.358 87.0878 128.429 87.8289 132.006C91.8436 133.379 86.3238 124.225 90.0417 125.473C90.0495 128.594 90.537 132.793 90.2126 135.353C91.3463 136.287 89.8328 136.969 88.9297 136.947ZM84.4274 134.663C83.5353 129.875 82.5104 124.93 83.6237 120.008C85.2271 114.668 88.8585 109.75 93.6449 106.633C97.4712 104.783 102.237 102.885 106.199 105.58C108.569 106.727 113.04 110.751 111.392 112.535C109.288 110.094 105.847 108.341 103.358 107.227C105.084 107.148 108.333 108.026 104.87 106.274C101.563 104.818 97.6735 105.807 94.6684 107.597C91.2743 109.092 88.9986 112.369 87.1211 115.388C83.9909 118.961 84.4512 124.539 85.0641 129.064C84.5712 130.301 87.5564 136.685 84.4274 134.663ZM99.7957 134.632C98.4282 130.813 104.691 134.935 100.247 134.986C100.097 134.868 99.9461 134.75 99.7957 134.632ZM125.255 133.65C122.321 129.899 119.452 126.076 116.862 122.177C115.816 119.853 111.728 114.494 113.405 113.425C116.34 116.515 117.904 120.566 120.24 124.263C122.108 127.65 125.132 130.344 127.209 133.558C126.731 134.025 125.85 133.642 125.255 133.65ZM128.117 132.386C129.254 132.784 127.89 130.888 128.117 132.386ZM64.5583 131.067C63.4488 127.979 68.5667 122.202 66.3515 121.214C65.6608 123.41 62.7367 126.4 64.4263 122.152C67.5946 119.713 68.671 115.57 71.1775 112.988C69.5307 118.186 67.5104 123.326 66.195 128.64C65.8495 129.539 65.4947 130.568 64.5583 131.067ZM127.431 130.376C125.598 126.66 121.92 124.031 120.373 120.337C116.647 117.336 116.16 112.35 112.561 109.23C109.436 106.037 105.753 102.357 100.717 102.9C95.9707 103.698 90.6717 105.905 88.0948 109.924C86.432 112.613 84.4365 110.831 87.0062 108.98C90.6146 104.42 96.7378 102.338 102.514 101.817C107.981 102.595 112.403 106.025 115.562 110.196C118.415 113.632 120.045 117.822 123.108 121.135C123.496 123.953 130.387 128.096 127.431 130.376ZM63.807 126.352C64.7993 126.628 63.5085 125.207 63.807 126.352ZM89.3052 123.239C88.9063 121.717 90.3621 115.056 90.5583 119.931C90.3919 120.587 90.471 124.025 89.3052 123.239ZM131.052 121.662C126.382 115.812 121.539 110.08 116.582 104.461C112.946 101.441 108.863 98.1398 103.773 98.0801C99.5783 96.6199 95.0973 96.8947 91.0429 98.494C86.6696 100.086 82.6184 102.264 79.1952 105.355C76.5671 106.809 73.636 112.675 71.8475 111.482C75.9885 106.217 81.2521 101.6 87.465 98.6944C94.743 95.942 103.099 95.3756 110.41 98.3489C114.106 99.8718 116.943 102.923 119.776 105.524C123.296 108.847 125.778 112.888 128.977 116.385C129.026 118.037 135.518 122.44 131.052 121.662ZM103.319 121.256C101.634 119.055 102.943 116.753 104.018 120.07C104.427 120.496 104.238 122.412 103.319 121.256ZM63.0675 120.279C67.7503 114.919 69.6938 107.403 76.1389 103.496C76.8369 105.715 70.0799 109.262 69.1093 112.867C67.5283 115.533 66.8085 119.662 63.0675 120.279ZM78.4616 120.347C81.9433 120.929 77.779 117.23 78.4616 120.347ZM92.4965 119.558C90.9471 117.638 95.1816 110.598 95.1445 114.144C94.0293 115.84 93.849 117.998 92.4965 119.558ZM79.1843 118.274C79.2957 116.081 82.5843 110.151 81.0528 115.549C80.7184 116.454 80.6651 118.451 79.1843 118.274ZM131.944 117.214C126.865 110.448 121.373 103.666 114.23 98.7889C108.255 95.2356 100.768 94.0154 93.9836 95.837C91.5013 96.3609 88.7299 95.6198 92.5781 94.9892C96.7459 94.6734 100.815 93.3484 105.009 94.0629C111.941 95.2478 118.556 98.8751 122.866 104.252C126.532 108.158 130.377 111.993 133.356 116.408C134.291 117.698 132.622 117.682 131.944 117.214ZM63.3908 116.99C63.4138 112.62 67.3926 109.314 69.6893 105.82C73.9328 100.591 79.3969 96.2017 85.659 93.3748C88.6584 93.6299 81.7204 96.7815 80.0547 97.7968C76.453 99.9688 74.1746 103.566 70.763 105.953C68.7996 109.33 65.9659 112.246 64.6409 115.923C64.5203 116.413 64.048 117.145 63.3908 116.99ZM90.6719 116.582C92.7686 118.013 89.7089 114.041 90.6719 116.582ZM133.755 113.618C129.145 107.612 123.748 102.034 117.578 97.4764C113.568 95.6232 109.69 92.9363 105.049 92.8185C102.094 90.9775 98.1041 94.446 96.1788 92.5991C99.8625 89.8753 104.943 91.5779 109.289 92.4483C114.56 94.2369 119.886 96.4829 123.685 100.587C128.195 103.66 130.594 108.73 134.515 112.361C135.083 112.946 134.822 114.11 133.755 113.618ZM62.3906 112.236C61.6648 110.014 68.07 104.696 65.3362 108.904C64.1432 109.792 64.3452 112.419 62.3906 112.236ZM95.8998 111.781C97.0678 109.573 103.777 109.651 98.6562 111.481C97.9991 111.696 95.9504 113.375 95.8998 111.781ZM134.484 110.284C132.901 107.231 128.695 103.332 127.886 101.447C131.342 102.427 134.993 105.748 136.998 107.938C135.497 106.74 131.338 105.534 134.48 108.267C135.397 109.183 137.526 112.473 134.484 110.284ZM62.0203 107.86C59.987 105.417 67.9134 102.047 64.2156 105.793C63.7174 106.462 63.3833 109.217 62.0203 107.86ZM66.8235 106.347C65.7018 104.131 71.124 102.343 68.2444 105.506C68.0045 105.949 67.4566 106.766 66.8235 106.347ZM136.065 104.396C130.78 101.376 127.937 95.7876 122.604 92.8228C119.45 89.9904 115.823 88.1389 111.684 86.9531C106.932 85.2237 101.872 84.7956 96.8163 85.0661C92.6929 85.0914 88.4054 85.762 84.5221 86.5569C78.2604 88.653 73.5791 93.3093 68.289 96.9316C64.4404 97.7026 70.7207 93.2074 72.1411 92.5833C75.5779 89.2252 80.2277 87.296 84.5424 85.2534C88.8433 84.975 93.0492 84.1953 97.3255 83.691C101.516 83.0774 105.402 84.4625 109.485 84.9595C113.195 85.9962 116.994 86.9628 120.041 89.4619C124.26 91.5119 127.433 94.9112 131.053 97.7315C130.817 100.462 139.77 103.605 136.065 104.396ZM83.3353 104.276C85.5878 101.381 89.7373 100.965 92.8557 99.2729C94.8447 97.5644 103.249 98.0539 97.2013 99.2753C92.3639 99.784 88.4302 102.739 83.9203 104.171L83.3353 104.276ZM61 103.5C63.074 104.492 62.1863 100.528 61 103.5ZM65.5588 103.255C67.1894 98.0597 72.9074 95.6971 77.0209 92.545C80.871 88.8566 86.2757 87.0516 91.6713 87.0173C97.1724 85.5147 103.038 86.1087 108.476 87.5147C110.322 88.2071 117.18 89.3264 115.697 90.8618C111.835 89.927 108.207 88.0944 104.212 87.7656C99.4576 86.088 94.4794 87.1923 89.76 88.2852C82.3195 88.9693 76.7007 94.0465 71.005 98.1136C69.1613 99.7357 68.1936 102.67 65.5588 103.255ZM69.3077 102.546C71.7082 98.3931 76.3925 96.2403 80.0114 93.2153C85.5645 89.861 92.2015 88.471 98.6982 88.2777C102.845 88.1464 106.808 89.4237 110.681 90.4421C113.206 90.7208 117.038 94.0608 118.386 93.2484C114.855 88.4372 123.361 95.4688 124.722 96.7771C127.082 97.6928 129.686 102.026 125.572 100.108C122.92 96.4506 118.985 94.5051 114.666 93.1614C107.892 89.58 99.8576 89.2977 92.3157 89.91C85.86 90.7118 80.1327 94.084 75.5236 98.3488C72.7326 98.4564 71.9392 102.879 69.3077 102.546ZM77.0163 102.898C78.7648 99.0223 84.4427 97.7902 87.0234 95.396C87.2125 97.6655 90.5934 96.0207 87.2993 97.3196C83.2817 98.2173 80.6254 101.918 77.0163 102.898ZM62.2616 101.877C65.9004 104.34 63.831 97.5804 62.2616 101.877ZM136.426 100.077C132.264 96.6742 126.862 92.2981 123.834 89.0663C128.636 88.8851 131.166 94.2153 134.553 96.9155C135.994 97.2394 140.54 102.848 136.426 100.077ZM61.6593 100.134C60.1367 97.6434 66.453 97.2274 62.5954 99.5344L62.164 99.8218L61.6593 100.134ZM65.281 99.6237C68.1157 99.9253 64.4685 96.7959 65.281 99.6237ZM63.7069 97.1341C60.8623 94.7156 68.7031 92.7851 69.5713 90.1313C71.5556 87.9066 75.1334 88.7388 71.4146 91.0418C68.3598 92.2015 65.1114 96.5156 63.7069 97.1341ZM137.797 96.7076C134.356 94.114 131.757 90.6381 128.127 88.2449C125.614 84.6604 121.361 83.6795 117.672 81.7104C115.315 79.2091 109.34 79.8704 108.511 77.1794C112.848 77.736 116.839 79.5887 120.661 81.5425C126.06 84.0505 130.402 88.157 134.883 91.8808C135.745 92.2524 141.434 99.7298 137.797 96.7076ZM87.5553 94.8599C88.8971 92.8138 96.2084 92.8344 94.5689 93.4698C92.1812 93.7114 90.0337 95.3626 87.5553 94.8599ZM61.8099 93.5115C63.4558 94.2557 62.3023 92.0482 61.8099 93.5115ZM62.9842 92.5135C62.8772 89.9531 71.1886 87.2327 66.6381 90.5438C65.502 90.8786 64.0658 93.2076 62.9842 92.5135ZM87.5553 92.8294C89.6046 91.2186 96.8153 89.6096 95.9579 91.2093C93.2481 92.1106 90.3751 92.4071 87.5553 92.8294ZM137.556 91.8079C133.883 87.2211 128.634 84.0338 123.486 81.1514C117.159 77.9669 110.042 74.4171 102.691 76.4239C98.33 77.4507 93.5589 76.6013 89.4523 78.6539C87.6544 78.9312 81.4839 82.0596 82.3787 79.8987C86.8884 78.2024 91.2929 75.8895 96.2713 75.9096C100.749 75.5641 105.191 74.3403 109.683 74.7404C114.461 75.6459 119.08 77.1793 123.295 79.5453C128.078 81.384 131.779 84.9915 135.957 87.7489C136.822 88.1429 140.343 92.7675 137.556 91.8079ZM62.3858 90.1175C63.2626 85.7217 68.7101 84.4222 72.1346 82.213C77.6863 78.9473 83.6586 76.3642 89.748 74.1717C93.8517 73.1542 98.2526 72.5575 102.438 73.247C100.732 74.8124 95.1169 73.8609 91.926 74.9546C84.0848 77.0569 76.8644 80.8979 69.8709 84.779C67.5659 86.7243 64.213 88.3629 62.3858 90.1175ZM120.121 87.8614C117.504 84.076 126.158 91.0086 120.572 88.2942C120.422 88.15 120.271 88.0057 120.121 87.8614ZM68.585 88.1719C71.2946 84.9583 75.4724 83.4203 79.1657 81.5932C83.567 81.7278 75.9725 84.2343 74.6803 85.2711C72.751 86.2084 70.7567 88.3436 68.585 88.1719ZM73.5606 88.167C76.4858 85.5097 80.5323 84.4524 83.7913 82.2386C88.3271 80.3069 92.973 78.5091 98.0233 78.4222C102.146 77.0786 106.039 78.3811 109.96 79.7578C111.807 80.1601 118.473 82.7521 113.245 81.7114C105.798 79.0078 97.5182 79.1342 89.8722 80.9711C84.9762 82.8012 80.5046 85.4408 75.8989 87.7907C75.1535 88.0527 74.3575 88.2068 73.5606 88.167ZM125.229 87.9872C122.106 85.9571 118.447 85.347 114.828 84.8286C109.042 83.2547 102.987 81.9262 96.9446 82.3262C93.5307 82.1786 89.7289 84.6063 86.6784 83.6975C90.6587 82.1187 95.0559 81.3808 99.3151 81.0671C105.722 80.6349 111.795 82.8434 117.97 84.077C119.35 84.4069 127.244 87.0044 125.229 87.9872ZM62.382 86.1403C63.7885 81.4502 69.9188 80.6063 73.6958 78.2192C80.1533 75.7026 85.9759 71.533 93.0818 70.7352C94.97 69.9878 102.77 70.5524 96.9075 71.4984C92.7254 71.8754 88.6108 72.6234 84.8009 74.4578C79.6877 75.8381 75.619 79.3534 70.6639 81.1146C67.7632 82.5898 65.1706 84.4521 62.382 86.1403ZM137.282 85.5515C132.292 82.4778 127.225 79.5614 121.937 76.986C118.256 75.0425 114.028 74.4362 110.187 72.9063C106.983 73.6023 102.225 72.041 100.636 70.8718C104.877 70.0352 109.604 71.8357 113.878 72.7023C117.648 74.0958 121.625 75.2884 125.056 77.2573C126.08 78.6827 131.833 80.6323 128.526 77.545C121.944 73.8557 114.926 70.5868 107.28 69.4816C99.315 68.3953 90.8697 68.526 83.5329 72.0222C81.537 72.452 76.5692 76.4592 76.2446 73.5624C79.5523 71.9868 83.8112 70.5668 87.8416 69.4366C95.2442 67.0553 103.472 66.6382 110.922 69.0517C118.079 70.5125 124.702 73.6451 130.567 77.7874C131.987 81.226 138.919 82.8852 138.322 86.2208L137.944 86.0472L137.282 85.5515ZM137.446 80.9767C133.693 78.1929 130.118 75.1977 125.981 72.9338C120.624 69.2635 113.997 68.3323 107.802 66.6449C103.004 65.8634 97.9258 65.2 93.1369 66.4243C88.6818 67.1535 84.4032 68.9639 79.9055 69.7356C76.4692 71.1325 72.3491 74.4735 69.1632 74.4153C73.4052 71.2812 78.1332 68.5788 83.4755 67.3119C87.9188 65.8751 92.5851 65.8907 97.0277 64.4145C101.217 64.8411 105.623 64.8351 109.746 65.8451C118.007 67.4954 126.105 70.7173 132.871 75.663C134.886 75.8783 140.82 82.7917 137.498 81.0257L137.446 80.9767ZM62.3668 81.4412C64.5479 77.9252 69.7265 77.8577 72.8418 75.3507C75.9251 73.1888 76.3513 76.3068 73.0796 76.7566C69.6611 78.7908 65.8309 79.4769 62.3668 81.4412ZM64.5501 77.5022C67.785 78.8294 64.4377 74.7303 64.5501 77.5022ZM67.2576 76.1052C69.5877 76.6486 68.0075 73.6838 67.2576 76.1052ZM63.8274 75.429C64.2729 73.0686 72.7029 70.2768 67.9509 73.7469C66.8206 74.6821 65.3991 75.5903 63.8274 75.429ZM136.288 75.1987C132.253 73.878 129.592 70.2866 125.513 68.9655C118.376 65.3768 110.318 64.1116 102.378 63.3814C97.1973 62.0011 92.3864 64.109 87.2553 64.2173C82.7828 65.3274 78.5788 67.2824 74.1648 68.5701C73.9395 65.593 80.6492 66.0931 82.9984 64.0314C86.6113 62.4389 90.9489 63.8449 94.5797 62.0323C98.4551 61.1715 102.327 62.1504 106.159 62.3725C109.973 64.2176 114.141 63.6287 118.168 64.4701C124.092 66.1914 129.636 69.121 134.262 73.0163C139.776 75.4531 130.997 68.8062 129.421 67.4627C125.025 63.7204 119.067 62.7665 113.596 61.427C107.47 61.8239 101.354 58.6522 95.3342 60.8023C93.3343 59.6867 87.0301 63.8464 87.9627 61.0476C92.2977 59.4246 97.0947 58.988 101.717 58.8971C106.276 59.1025 110.485 60.9836 115.11 60.6889C121.578 60.7403 127.406 63.8584 132.056 67.9434C133.612 68.4359 141.888 76.7922 136.288 75.1987ZM65.2727 71.4555C67.1554 67.4762 76.5531 67.4813 68.9216 70.3707C67.7215 70.7817 66.4799 71.0657 65.2727 71.4555ZM70.0335 71.3623C74.1326 72.8756 72.5757 68.3862 70.0335 71.3623ZM64.4296 69.3571C66.6107 70.3779 65.6946 66.6744 64.4296 69.3571ZM135.796 68.7223C139.066 69.6601 135.161 65.4787 135.796 68.7223ZM66.6338 68.0808C69.0213 64.2865 74.8524 63.8796 78.2886 61.2191C78.7093 61.8207 77.5632 64.1326 76.6735 64.6462C73.7336 64.128 69.4981 67.3426 66.6338 68.0808ZM133.755 67.4899C132.408 63.3536 127.092 62.7066 123.951 60.2089C120.09 59.1246 116.437 57.6036 112.826 55.9263C108.79 54.4756 104.403 54.7286 100.203 54.0056C96.0626 54.51 91.9289 54.7606 87.8294 55.8333C83.0018 56.986 78.2916 58.9602 74.1938 61.5134C71.2425 59.2103 79.6355 57.737 81.709 56.3337C86.3463 54.8797 90.9893 53.3227 95.9311 53.0764C100.947 52.321 105.918 53.3431 110.84 54.0133C117.669 56.2128 124.446 58.7661 130.583 62.4145C132.311 62.6846 138.387 67.9172 133.755 67.4899ZM79.1332 63.8928C79.6614 60.7307 85.6848 63.4834 80.6876 63.4242C80.0849 63.1691 79.612 64.6131 79.1332 63.8928ZM68.8108 63.5091C67.6412 59.5778 75.9756 62.23 70.3196 62.9642C69.8724 63.2089 69.3961 63.9322 68.8108 63.5091ZM80.6296 61.4352C82.8169 58.7593 87.7637 57.7169 91.0347 57.2973C90.7708 59.7466 85.1694 59.1573 83.0755 61.3412C82.2916 61.5928 81.4316 61.6437 80.6296 61.4352ZM131.116 60.1729C125.473 57.3359 119.655 54.8593 113.582 52.9802C109.404 51.3996 104.673 51.4699 100.227 51.2411C95.7942 51.9813 91.1843 51.2199 86.9007 52.5919C84.4098 52.9729 77.862 57.0946 77.5361 54.3575C81.7217 53.606 85.1262 50.5581 89.5389 50.546C94.328 50.0825 99.1374 49.9931 103.9 49.6273C107.998 49.9276 111.854 50.4561 115.546 52.2198C120.16 53.7037 124.502 55.9081 129.199 57.1646C129.617 57.9135 135.284 61.4535 131.116 60.1729ZM69.71 59.7081C69.9374 56.6173 79.3158 54.4222 74.0395 57.9828C72.6774 58.7296 71.1889 59.2226 69.71 59.7081ZM114.687 59.1919C108.868 57.9363 102.948 57.1313 96.9708 57.5722C94.8413 57.9614 91.1758 56.6793 95.3457 56.3278C100.258 56.1078 105.303 55.8981 110.155 56.756C110.954 56.6394 117.914 59.3699 114.687 59.1919ZM126.532 54.4671C121.818 52.0043 116.598 50.7298 111.607 48.9244C109.575 48.6357 101.163 47.945 107.192 47.1239C112.488 47.2249 117.189 49.9871 122.262 51.161C123.449 51.1216 132.101 55.7953 126.532 54.4671ZM75.0641 53.4158C77.1972 50.3183 81.6259 49.989 84.8138 48.303C89.1034 47.7098 93.7353 45.4719 97.7347 46.3041C92.9995 48.6463 87.7389 48.5216 82.9582 50.4064C80.3677 51.506 77.8222 52.7287 75.0641 53.4158ZM96.685 49.2934C100.222 50.4602 97.7507 46.43 96.685 49.2934ZM102.29 47.3989C103.282 47.6752 101.991 46.2545 102.29 47.3989ZM100.022 46.8884C100.731 48.559 100.669 44.8184 100.022 46.8884ZM99.3969 45.3226C100.355 45.8981 99.514 44.3661 99.3969 45.3226Z" fill="white"/>
</svg>
