<svg viewBox="0 0 200 200" fill="none" xmlns="http://www.w3.org/2000/svg">
<rect width="200" height="200" rx="100" fill="#406B4D"/>
<path d="M110 81.1378C106.984 80.0745 103.757 79.75 100.589 80.1915C97.4218 80.633 94.4064 81.8277 91.796 83.6753C89.1857 85.5229 87.0564 87.9696 85.5869 90.81C84.1174 93.6505 83.3504 96.8019 83.3504 100C83.3504 103.198 84.1174 106.35 85.5869 109.19C87.0564 112.03 89.1857 114.477 91.796 116.325C94.4064 118.172 97.4218 119.367 100.589 119.808C103.757 120.25 106.984 119.926 110 118.862M80 93.3333H103.333M80 106.667H103.333M140 100C140 105.253 138.965 110.454 136.955 115.307C134.945 120.16 131.999 124.57 128.284 128.284C124.57 131.999 120.16 134.945 115.307 136.955C110.454 138.965 105.253 140 100 140C94.7471 140 89.5457 138.965 84.6927 136.955C79.8396 134.945 75.4301 131.999 71.7157 128.284C68.0014 124.57 65.055 120.16 63.0448 115.307C61.0346 110.454 60 105.253 60 100C60 89.3913 64.2143 79.2172 71.7157 71.7157C79.2172 64.2143 89.3913 60 100 60C110.609 60 120.783 64.2143 128.284 71.7157C135.786 79.2172 140 89.3913 140 100Z" stroke="#F2F2F2" stroke-width="5" stroke-linecap="round" stroke-linejoin="round"/>
</svg>
