<svg viewBox="0 0 200 200" fill="none" xmlns="http://www.w3.org/2000/svg">
<rect width="200" height="200" rx="100" fill="#6EB783"/>
<g clip-path="url(#clip0_3801_4985)">
<path fill-rule="evenodd" clip-rule="evenodd" d="M72.6051 100.5C72.6051 115.938 85.1673 128.5 100.605 128.5C116.043 128.5 128.605 115.938 128.605 100.5C128.605 85.0622 116.043 72.5 100.605 72.5C85.1673 72.5 72.6051 85.0622 72.6051 100.5ZM75.9685 100.5C75.9685 86.912 87.0171 75.8634 100.605 75.8634C114.193 75.8634 125.242 86.912 125.242 100.5C125.242 114.088 114.193 125.137 100.605 125.137C87.0171 125.137 75.9685 114.088 75.9685 100.5ZM55 81.4634C55 85.6811 58.0213 89.2085 62.0125 89.9944V106.907H61.8614C60.0115 106.907 58.498 108.421 58.498 110.271V124.447C58.498 126.297 60.0115 127.811 61.8614 127.811H65.5106C67.3605 127.811 68.874 126.297 68.874 124.447V110.271C68.874 108.421 67.3605 106.907 65.5106 106.907H65.3758V89.9944C69.3672 89.2086 72.3886 85.6811 72.3886 81.4634V74.8881C72.3886 73.9631 71.6318 73.2064 70.7069 73.2064C69.782 73.2064 69.0252 73.9631 69.0252 74.8881V81.4634C69.0252 83.8189 67.4955 85.8188 65.3758 86.5235V74.8712C65.3758 73.9463 64.6191 73.1895 63.6942 73.1895C62.7692 73.1895 62.0125 73.9463 62.0125 74.8712V86.5234C59.893 85.8187 58.3634 83.8188 58.3634 81.4634V74.8881C58.3634 73.9631 57.6066 73.2064 56.6817 73.2064C55.7568 73.2064 55 73.9631 55 74.8881V81.4634ZM61.8614 124.447V110.271H65.5106V124.447H61.8614ZM141.12 107.597H141.117H137.468C135.618 107.597 134.105 109.11 134.105 110.96V125.137C134.105 126.986 135.618 128.5 137.468 128.5H141.117C142.967 128.5 144.481 126.986 144.481 125.137V110.96C144.481 110.617 144.429 110.286 144.332 109.974C144.43 109.762 144.484 109.526 144.484 109.278V102.492C144.494 102.418 144.499 102.343 144.499 102.266V74.1985C144.499 73.2736 143.742 72.5168 142.817 72.5168C137.049 72.5168 132.357 77.2087 132.357 82.9769V100.517C132.357 102.4 133.888 103.947 135.788 103.947H141.12V107.597ZM137.468 125.137V110.96H141.117V125.137H137.468ZM141.119 76.082C138.025 76.8388 135.704 79.6472 135.704 82.9769V100.517L141.119 100.567V76.082ZM79.6176 100.5C79.6176 112.07 89.035 121.487 100.605 121.487C112.175 121.487 121.592 112.07 121.592 100.5C121.592 88.93 112.175 79.5126 100.605 79.5126C89.035 79.5126 79.6176 88.93 79.6176 100.5ZM82.9809 100.5C82.9809 90.7799 90.8848 82.8759 100.605 82.8759C110.325 82.8759 118.229 90.7799 118.229 100.5C118.229 110.22 110.325 118.124 100.605 118.124C90.8848 118.124 82.9809 110.22 82.9809 100.5Z" fill="white"/>
</g>
<defs>
<clipPath id="clip0_3801_4985">
<rect width="90" height="57" fill="white" transform="translate(55 72)"/>
</clipPath>
</defs>
</svg>
