<svg viewBox="0 0 200 200" fill="none" xmlns="http://www.w3.org/2000/svg">
    <rect width="200" height="200" rx="100" fill="#005B9D"/>
    <path d="M87.8254 94.1315C88.7914 97.1073 93.2695 95.6297 92.3116 92.6743L89.9211 85.3146L101.239 77.0911L112.553 85.3146L108.73 97.0907H105.218C102.099 97.0907 102.099 101.806 105.218 101.806H110.445C111.465 101.806 112.373 101.147 112.688 100.177L117.572 85.142C117.887 84.1719 117.543 83.1076 116.716 82.5059L102.623 72.2727C101.796 71.671 100.679 71.671 99.8522 72.2727L85.7633 82.51C84.9365 83.1076 84.5926 84.176 84.9078 85.1461L87.8254 94.1315Z" fill="white"/>
    <path d="M133.456 117.591L127.827 115.167C134.733 108.262 138.847 98.6914 138.847 88.6097C138.847 68.1885 122.163 51 101.237 51C80.2304 51 63.6319 68.266 63.6319 88.6097C63.6319 92.3919 64.3032 96.2273 65.1792 99.207L55.7155 102.666V101.16C55.7155 98.0404 51 98.0404 51 101.16V117.705C51 126.272 57.3814 133.361 65.6379 134.512V136.661C65.6379 139.78 70.3534 139.78 70.3534 136.661V134.696H75.6583V136.661C75.6583 139.78 80.3738 139.78 80.3738 136.661V134.696H103.088V136.661C103.088 139.78 107.803 139.78 107.803 136.661V134.696H122.208V136.661C122.208 139.78 126.923 139.78 126.923 136.661V134.696H129.932C134.848 134.696 138.851 130.697 138.851 125.777C138.847 122.22 136.73 119.003 133.456 117.591ZM128.274 71.4301L129.072 71.16C131.761 75.4374 133.509 80.3617 133.98 85.6585L133.157 85.9369L127.733 79.6864L128.274 71.4301ZM108.888 56.6528V57.5083L101.237 60.652L93.587 57.5083V56.6528C96.0471 56.0634 98.6013 55.7155 101.237 55.7155C103.878 55.7155 106.428 56.0593 108.888 56.6528ZM88.871 58.1469C88.871 59.5551 88.8629 60.6602 90.3323 61.266L100.34 65.3757C100.369 65.388 100.402 65.3839 100.431 65.3921C100.995 65.6009 101.458 65.6091 102.047 65.3921C102.076 65.3798 102.109 65.388 102.137 65.3757L112.146 61.266C113.615 60.6643 113.607 59.5551 113.607 58.1469C118.474 60.1321 122.755 63.2472 126.136 67.1727C124.81 67.6188 123.775 67.9709 123.672 69.5468L122.968 80.3494C122.931 80.9061 123.099 81.5406 123.541 82.0481L123.549 82.0563L123.554 82.0604L130.635 90.2225C131.662 91.4055 132.698 91.0739 134.024 90.6237C133.676 96.3461 131.871 101.794 128.801 106.514L125.522 105.057C122.673 103.788 120.762 108.102 123.611 109.367L125.854 110.362C124.994 111.332 124.082 112.253 123.099 113.129L79.8865 94.5161C79.3339 94.2746 78.7076 94.2623 78.1427 94.4669L69.6082 97.5861C69.1211 95.871 68.7854 94.1231 68.5848 92.3466C69.9233 92.7191 70.9917 93.0343 71.9741 91.7736L78.6217 83.235C78.9614 82.797 79.1825 82.1912 79.1006 81.5117V81.4954L77.8276 70.7671C77.6434 69.2075 76.5914 68.9047 75.2448 68.5281C78.7773 63.9681 83.4555 60.3572 88.871 58.1469ZM99.7554 129.985H94.1967L105.801 118.278C108.834 118.122 111.695 116.665 113.607 114.176L114.884 114.725L99.7554 129.985ZM102.973 113.137L74.3812 100.861L78.8798 99.2154L109.035 112.204C107.393 113.6 105.073 114.025 102.973 113.137ZM100.308 117.124C99.8004 117.635 88.0812 129.383 87.6841 129.984H82.5961L96.8285 115.634L100.308 117.124ZM72.4939 72.6577L73.329 72.891L74.3032 81.1063L69.2193 87.6351L68.4047 87.4059C68.6012 82.0682 70.0462 77.0537 72.4939 72.6577ZM67.9217 103.222L92.1708 113.632C91.6633 114.143 76.4808 129.383 76.0837 129.984H72.2319C71.5974 120.533 65.6416 116.001 55.7151 112.125V107.684L67.9217 103.222ZM55.7117 117.185C64.0293 120.664 67.1358 123.996 67.5822 129.944C61.4504 129.739 55.7117 124.954 55.7117 117.185ZM129.927 129.984H106.399L119.543 116.731L131.593 121.921C133.137 122.588 134.135 124.103 134.135 125.785C134.131 128.098 132.244 129.984 129.927 129.984Z" fill="white"/>
</svg>
