<svg viewBox="0 0 200 200" fill="none" xmlns="http://www.w3.org/2000/svg">
<rect width="200" height="200" rx="100" fill="#352F99"/>
<path d="M139 79V121C139 123.387 138.052 125.676 136.364 127.364C134.676 129.052 132.387 130 130 130H70C67.6131 130 65.3239 129.052 63.636 127.364C61.9482 125.676 61 123.387 61 121V79M139 79C139 76.6131 138.052 74.3239 136.364 72.636C134.676 70.9482 132.387 70 130 70H70C67.6131 70 65.3239 70.9482 63.636 72.636C61.9482 74.3239 61 76.6131 61 79M139 79V79.972C139 81.5086 138.607 83.0196 137.858 84.3612C137.109 85.7027 136.028 86.8301 134.72 87.636L104.72 106.096C103.301 106.97 101.667 107.433 100 107.433C98.3332 107.433 96.6992 106.97 95.28 106.096L65.28 87.64C63.9717 86.8341 62.8915 85.7067 62.1423 84.3652C61.3931 83.0236 60.9998 81.5126 61 79.976V79" stroke="white" stroke-width="5" stroke-linecap="round" stroke-linejoin="round"/>
</svg>
