<svg viewBox="0 0 200 200" fill="none" xmlns="http://www.w3.org/2000/svg">
<rect width="200" height="200" rx="100" fill="#4C4C4C"/>
<path d="M60.8124 104.334L62.7014 109.192C62.8931 109.669 63.024 110.183 63.1082 110.702L63.8984 115.836C64.3519 118.805 65.8996 121.475 68.2421 123.355L72.2866 126.599C72.6933 126.922 73.0627 127.305 73.3994 127.712L76.6443 131.757C78.5239 134.104 81.1938 135.647 84.1628 136.1L89.2967 136.891C89.8111 136.975 90.3254 137.106 90.807 137.297L95.665 139.186C97.0678 139.724 98.5265 140 99.9994 140C101.472 140 102.931 139.724 104.334 139.186L109.192 137.297C109.669 137.106 110.183 136.975 110.702 136.891L115.836 136.1C118.805 135.647 121.475 134.099 123.355 131.757L126.599 127.712C126.922 127.306 127.305 126.936 127.712 126.599L131.757 123.355C134.104 121.475 135.647 118.805 136.1 115.836L136.891 110.702C136.975 110.188 137.106 109.673 137.297 109.192L139.186 104.334C140.276 101.547 140.276 98.4705 139.186 95.6697L137.297 90.8116C137.106 90.3347 136.975 89.8204 136.891 89.3014L136.1 84.1674C135.647 81.1983 134.099 78.5286 131.757 76.6489L127.712 73.4041C127.306 73.0814 126.936 72.698 126.599 72.2912L123.355 68.2467C121.475 65.8996 118.805 64.3566 115.836 63.903L110.702 63.1128C110.188 63.0287 109.673 62.8977 109.192 62.706L104.334 60.8171C101.547 59.7276 98.4564 59.7276 95.6697 60.8171L90.8116 62.706C90.3347 62.8977 89.8204 63.0287 89.3014 63.1128L84.1674 63.903C81.1983 64.3566 78.5286 65.9043 76.6489 68.2467L73.4041 72.2912C73.0814 72.698 72.698 73.0674 72.2912 73.4041L68.2467 76.6489C65.8996 78.5286 64.3566 81.1984 63.903 84.1674L63.1128 89.3014C63.0287 89.8157 62.8977 90.3301 62.706 90.8116L60.8171 95.6697C59.7276 98.4564 59.7276 101.533 60.8171 104.334H60.8124ZM65.2731 97.3997L67.162 92.5416C67.4753 91.7374 67.6998 90.8911 67.8307 90.0261L68.6209 84.8921C68.8967 83.1106 69.8178 81.5069 71.2299 80.3801L75.2744 77.1352C75.9571 76.5834 76.593 75.9616 77.1307 75.2789L80.3756 71.2344C81.5024 69.8223 83.1061 68.9012 84.8876 68.6253L90.0216 67.8351C90.8819 67.7042 91.7236 67.4751 92.5372 67.1665L97.3952 65.2776C98.2322 64.9549 99.1065 64.7866 99.9949 64.7866C100.879 64.7866 101.753 64.9549 102.595 65.2776L107.453 67.1665C108.257 67.4798 109.103 67.7042 109.968 67.8351L115.102 68.6253C116.884 68.9012 118.487 69.8223 119.614 71.2344L122.859 75.2789C123.411 75.9615 124.033 76.5975 124.715 77.1352L128.76 80.3801C130.172 81.5069 131.093 83.1106 131.369 84.8921L132.159 90.0261C132.29 90.8864 132.519 91.728 132.828 92.5416L134.717 97.3997C135.362 99.0736 135.362 100.921 134.717 102.594L132.828 107.452C132.515 108.257 132.29 109.103 132.159 109.968L131.369 115.102C131.093 116.883 130.172 118.487 128.76 119.614L124.715 122.859C124.033 123.411 123.397 124.032 122.859 124.715L119.614 128.76C118.487 130.172 116.884 131.093 115.102 131.369L109.968 132.159C109.108 132.29 108.266 132.519 107.453 132.828L102.595 134.716C100.921 135.362 99.0739 135.362 97.4 134.716L92.5419 132.828C91.7377 132.514 90.8914 132.29 90.0264 132.159L84.8924 131.369C83.1109 131.093 81.5072 130.172 80.3804 128.76L77.1355 124.715C76.5837 124.033 75.9619 123.397 75.2792 122.859L71.2347 119.614C69.8226 118.487 68.9016 116.883 68.6257 115.102L67.8355 109.968C67.7045 109.108 67.4754 108.266 67.1668 107.452L65.2779 102.594C64.6326 100.921 64.6326 99.0736 65.2779 97.3997H65.2731Z" fill="white"/>
<path d="M87.5372 112.46C88.0048 112.928 88.6126 113.166 89.2252 113.166C89.8378 113.166 90.4455 112.928 90.9132 112.46L112.459 90.9144C113.394 89.9793 113.394 88.4597 112.459 87.5292C111.524 86.5941 110.004 86.5941 109.074 87.5292L87.528 109.075C86.5929 110.01 86.5929 111.53 87.528 112.46H87.5372Z" fill="white"/>
<path d="M90.4226 97.6057C94.3829 97.6057 97.6045 94.3842 97.6045 90.4238C97.6045 86.4635 94.3829 83.2419 90.4226 83.2419C86.4623 83.2419 83.2407 86.4635 83.2407 90.4238C83.2407 94.3842 86.4623 97.6057 90.4226 97.6057ZM90.4226 88.0299C91.7412 88.0299 92.8166 89.1053 92.8166 90.4238C92.8166 91.7424 91.7412 92.8178 90.4226 92.8178C89.1041 92.8178 88.0286 91.7424 88.0286 90.4238C88.0286 89.1053 89.1041 88.0299 90.4226 88.0299Z" fill="white"/>
<path d="M102.392 109.575C102.392 113.536 105.614 116.757 109.574 116.757C113.534 116.757 116.756 113.536 116.756 109.575C116.756 105.615 113.534 102.394 109.574 102.394C105.614 102.394 102.392 105.615 102.392 109.575ZM111.968 109.575C111.968 110.894 110.893 111.969 109.574 111.969C108.255 111.969 107.18 110.894 107.18 109.575C107.18 108.257 108.255 107.181 109.574 107.181C110.893 107.181 111.968 108.257 111.968 109.575Z" fill="white"/>
</svg>
