<svg xmlns="http://www.w3.org/2000/svg" xmlns:xlink="http://www.w3.org/1999/xlink" width="98" height="98" viewBox="0 0 98 98">
  <defs>
    <filter id="Ellipse_1" x="0" y="0" width="98" height="98" filterUnits="userSpaceOnUse">
      <feOffset dy="3" input="SourceAlpha"/>
      <feGaussianBlur stdDeviation="3" result="blur"/>
      <feFlood flood-opacity="0.161"/>
      <feComposite operator="in" in2="blur"/>
      <feComposite in="SourceGraphic"/>
    </filter>
  </defs>
  <g id="Logo_Arminia_Bielefeld" transform="translate(9 6)">
    <g transform="matrix(1, 0, 0, 1, -9, -6)" filter="url(#Ellipse_1)">
      <circle id="Ellipse_1-2" data-name="Ellipse 1" cx="40" cy="40" r="40" transform="translate(9 6)" fill="#fff"/>
    </g>
    <path id="Pfad_188" data-name="Pfad 188" d="M205.162,231.1a26.2,26.2,0,1,1,26.2,26.2A26.231,26.231,0,0,1,205.162,231.1Zm-.892,0a27.1,27.1,0,1,0,27.1-27.1A27.125,27.125,0,0,0,204.27,231.1Z" transform="translate(-191.253 -191.006)" fill="#050703"/>
    <path id="Pfad_189" data-name="Pfad 189" d="M262.093,97.777a3.505,3.505,0,0,0,.475-.527h0a1.188,1.188,0,0,0,.274-.619,1.348,1.348,0,0,0-1.452-1.192,2.121,2.121,0,0,0-.838.2,15.021,15.021,0,0,0-6.225-7.022c-2.443-1.2-5.464-1.469-7.85-1.953a34.921,34.921,0,0,1-3.784-1.547h-.461v.348c.207.8,1.691,1.225,2.106,1.808a6.341,6.341,0,0,0,1.018,1.461c.791.67,1.837,1.2,2.469,1.75,2.738,2.345,5.916,2.447,8.365,3.8-3.871-.743-4.113-1.327-7.145-1.327a26.213,26.213,0,0,1-2.634-.066c.091-.048.216-.084.2-.148a10.531,10.531,0,0,0,2.915-.331c-1-.347-2.02-.422-2.932-.779-.606-.236-1.071-.749-1.527-.737a8.358,8.358,0,0,1-4.136-1.647l1.126-.065c1.46.26,3.084.818,4.456.964-1.049-.853-2.373-1.489-2.493-2.645-.48.2-.993.591-1.262.591a5.5,5.5,0,0,0-1.668-.1c-.443.025-.95.3-1.394.3-3.437.084-3.543.1-3.813.1s-1.016-.347-1.446-.372c-.751-.062-1.61.1-2.362.037-.365-.024-.73-.454-1-.551-.053,1.308-1.834,2.065-2.493,2.641,1.66.057,3.272-.96,4.884-.96a2.37,2.37,0,0,1,.7.057A10.507,10.507,0,0,1,229.695,91c-1.369.348-2.814,1.078-4.012,1.3.827.573,2.272.209,2.9.7a34.984,34.984,0,0,0-4.564-.043c-1.141.037-4.576,1.39-4.938,1.39-.269,0-.162-.05-.162-.05,3.544-1.731,7.612-2.139,11.228-5.924.322-.338.414-.928.79-1.289.282-.273,1.948-1.077,1.942-1.635v-.327h-.463c-.268-.009-2.124,1.035-3.146,1.35a11.78,11.78,0,0,1-2.884.494c-3.544.137-9.42,3.246-11.152,7.416a3.7,3.7,0,0,1-.674,1.26,2.831,2.831,0,0,0-.846-.2c-.416,0-1.45.3-1.45,1.1a5.7,5.7,0,0,0,.373.72h0a2.46,2.46,0,0,0,.381.523A11.7,11.7,0,0,0,211.1,100.7a5.734,5.734,0,0,1,1.322-.436,3.354,3.354,0,0,1,1.284-1.637,2.573,2.573,0,0,0,1.082.7c1.683,0,.548-1.41,1.112-2.061h0a1.384,1.384,0,0,1,1.089-.321l4.94.2a16.88,16.88,0,0,0,10.4-3.163c.336-.235.856-.067,1.166-.154.658-.2,1.289-.459,1.971-.7a2.721,2.721,0,0,0-1.124-.553,28.828,28.828,0,0,0-3.5-.169,4.311,4.311,0,0,1,1.042-.8c1.477-.5,5.244-2.8,5.675-2.8.133,0,5.826,2.8,6.611,3.6-1.026-.03-1.675.084-3.392.169a1.544,1.544,0,0,0-1.014.665c.788.227,1.538.462,2.289.686.2.062.583-.074.73.051,1.235,1.08,5.7,3.066,7.353,3.066h7.277c.026,0,1.572-.386,1.86.221h0a.62.62,0,0,1,.031.225c0,.534-.377,1.837,1.02,1.837.365,0,.913-.565,1.082-.794a3.556,3.556,0,0,1,1.244,1.772c.451.136.856-.065,1.355.405A13.108,13.108,0,0,0,262.093,97.777Zm-42.806-6.013c.365-.338.5-.616.871-.956a6.974,6.974,0,0,1,3.414-1.747c1.8-.478,2.884-.44,4.558-1.207a14.863,14.863,0,0,1-3.034,2.351,18.554,18.554,0,0,1-1.85.855,17.765,17.765,0,0,1-2.326,1.056c-1.156.365-1.8.617-2.921,1.044A6.5,6.5,0,0,1,219.287,91.765Zm8.732,3.127c-.382.138-.585.338-.979.453a11.136,11.136,0,0,1-3.537.44c-1.728,0-2.706.038-4.434.051-.176-.051-.53.012-.476-.151.04-.138.245-.126.38-.189.259-.113.423-.2.695-.3a9.884,9.884,0,0,1,2.448-.7,24.791,24.791,0,0,1,4.53-.351c1,0,2.333-.181,3.34-.181A5.4,5.4,0,0,1,228.019,94.892ZM252.35,96.13a10.271,10.271,0,0,1-4.367-1.106c-.844-.338-1.36-.428-2.218-.742l.328-.152c1.033-.013,1.631-.05,2.666-.05a14.564,14.564,0,0,1,4.325.742c1.075.289,2.218.8,3.306,1.049C255.11,95.91,253.628,96.13,252.35,96.13Zm1.993-3.7c-1.06-.4-1.552-.855-2.611-1.257a9.771,9.771,0,0,1-2.979-1.509,5.152,5.152,0,0,1-1.51-1.4c2.448.943,4.094.792,6.5,1.9,1.292.591,1.618,1.408,2.5,2.465a6.181,6.181,0,0,1,.693.893c-.817-.717-1.566-.7-2.6-1.094Z" transform="translate(-197.507 -82.156)" fill="#005c9d"/>
    <path id="Pfad_190" data-name="Pfad 190" d="M718.667,203.045a9.175,9.175,0,0,0-2.352-4.313,8.955,8.955,0,0,0-2.262-2.1,23.7,23.7,0,0,0-2.4-1.409,3.029,3.029,0,0,0,.3.905c.213.327.327.566.553.893a14.937,14.937,0,0,0,2.1,2.363c1.422,1.421,4.061,3.659,4.061,3.659Zm-4.148-15.623c3.355,4.111,7.413,8.846,7.413,13.253,0,.992.1,1.341.1,1.588,0,.646-.595,3.078-.595,3.277,0,.3,1.291.521,1.291,1.34,0,.546-.627.8-1.105,1-.084.353-.484.985-.484,1.234s.3.844.3,1.092a7.241,7.241,0,0,1-1.154,2.133c-.137-1.036-.036-2.029-.127-3-.764-.369-1.5-.513-1.5-1.22,0-.248.794-1.787.794-2.035,0-.634-3.031-3.309-3.255-3.46-1.638-1.093-4.358-3.268-5.451-5.1-.657-1.117-.8-2.606-2.1-3.735-.285-.248-1.108-.324-1.2-.779a2.034,2.034,0,0,1,.84-.226c1.873,0,5.08,1.6,6.544,2.616a15.114,15.114,0,0,1,6.071,9.2c.051-.169.243-.4.243-.645s-.881-2.251-1.067-3.368a18.23,18.23,0,0,0-4.05-9.093c-.061.084-.047-.05-.047.2,0,1.465,1.881,4.447,2.369,5.5v.354c-1.051-.548-3.622-2.371-3.5-3.624.013-.186-.284-.28-.338-.479a10.871,10.871,0,0,1-.325-1.7c0-.248.1-1.1.332-4.317Z" transform="translate(-647.966 -174.917)" fill="#005c9d" fill-rule="evenodd"/>
    <path id="Pfad_191" data-name="Pfad 191" d="M117.083,203.889l-.114.736a18.433,18.433,0,0,0,3.044-2.914c1.5-1.508,2.649-1.965,3.824-3.7a19.954,19.954,0,0,0,1.056-1.9c-1.85,1.222-3.248,1.745-4.768,3.359-.564.6-.868,1.019-1.448,1.6a6.518,6.518,0,0,0-1.6,2.825Zm4.34-15.278.233,4.018c0,2.433-.855,4.014-4.05,6,.781-1.845,1.673-3.729,2.334-5.6v-.444a27.114,27.114,0,0,0-2.691,4.3,19.97,19.97,0,0,0-1.089,3.6c-.338,1.278-1.251,3.624-1.259,3.872V205.5c.057-.016.091.1.143.185a21.591,21.591,0,0,1,2.217-5.238,15.591,15.591,0,0,1,4.023-4.063c1.181-.831,4.509-2.515,6.085-2.515a4.9,4.9,0,0,1,1.24.247c-2.433.645-2.517,3.406-3.721,4.958a23.749,23.749,0,0,1-3.146,3.184c-.186.162-5.245,3.8-5.245,4.915a3.343,3.343,0,0,0,.748,1.533,1.431,1.431,0,0,1,.046.5c0,.583-.253,1.042-1.413,1.134a8.592,8.592,0,0,0-.1,3.179,13.232,13.232,0,0,1-1.163-2.477c0-.248.2-.645.2-.894,0-1.278-1.589-1.291-1.589-2.283,0-.759,1-.923,1.393-1.159a6.994,6.994,0,0,1-.6-3.508c0-5.672,2.194-8.384,7.413-14.593Z" transform="translate(-107.886 -175.998)" fill="#005c9d" fill-rule="evenodd"/>
    <path id="Pfad_192" data-name="Pfad 192" d="M84.86,414.844a10.311,10.311,0,0,0-.554-3.5c-.213-.642-.44-1.17-.6-1.812-.491-1.886-.491-3.076-1.547-4.747l-.1-.2c-.038.263-.154,1.175-.154,1.439,0,1.6.178,1.73.178,3.326a5.673,5.673,0,0,0,1.283,3.495A7.039,7.039,0,0,0,84.86,414.844Zm.591-3.966a6.413,6.413,0,0,0,.038-1.544,20.314,20.314,0,0,1,3.11-7.668,2.3,2.3,0,0,1,1.543-1.1c-.287,1.137-.683,2.564-.683,2.813s.435,1.882.5,2.876c.124,1.688.1,2.238.1,2.486,0,2.616-2.855,8.342-2.6,9.668-.857-.3-.777-1.7-.777-2.321,0-2.768,1.229-6.763,1.856-9.634v-.941c-1.308,1.341-1.085,3.245-1.5,4.5-.161.506-.253,1.147-.5,1.73-.137.3-.455.626-.455.874s.3,1.688.3,1.936-.2,1.341-.2,1.589.4,1.926.57,2.984a1.457,1.457,0,0,1,1.813,1.285c0,.248-.5.844-.5,1.092s.791,1.621,1.073,2.471c-.654-.394-1.245-.689-1.839-1.013.77-2.033-2.412-1.382-2.412-2.747,0-.422.645-.862.994-1.051-3.713-4.652-5.263-8.5-5.263-12.75,0-.248.2-2.383.2-2.631,0-.546-.6-2.842-.6-3.028,0-.46.774.332,1.505,1.51.759.993,1.956,2.038,2.228,2.993.559,1.911.928,3.772,1.491,5.625Z" transform="translate(-77.679 -368.739)" fill="#005c9d" fill-rule="evenodd"/>
    <path id="Pfad_193" data-name="Pfad 193" d="M809.827,414.426a11.968,11.968,0,0,0,1.647-2.5c.239-.6.3-.98.506-1.609a7.855,7.855,0,0,0,.4-1.257,15.986,15.986,0,0,0,.264-2.992v-1.478l.038-.132-.038-.2v.332Zm-5.177-14a3.644,3.644,0,0,1,1.58,1.214,27.932,27.932,0,0,1,3.051,7.464v1.645c.844-2.105.675-4.848,2.228-6.835.446-.571,1.053-1.19,1.488-1.786.338-.458.653-1.6,1.4-1.692a26.167,26.167,0,0,0-.482,3.062c0,.248.2,2.433.2,2.681,0,4.641-1.8,8.346-5.262,12.854.408.39.993.735.993,1.1,0,.919-1.949,1.371-2.109,1.458-.458.261-.261.933-.319,1.253a15.324,15.324,0,0,0-1.72.9c.18-.844.972-2.125.972-2.374s-.5-.844-.5-1.092c0-.337.354-1.191.937-1.266.2-.024.5-.024.771-.053.022-.057.675-2.579.675-3,0-.248-.2-1.291-.2-1.539s.3-1.688.3-1.936-.37-.569-.469-.878a18.373,18.373,0,0,1-.561-2.688,3.263,3.263,0,0,0-.1-.591,4.4,4.4,0,0,0-.1-.5c-.024-.1-.051-.313-.1-.5a5.734,5.734,0,0,0-1.1-1.948,1.739,1.739,0,0,0-.056.6c0,2.222,1.885,6.615,1.885,10.028a2.255,2.255,0,0,1-.759,2.181,31.021,31.021,0,0,0-1.06-4.3,16.122,16.122,0,0,1-1.555-5.578,20.5,20.5,0,0,1,.1-2.089c.076-.893.5-2.527.5-2.775a9.017,9.017,0,0,0-.629-2.576v-.449Z" transform="translate(-736.973 -368.616)" fill="#005c9d" fill-rule="evenodd"/>
    <path id="Pfad_194" data-name="Pfad 194" d="M677.36,580.46c.744.694.659,2.219.659,2.977,0,3.921-1.814,9.5-5.271,12.826,3.411-1.852,7.4-5.738,10.1-9.374-2.226.861-4.342,4.531-6.6,5.666a17.071,17.071,0,0,1,1.407-2.943c.237-.359,6.334-4.887,7.278-4.875h.627c-2.194,4.181-6.381,10.757-11.644,12.755-.967.359-2.082.732-3.062,1.145a9.086,9.086,0,0,0-.224.95,1.833,1.833,0,0,1-1.2.824c-.236,0-.844-.5-1.092-.5s-2.433.893-2.681.893-.32-.1-.537-.222v-.354a21.5,21.5,0,0,0,2.278-1.273,1.245,1.245,0,0,1,1.091-1.922c.4,0,.675-.041.948.4a11.967,11.967,0,0,1,1.154-1.155c.161-.137.456-.022.591-.159,2.905-2.788,3.751-5.95,4.917-8.779.384-.944.631-1.981.928-2.953a.217.217,0,0,0-.043-.154c-2.2,3.465-3.411,7.271-5.26,10.9a2.126,2.126,0,0,1-.928.716c-.024-.143-.123-.192-.123-.44s.5-1.1.558-1.693c.4-3.934,2.991-7.8,4.877-10.054a8.786,8.786,0,0,0,1.253-3.193Z" transform="translate(-609.217 -531.7)" fill="#005c9d"/>
    <path id="Pfad_195" data-name="Pfad 195" d="M101.516,581.612c.272.764.37,2.183,1.04,2.79,2.284,2.061,2.79,3.881,4.019,6.095a12.416,12.416,0,0,1,.862,3.465c.137.683.77,1.959.769,2.207v.506l-.243.227c-.844-.44-1.066-1.555-1.376-2.212-1.4-2.945-2.552-6.3-4.589-9.209-.06.084-.046-.049-.046.2a45.7,45.7,0,0,0,1.61,4.6,21.185,21.185,0,0,0,3.009,5.569c.905,1.142,1.573,1.311,2.877,2.637a1.041,1.041,0,0,1,.943-.4,1.267,1.267,0,0,1,1.291,1.341,1.082,1.082,0,0,1-.2.581c.772.467,1.562.962,2.381,1.388a.8.8,0,0,1-.642.462c-.248,0-2.482-.893-2.73-.893s-.795.5-1.043.5c-.7,0-1.572-.863-1.237-1.618A24.994,24.994,0,0,1,98.95,594.1c-2.644-2.665-3.639-5.5-5.73-8.294.143-.027.044-.127.293-.127,1.65,0,7.163,4.265,7.635,4.885a19.866,19.866,0,0,1,1.384,2.7v.356c-2.3-1.684-3.858-4.754-6.545-5.581,2.726,3.068,6.627,7.758,10.341,9.18-4.074-3.713-4.7-7.51-5.468-11.287a11.358,11.358,0,0,0-.1-1.792,5.484,5.484,0,0,1,.759-2.531Z" transform="translate(-89.573 -532.753)" fill="#005c9d"/>
    <path id="Pfad_196" data-name="Pfad 196" d="M219.329,753.985a13.6,13.6,0,0,0-1.946.051c1.826.579,2.663.948,4.459,1.577.748.262,1.56.356,2.295.62a9.366,9.366,0,0,0,3.847.405,10.744,10.744,0,0,0,4.435-.56c-1.232-.465-2.6-.622-4.141-1.086a15.278,15.278,0,0,0-3.464-.618c-.68-.038-1.062-.15-1.742-.15h-1.6a20.635,20.635,0,0,1-2.137-.239Zm29.583,1.36c-1,.253-4.421.691-4.421.691a8.069,8.069,0,0,0,2.054.289c.679,0,3.936.422,4.4.422.326,0,1.983-.2,2.308-.222a7.432,7.432,0,0,0,2.762-.4c.667-.3,1.116-.379,1.756-.719s1.528-.993,2.181-1.344a6.4,6.4,0,0,1-1.961.364c-1.7,0-2.81.218-4.51.218a16.166,16.166,0,0,0-4.573.7Zm-29.661-8.815h.391c5.037,4.2,10.561,2.583,15.568,8.027.183-.1.265-.413.6-.66a1.453,1.453,0,0,1,.786-.135,1.331,1.331,0,0,1,1.45,1.24,1.674,1.674,0,0,1-.538,1c.206.265.752.839,1.022.839s.714-.482,1.022-.748a2.52,2.52,0,0,1-.538-1.238c0-.719,1.033-1.191,1.451-1.191a2.9,2.9,0,0,1,1.3.795c1.441-.764,3.435-2.814,4.913-3.348,1.4-.5,2.783-1.08,4.193-1.49,1.988-.583,4.5-.928,6.548-3.087h.4c-1.515,1.677-4.109,6.436-6.98,6.436a2.411,2.411,0,0,1-.968-.154c.877-.183,2.648-.89,3.03-2.242a30.989,30.989,0,0,1-3.492,1.756c-2.215.857-4.5,1.321-6.735,3.071.091.062,0,.148.268.148s2.119-.881,3.209-1.165a52.769,52.769,0,0,1,5.919-1.018l2.58-.1c3.556-.253,7.574-.489,10.246-2.079v.364c-2.926,2.906-7.8,6.086-11.224,6.086h-7.387c-.268,0-1.864-.187-2.709-.338a3.775,3.775,0,0,1-1.722-.857c-.718.3-1.461.591-2.191.945a26.533,26.533,0,0,1,4.936,3,5.37,5.37,0,0,0-2.316.822c-.553-.624-.592-1.656-1.735-2.262a10.72,10.72,0,0,0-2.014-.913,14.525,14.525,0,0,0-2.937,1.765,5.789,5.789,0,0,0-.607,1.294s.052.117-.216.117c-.591,0-1.079-.706-2.307-.828a26.672,26.672,0,0,1,4.939-2.994,15.82,15.82,0,0,0-2.095-.844c-.268,0-.953.533-1.49.656a23.288,23.288,0,0,1-3.341.436l-5.478.1c-4.109.174-9.052-2.486-12.823-6.187v-.36c2.887,1.8,5.218,1.412,7.67,1.883l2.684.1a34.834,34.834,0,0,1,11.7,2.384l.171-.152c-3.42-2.666-6.856-2.4-10.25-4.914,0,0-.065-.1-.065.15,0,.584,2.208,2.061,3.115,2.179a2.361,2.361,0,0,1-.967.155c-2.7,0-5.308-4.315-6.978-6.438Z" transform="translate(-198.486 -683.757)" fill="#005c9d" fill-rule="evenodd"/>
    <path id="Pfad_197" data-name="Pfad 197" d="M499.969,395.541c-.105-.154-.132-.177-.222-.132s-.268.135-.952-.068a9.006,9.006,0,0,1-1.941-.887,5.729,5.729,0,0,0-2.757-.945,7.522,7.522,0,0,0-3.281.916,4.322,4.322,0,0,1-1.581.535,2.262,2.262,0,0,1-1.716-.769,6.156,6.156,0,0,0-3.731-1.652,11.218,11.218,0,0,0-3.445.016,11.13,11.13,0,0,1-2.52.1l-.408-.04a4.542,4.542,0,0,1-2.462-.863l-.052-.03.008.06.147,1.326v.022l.021,0,.506.108a11.261,11.261,0,0,0,2.431.328,20.691,20.691,0,0,0,2.414-.138,11.822,11.822,0,0,1,3.472.007,4.561,4.561,0,0,1,1.822.844l.2.132,1.614,11.337a10.378,10.378,0,0,0-2.474.046,7.275,7.275,0,0,0-2.758,1.024,7.45,7.45,0,0,1-2.672,1.018,11.3,11.3,0,0,1-2.971.078h-.035v.035l.058.879v.022l.022.006a7.914,7.914,0,0,0,5.81-1.064,8.689,8.689,0,0,1,2.25-.884h0a7.039,7.039,0,0,1,2.465-.248,6.257,6.257,0,0,0,4.03-.892,4.264,4.264,0,0,0,1.6-1.72,10.676,10.676,0,0,1,1.332-1.947,5.08,5.08,0,0,1,2.591-1.121,4.656,4.656,0,0,0,.954-.282,5.174,5.174,0,0,0,2.674-2.984A2.63,2.63,0,0,0,499.969,395.541Z" transform="translate(-436.203 -360.92)" fill="#005c9d"/>
    <path id="Pfad_198" data-name="Pfad 198" d="M505.353,433.555c-.138.654-.177.851-.3,1.64-.019.128.028.156.084.238.138.218.6.145.99.119.355-.024.777.121.888-.218a.513.513,0,0,0,.02-.253,7.535,7.535,0,0,0-.435-1.818.782.782,0,0,0-1.126-.079.8.8,0,0,0-.12.375Zm-3.291,6.96c.651-3.67.752-5.14,1.276-8.522a1.856,1.856,0,0,1,.463-1.024c.338-.375,1.248-.276,2.127-.261.97.018,2.207-.169,2.406.387.057.162.143.332.2.5,1.067,3.082,1.4,5.218,2.294,7.763a.749.749,0,0,1,0,.614c-.164.432-.618.4-1.068.514-.405.1-.689.235-1.067.059-.2-.091-.37-.134-.435-.355-.2-.675-.2-2.1-.551-2.056-.69.077-2.628-.124-2.767.173-.208.447-.378,2.272-.554,2.5-.24.305-.571.234-.958.273-.523.051-1.218.061-1.337-.194a.491.491,0,0,1-.03-.373Z" transform="translate(-461.626 -396.604)" fill="#050703" fill-rule="evenodd"/>
    <path id="Pfad_199" data-name="Pfad 199" d="M288.93,636.524a3.3,3.3,0,0,0-.759,2.194,1.2,1.2,0,0,0,.467.941.446.446,0,0,0,.358.093c.314-.062.622-.5,1.02-1.125l-.249-2.936C289.5,635.963,289.231,636.238,288.93,636.524Z" transform="translate(-266.985 -583.522)" fill="#050703"/>
    <path id="Pfad_200" data-name="Pfad 200" d="M317.241,365.219l-1.833-17.094v-.007a5.166,5.166,0,0,0-1.38-2.179,7.036,7.036,0,0,0-2.329-1.38,9.316,9.316,0,0,0-5.521-.069,18.456,18.456,0,0,0-5.4,2.363l-.013.008v.015l-.075,1.471v.024l.024.006c3.291.956,3.494,4.74,3.675,8.078l.034.612a21.313,21.313,0,0,1-.415,7.286,9.24,9.24,0,0,1-1.533,2.92l.262,2.5a11.143,11.143,0,0,1,6.485-4.324l.39-.1c2.726-.681,3.747-.936,7.594-.105l.041.009Z" transform="translate(-278.114 -317.322)" fill="#050703"/>
    <path id="Pfad_201" data-name="Pfad 201" d="M279.936,341.634A.866.866,0,0,0,278.9,341a.881.881,0,0,0-.856.877.868.868,0,0,0,1.037.638A.882.882,0,0,0,279.936,341.634Z" transform="translate(-257.758 -315.115)" fill="none"/>
    <path id="Pfad_202" data-name="Pfad 202" d="M269.8,333.971c.042-.005.08-.018.121-.024l2.963,31.54.823-.078-2.979-31.754a1.515,1.515,0,0,0,.834-1.44,2.02,2.02,0,0,0-3.891.481,1.441,1.441,0,0,0,.915,1.108l2.875,30.3.43-.04-2.857-30.119A2.439,2.439,0,0,0,269.8,333.971Zm-1.259-1.318a.882.882,0,0,1,.856-.877.782.782,0,1,1-.855.877Z" transform="translate(-248.247 -304.925)" fill="#050703"/>
  </g>
</svg>
