<svg width="32" height="32" viewBox="0 0 32 32" fill="none" xmlns="http://www.w3.org/2000/svg">
<circle cx="16" cy="16" r="15.5" stroke="#B3B3B3"/>
<path d="M12.6909 16.456H14.2259V22.774C14.2259 22.8339 14.2497 22.8914 14.2921 22.9338C14.3345 22.9762 14.3919 23 14.4519 23H17.0519C17.1118 23 17.1693 22.9762 17.2117 22.9338C17.2541 22.8914 17.2779 22.8339 17.2779 22.774V16.486H19.0419C19.0972 16.4859 19.1506 16.4654 19.1919 16.4286C19.2332 16.3917 19.2595 16.341 19.2659 16.286L19.5339 13.96C19.5375 13.9284 19.5345 13.8963 19.5249 13.866C19.5153 13.8356 19.4994 13.8076 19.4783 13.7839C19.4571 13.7601 19.4312 13.741 19.4022 13.7279C19.3732 13.7149 19.3417 13.7081 19.3099 13.708H17.2789V12.251C17.2789 11.811 17.5159 11.589 17.9789 11.589H19.3079C19.3678 11.589 19.4253 11.5652 19.4677 11.5228C19.5101 11.4804 19.5339 11.4229 19.5339 11.363V9.227C19.5341 9.1674 19.5109 9.11011 19.4691 9.0676C19.4273 9.02509 19.3705 9.00079 19.3109 9H17.4799H17.3959C16.5521 9.00314 15.7377 9.31023 15.1019 9.865C14.8024 10.127 14.5725 10.4591 14.4329 10.8317C14.2933 11.2043 14.2483 11.6057 14.3019 12V13.7H12.6909C12.6309 13.7 12.5735 13.7238 12.5311 13.7662C12.4887 13.8086 12.4649 13.8661 12.4649 13.926V16.226C12.4643 16.256 12.4698 16.2858 12.4809 16.3137C12.492 16.3416 12.5086 16.367 12.5296 16.3884C12.5507 16.4098 12.5758 16.4268 12.6035 16.4384C12.6311 16.45 12.6609 16.456 12.6909 16.456Z" fill="#4A5568"/>
</svg>
