<svg width="32" height="32" viewBox="0 0 32 32" fill="none" xmlns="http://www.w3.org/2000/svg">
<circle cx="16" cy="16" r="15.5" stroke="#B3B3B3"/>
<path d="M8.28699 11.714L15.05 16.223C15.3314 16.4104 15.6619 16.5104 16 16.5104C16.3381 16.5104 16.6686 16.4104 16.95 16.223L23.716 11.714" stroke="#4A5568" stroke-width="1.5" stroke-miterlimit="10" stroke-linecap="round" stroke-linejoin="round"/>
<path d="M10.001 22H22.001C22.4556 22 22.8915 21.8194 23.213 21.498C23.5344 21.1765 23.715 20.7406 23.715 20.286V11.714C23.715 11.2594 23.5344 10.8235 23.213 10.502C22.8915 10.1806 22.4556 10 22.001 10H10.001C9.7759 10 9.55302 10.0443 9.34507 10.1305C9.13712 10.2166 8.94817 10.3429 8.78901 10.502C8.46757 10.8235 8.28699 11.2594 8.28699 11.714V20.285C8.28686 20.5102 8.33109 20.7332 8.41717 20.9412C8.50325 21.1493 8.62948 21.3384 8.78865 21.4976C8.94783 21.6569 9.13682 21.7832 9.34484 21.8694C9.55285 21.9556 9.77582 22 10.001 22Z" stroke="#4A5568" stroke-width="1.5" stroke-miterlimit="10" stroke-linecap="round" stroke-linejoin="round"/>
</svg>
