<svg width="24" height="24" viewBox="0 0 24 24" fill="none" xmlns="http://www.w3.org/2000/svg">
<path d="M8.69088 12.456H10.2259V18.774C10.2259 18.8339 10.2497 18.8914 10.2921 18.9338C10.3345 18.9762 10.3919 19 10.4519 19H13.0519C13.1118 19 13.1693 18.9762 13.2117 18.9338C13.2541 18.8914 13.2779 18.8339 13.2779 18.774V12.486H15.0419C15.0972 12.4859 15.1506 12.4654 15.1919 12.4286C15.2332 12.3917 15.2595 12.341 15.2659 12.286L15.5339 9.96C15.5375 9.92838 15.5345 9.89634 15.5249 9.86599C15.5153 9.83563 15.4994 9.80764 15.4783 9.78385C15.4571 9.76006 15.4312 9.74101 15.4022 9.72794C15.3732 9.71486 15.3417 9.70807 15.3099 9.708H13.2789V8.251C13.2789 7.811 13.5159 7.589 13.9789 7.589H15.3079C15.3678 7.589 15.4253 7.56519 15.4677 7.52281C15.5101 7.48042 15.5339 7.42294 15.5339 7.363V5.227C15.5341 5.1674 15.5109 5.11011 15.4691 5.0676C15.4273 5.02509 15.3705 5.00079 15.3109 5H13.4799H13.3959C12.5521 5.00314 11.7377 5.31023 11.1019 5.865C10.8024 6.12697 10.5725 6.45913 10.4329 6.83172C10.2933 7.20432 10.2483 7.60573 10.3019 8V9.7H8.69088C8.63094 9.7 8.57346 9.72381 8.53107 9.76619C8.48869 9.80858 8.46488 9.86606 8.46488 9.926V12.226C8.46435 12.256 8.4698 12.2858 8.48092 12.3137C8.49204 12.3416 8.5086 12.367 8.52964 12.3884C8.55068 12.4098 8.57578 12.4268 8.60346 12.4384C8.63114 12.45 8.66086 12.456 8.69088 12.456Z" fill="#4A5568"/>
</svg>
