<svg width="24" height="24" viewBox="0 0 24 24" fill="none" xmlns="http://www.w3.org/2000/svg">
<path d="M4.28711 7.71399L11.0501 12.223C11.3315 12.4104 11.662 12.5104 12.0001 12.5104C12.3382 12.5104 12.6687 12.4104 12.9501 12.223L19.7161 7.71399" stroke="#4A5568" stroke-width="1.5" stroke-miterlimit="10" stroke-linecap="round" stroke-linejoin="round"/>
<path d="M6.00111 18H18.0011C18.4557 18 18.8917 17.8194 19.2131 17.498C19.5345 17.1765 19.7151 16.7406 19.7151 16.286V7.714C19.7151 7.25942 19.5345 6.82346 19.2131 6.50202C18.8917 6.18058 18.4557 6 18.0011 6H6.00111C5.77602 6 5.55314 6.04433 5.34519 6.13047C5.13724 6.21661 4.94829 6.34286 4.78913 6.50202C4.46769 6.82346 4.28711 7.25942 4.28711 7.714V16.285C4.28698 16.5102 4.33122 16.7332 4.41729 16.9412C4.50337 17.1493 4.6296 17.3384 4.78877 17.4976C4.94795 17.6569 5.13694 17.7832 5.34496 17.8694C5.55298 17.9556 5.77594 18 6.00111 18Z" stroke="#4A5568" stroke-width="1.5" stroke-miterlimit="10" stroke-linecap="round" stroke-linejoin="round"/>
</svg>
