<svg id="apple-podcast-icon" xmlns="http://www.w3.org/2000/svg" xmlns:xlink="http://www.w3.org/1999/xlink" width="56" height="56" viewBox="0 0 56 56">
  <defs>
    <linearGradient id="linear-gradient" x1="0.5" x2="0.5" y2="1" gradientUnits="objectBoundingBox">
      <stop offset="0" stop-color="#f452ff"/>
      <stop offset="1" stop-color="#832bc1"/>
    </linearGradient>
  </defs>
  <path id="XMLID_662_" d="M54.9,48.533a11.8,11.8,0,0,1-3.584,4.7,11.986,11.986,0,0,1-3.939,2.053A24.077,24.077,0,0,1,40.6,56H15.4a24.875,24.875,0,0,1-6.776-.709,11.645,11.645,0,0,1-3.939-2.053,11.848,11.848,0,0,1-3.584-4.7A22.186,22.186,0,0,1,0,40.6H0V15.4H0A22.186,22.186,0,0,1,1.1,7.467a11.8,11.8,0,0,1,3.584-4.7A11.986,11.986,0,0,1,8.624.709,24.875,24.875,0,0,1,15.4,0H40.6a24.875,24.875,0,0,1,6.776.709,11.645,11.645,0,0,1,3.939,2.053,11.848,11.848,0,0,1,3.584,4.7A21.824,21.824,0,0,1,56,15.4V40.6A22.186,22.186,0,0,1,54.9,48.533Z" transform="translate(0)" fill-rule="evenodd" fill="url(#linear-gradient)"/>
  <g id="Gruppe_2478" data-name="Gruppe 2478" transform="translate(8.305 6.197)">
    <path id="XMLID_657_" d="M133.565,167.761a2.494,2.494,0,0,0-.747-1.605,5.637,5.637,0,0,0-4.051-1.456,5.559,5.559,0,0,0-4.051,1.456,2.636,2.636,0,0,0-.747,1.605,20.712,20.712,0,0,0,.093,4.237c.149,1.717.429,4.013.784,6.328a25.217,25.217,0,0,0,.653,3.192,3.719,3.719,0,0,0,6.533,0,25.216,25.216,0,0,0,.653-3.192c.355-2.333.635-4.611.784-6.328A19.456,19.456,0,0,0,133.565,167.761Z" transform="translate(-109.073 -140.153)" fill="#fff"/>
    <path id="XMLID_655_" d="M134.584,110.092a4.592,4.592,0,1,1-4.592-4.592A4.589,4.589,0,0,1,134.584,110.092Z" transform="translate(-110.297 -92.004)" fill="#fff"/>
    <path id="XMLID_653_" d="M64.13,33.2a19.7,19.7,0,0,0-6.459,38.285.267.267,0,0,0,.355-.28c-.093-.672-.205-1.344-.28-2.016a.74.74,0,0,0-.392-.541,17.173,17.173,0,1,1,13.7,0,.634.634,0,0,0-.392.541l-.28,2.016a.257.257,0,0,0,.355.28A19.7,19.7,0,0,0,64.13,33.2Z" transform="translate(-44.491 -33.2)" fill="#fff"/>
    <path id="XMLID_651_" d="M92.07,68.154a13.187,13.187,0,0,0-6.907,24.08.27.27,0,0,0,.411-.224,18.324,18.324,0,0,1-.019-2.259.76.76,0,0,0-.261-.635,10.668,10.668,0,1,1,14.579,0,.889.889,0,0,0-.261.635c.037.728.019,1.437-.019,2.24a.259.259,0,0,0,.411.224A13.176,13.176,0,0,0,92.07,68.154Z" transform="translate(-72.879 -61.62)" fill="#fff"/>
  </g>
</svg>
