<svg width="400" height="200" viewBox="0 0 400 200" fill="none" xmlns="http://www.w3.org/2000/svg">
<g clip-path="url(#clip0_2855_2623)">
<rect width="400" height="200" fill="#212429"/>
<path d="M-706 199.905L-657.2 189.071C-608.4 178.642 -510.8 156.367 -413.2 124.271C-315.6 91.567 -218 49.042 -120.4 37.9045C-22.8 26.767 74.8 49.042 172.4 81.1383C270 113.842 367.6 156.367 465.2 156.671C562.8 156.367 660.4 113.842 709.2 91.8708L758 70.3045V329.505H709.2C660.4 329.505 562.8 329.505 465.2 329.505C367.6 329.505 270 329.505 172.4 329.505C74.8 329.505 -22.8 329.505 -120.4 329.505C-218 329.505 -315.6 329.505 -413.2 329.505C-510.8 329.505 -608.4 329.505 -657.2 329.505H-706V199.905Z" fill="#191A1C"/>
</g>
<defs>
<clipPath id="clip0_2855_2623">
<rect width="400" height="200" fill="white"/>
</clipPath>
</defs>
</svg>
