<svg xmlns="http://www.w3.org/2000/svg" xmlns:xlink="http://www.w3.org/1999/xlink" width="56" height="56" viewBox="0 0 56 56">
  <defs>
    <linearGradient id="linear-gradient" x1="-6.229" y1="9.247" x2="-6.234" y2="9.806" gradientUnits="objectBoundingBox">
      <stop offset="0" stop-color="#358c7b"/>
      <stop offset="0.526" stop-color="#33a65e"/>
    </linearGradient>
    <linearGradient id="linear-gradient-2" x1="-6.513" y1="7.137" x2="-5.95" y2="7.626" gradientUnits="objectBoundingBox">
      <stop offset="0" stop-color="#222b90"/>
      <stop offset="1" stop-color="#367b99"/>
    </linearGradient>
    <linearGradient id="linear-gradient-3" x1="-4.859" y1="5.238" x2="-4.313" y2="5.238" gradientUnits="objectBoundingBox">
      <stop offset="0" stop-color="#f90"/>
      <stop offset="1" stop-color="#ff8000"/>
    </linearGradient>
    <linearGradient id="linear-gradient-4" x1="-5.406" y1="5.238" x2="-4.861" y2="5.238" gradientUnits="objectBoundingBox">
      <stop offset="0" stop-color="#ff8000"/>
      <stop offset="1" stop-color="#cc1953"/>
    </linearGradient>
    <linearGradient id="linear-gradient-5" x1="-6.505" y1="5.238" x2="-5.959" y2="5.238" gradientUnits="objectBoundingBox">
      <stop offset="0" stop-color="#222b90"/>
      <stop offset="1" stop-color="#3559a6"/>
    </linearGradient>
    <linearGradient id="linear-gradient-6" x1="-5.426" y1="7.563" x2="-4.841" y2="7.2" gradientUnits="objectBoundingBox">
      <stop offset="0.003" stop-color="#fc0"/>
      <stop offset="1" stop-color="#ce1938"/>
    </linearGradient>
    <linearGradient id="linear-gradient-7" x1="-5.36" y1="9.883" x2="-4.907" y2="9.167" gradientUnits="objectBoundingBox">
      <stop offset="0.003" stop-color="#ffd100"/>
      <stop offset="1" stop-color="#fd5a22"/>
    </linearGradient>
  </defs>
  <g id="deezer_icon" transform="translate(-2413 436)">
    <g id="XMLID_632_" transform="translate(2413 -436)">
      <path id="XMLID_662_" d="M54.9,48.533a11.8,11.8,0,0,1-3.584,4.7,11.986,11.986,0,0,1-3.939,2.053A24.077,24.077,0,0,1,40.6,56H15.4a24.875,24.875,0,0,1-6.776-.709,11.645,11.645,0,0,1-3.939-2.053,11.848,11.848,0,0,1-3.584-4.7A22.186,22.186,0,0,1,0,40.6H0V15.4H0A22.186,22.186,0,0,1,1.1,7.467a11.8,11.8,0,0,1,3.584-4.7A11.986,11.986,0,0,1,8.624.709,24.875,24.875,0,0,1,15.4,0H40.6a24.875,24.875,0,0,1,6.776.709,11.645,11.645,0,0,1,3.939,2.053,11.848,11.848,0,0,1,3.584,4.7A21.824,21.824,0,0,1,56,15.4V40.6A22.186,22.186,0,0,1,54.9,48.533Z" transform="translate(0)" fill="#1e1e1e" fill-rule="evenodd"/>
    </g>
    <g id="g8252" transform="translate(2422.918 -395.2)">
      <rect id="rect8185" width="7.387" height="4.322" transform="translate(26.777 -25.1)" fill="#40ab5d"/>
      <rect id="rect8192" width="7.387" height="4.322" transform="translate(26.777 -19.107)" fill="url(#linear-gradient)"/>
      <rect id="rect8199" width="7.387" height="4.322" transform="translate(26.777 -13.115)" fill="url(#linear-gradient-2)"/>
      <rect id="rect8206" width="7.387" height="4.322" transform="translate(0 -7.122)" fill="url(#linear-gradient-3)"/>
      <rect id="rect8213" width="7.387" height="4.322" transform="translate(8.92 -7.122)" fill="url(#linear-gradient-4)"/>
      <rect id="rect8220" width="7.387" height="4.322" transform="translate(17.857 -7.122)" fill="#6a54aa"/>
      <rect id="rect8227" width="7.387" height="4.322" transform="translate(26.777 -7.122)" fill="url(#linear-gradient-5)"/>
      <rect id="rect8234" width="7.387" height="4.322" transform="translate(17.857 -13.115)" fill="#6a54aa"/>
      <rect id="rect8241" width="7.387" height="4.322" transform="translate(8.92 -13.115)" fill="url(#linear-gradient-6)"/>
      <rect id="rect8248" width="7.387" height="4.322" transform="translate(8.92 -19.107)" fill="url(#linear-gradient-7)"/>
    </g>
  </g>
</svg>
