<svg id="Erwin_Logo-white_blue" xmlns="http://www.w3.org/2000/svg" width="95.459" height="30.571" viewBox="0 0 95.459 30.571">
  <rect id="Rechteck_2" data-name="Rechteck 2" width="95.459" height="30.571" fill="#fff"/>
  <path id="Pfad_42" data-name="Pfad 42" d="M39.53,61.431V40.01H52.805v4.767H44.357V48.4h6.638v4.646H44.357v3.62H52.8v4.767Z" transform="translate(-35.102 -35.528)" fill="#21184c"/>
  <path id="Pfad_43" data-name="Pfad 43" d="M185.03,61.431V40.01h8.086a6.36,6.36,0,0,1,5.22,10,6.522,6.522,0,0,1-2.987,2.339l6.969,9.082h-5.763l-6.638-8.689h-.06v8.689H185.03Zm4.827-12.762h2.716a2.226,2.226,0,0,0,1.6-.6,2,2,0,0,0,.634-1.509,2.045,2.045,0,0,0-.634-1.523,2.2,2.2,0,0,0-1.6-.618h-2.716Z" transform="translate(-164.305 -35.528)" fill="#21184c"/>
  <path id="Pfad_44" data-name="Pfad 44" d="M327.092,59.764,319.67,38.1h4.918l3.319,10.047,4.827-10.288,4.828,10.288L340.88,38.1H345.8l-7.422,21.663-5.642-12.37-5.642,12.37Z" transform="translate(-283.864 -33.619)" fill="#21184c"/>
  <path id="Pfad_45" data-name="Pfad 45" d="M572.59,61.431V40.01h4.827V61.431Z" transform="translate(-508.454 -35.528)" fill="#21184c"/>
  <path id="Pfad_46" data-name="Pfad 46" d="M667.283,59.764,653.767,48.329V59.522H648.94V37.86L662.456,49.3V38.1h4.828V59.764Z" transform="translate(-576.252 -33.619)" fill="#21184c"/>
</svg>
