<svg xmlns="http://www.w3.org/2000/svg" xmlns:xlink="http://www.w3.org/1999/xlink" width="380" height="400" viewBox="0 0 380 400">
  <defs>
    <clipPath id="clip-Erwin-head_400x380">
      <rect width="380" height="400"/>
    </clipPath>
  </defs>
  <g id="Erwin-head_400x380" clip-path="url(#clip-Erwin-head_400x380)">
    <g id="Erwin_Kopf_700x533px" transform="translate(0 0.03)">
      <path id="Pfad_1" data-name="Pfad 1" d="M459.034,193.658,432.559,176.27l-5.25-38.682,5.945-24.059,5.289-72.847-40.18,7.636L347.575,75.164l-21.4-7.157c.471-.247.942-.5,1.4-.757,6.455-3.544,11.8-7.374,15.04-11.219,2.224-2.656,3.467-5.358,3.544-8.007a2.469,2.469,0,0,0-1.977-2.787,3.8,3.8,0,0,0-.981-.116,8.019,8.019,0,0,0-1.675.2c-1.428.3-3.119.957-4.223,1.1a76.107,76.107,0,0,0-17.557,4.741c-6.215,2.424-8.539,2.973-14.461,6.107,0,0,8.03-5.868,13.288-8.756,6.455-3.544,11.8-7.374,15.04-11.219,2.224-2.656,3.467-5.366,3.544-8.007a2.469,2.469,0,0,0-1.977-2.787,3.8,3.8,0,0,0-.981-.116,8.019,8.019,0,0,0-1.675.2c-1.428.3-8.578,1.807-10.74,2.324a4.473,4.473,0,0,0-.733-4.239,4.784,4.784,0,0,0-3.8-1.521,8.807,8.807,0,0,0-1.506.139c-5.289.973-17.681,8.122-18.129,8.416-.046.031,7.937-7.69,9.643-9.891A27.971,27.971,0,0,0,310,17.388a48.836,48.836,0,0,0,2.695-6.941,4.556,4.556,0,0,0-.656-4.517,4.784,4.784,0,0,0-3.8-1.521,8.807,8.807,0,0,0-1.506.139c-5.3.973-16.168,7.343-16.623,7.636a44.33,44.33,0,0,0-4.625,3.559c.517-6.54-.641-11.9-3.922-14.523A5.479,5.479,0,0,0,277.986-.03h-.108a7.9,7.9,0,0,0-.842.046,17.313,17.313,0,0,0-7.335,3.2c-7.76,5.258-18.291,16.994-27.1,30.266-5.15,7.775-10.647,17.009-13.736,24.823L180.408,76.786l-13.8-3.66-6.146,2.27L123.157,44.628,83.742,40.273l-10.03,60.169,5.382,77.9L45.353,222.581,0,270.93l136.723,21.294,50.271,47.468,70.655,31.88L314.274,354.6,342.7,318.954l68.593-46.92,113.228-15.3-65.474-63.057ZM260.66,39.077c-2.208,4.447-11.5,24.321-11.5,24.321l-5.621-5.436s13.033-24.321,25.3-32.081c0,0-6.246,9.311-8.176,13.2Z" transform="translate(0 0)" fill="#fff"/>
      <path id="Pfad_2" data-name="Pfad 2" d="M456.139,241.673l-24.576-52.742-5.822-42.9,5.945-24.059,9.435-53.182L405.8,75.51,355,102.356l-74.7-24.97L268.1,93.956,248.993,79.95l-61.158,24.028-13.8-3.66,1.691,8.732L126.153,68.16,99.369,70.584l-4.548,40.643.232,42.9-1.4,44.372L45.87,263.67l83.857,24.151,32.142,4.64,37.153,51.669L251,368.065h55.074l35.208-40.883-.031-.093,60.478-61.961Z" transform="translate(-10.454 -15.541)" fill="#9ccce1"/>
      <path id="Pfad_3" data-name="Pfad 3" d="M121.98,152.659l.085-38.728,3.474-25.255,9.96-5.335,56.765,40.8Z" transform="translate(-27.8 -19)" fill="#5a3b8a"/>
      <path id="Pfad_4" data-name="Pfad 4" d="M505.5,144.069,517.441,90.2l-33.625,12.276-34.3,17.017Z" transform="translate(-102.447 -20.564)" fill="#5a3b8a"/>
      <path id="Pfad_5" data-name="Pfad 5" d="M392.468,52.451c-4.455,4.633-11.72,9.219-19.9,13.388-17.72,9.018-39.771,16.036-47.993,17.017l.293-.355c1.838-2.231,5.266-6.586,7.775-9.837a2.462,2.462,0,0,0,2.756.718,38.23,38.23,0,0,0,3.814-2.262l12.222-7.651c7.543-4.347,15.372-8.856,23.449-12.3A73.165,73.165,0,0,1,391.448,46.1c1.042-.17,2.532-.741,3.907-1.143a10.522,10.522,0,0,1,1.39-.278c-.147,2.548-1.745,5.134-4.277,7.76m-67.7,20.221a52.324,52.324,0,0,1,6.4-12.956,111.589,111.589,0,0,1,6.609-9.057,100.374,100.374,0,0,1-6.933,14.94c-.255.409-3.359,4.308-6.316,7.937.069-.286.147-.571.239-.865m21.6-31.625a66.7,66.7,0,0,1,9.744-8.5c.363-.232,7.875-4.841,12.786-6.462-.332.942-.679,1.868-1.081,2.764a22.676,22.676,0,0,1-2.517,4.424c-1.575,2.085-3.652,4.447-5.829,6.794-3.436,3.7-7.119,7.374-9.6,9.983-3.49,3.691-7.011,7.374-10.454,11.165l-.131.147a133.626,133.626,0,0,0,7.08-20.306m51.483.533a5.933,5.933,0,0,0-2.656.085c-1.428.3-3.119.957-4.223,1.1a76.107,76.107,0,0,0-17.557,4.741c-8.331,3.251-16.422,7.621-24.236,11.829-.425.224-.842.456-1.251.687,1.961-2.031,3.945-4.046,5.922-6.061,2.517-2.587,6.277-6.223,9.775-9.891,2.363-2.478,4.609-4.965,6.316-7.173a27.971,27.971,0,0,0,2.749-4.432,48.836,48.836,0,0,0,2.695-6.941,4.552,4.552,0,0,0-.656-4.517c-.88-1.081-2.718-1.853-5.3-1.382-5.3.973-16.168,7.343-16.623,7.636a44.326,44.326,0,0,0-4.625,3.559c.517-6.54-.641-11.9-3.922-14.523a5.977,5.977,0,0,0-4.532-1.2,17.314,17.314,0,0,0-7.335,3.2c-7.76,5.258-18.291,16.994-27.1,30.266-11.118,16.778-19.411,36-16.361,47.515a1.268,1.268,0,0,0,1.536.919,1.281,1.281,0,0,0,.9-1.552c-2.664-11.033,5.984-29.031,16.948-44.774,8.732-12.539,19.009-23.642,26.552-28.529a15.5,15.5,0,0,1,4.656-2.216,2.005,2.005,0,0,1,1.776.116c1.428,1.2,1.93,3.289,2.077,5.8A39.977,39.977,0,0,1,342.2,36.4a125.079,125.079,0,0,0-16.253,19.866c-6.022,9.4-9.543,19.225-7.5,26.5.17.6,2.509,3.868,5.119,1.243.185-.185.517-.571.973-1.1,9.489-.764,37.81-8.925,56.71-19.3,6.455-3.544,11.8-7.374,15.04-11.219,2.224-2.656,3.467-5.366,3.544-8.007a2.469,2.469,0,0,0-1.977-2.787" transform="translate(-65.701 -3.437)" fill="#5a3b8a"/>
      <path id="Pfad_6" data-name="Pfad 6" d="M118.2,171.8l1.83-18.221,2.772-12.083,7.52,12.547,2.4-4.949,4.038,3.613,3.621-3.32,9.157-.517-.131-10.585,11.365,5,.108-6.756,9.265,4.293-2.579-10.624,16.044,7.983L172.17,124.8l15.064,3.76,17.087,11.381Z" transform="translate(-26.938 -28.449)" fill="#9ccce1"/>
      <path id="Pfad_7" data-name="Pfad 7" d="M510.386,158.116,508.742,141.8l-2.478-10.809-6.748,11.234-2.146-4.432-3.6,3.227-3.251-2.965-8.2-.463.116-9.474-10.169,4.47-.093-6.046-8.292,3.837,2.309-9.5L451.83,128.02l10.238-11.96L448.6,119.419,433.3,129.61Z" transform="translate(-98.751 -26.457)" fill="#9ccce1"/>
      <path id="Pfad_8" data-name="Pfad 8" d="M21.1,306.632,62.785,263l54.834-55.243,51.947-26.3,42.635,1.027,23.425,26.622,9.466,48.874-65.86,31.973L169.9,321.727l23.333,48.032-50.912-43.253Z" transform="translate(-4.809 -41.362)" fill="#5a3b8a"/>
      <path id="Pfad_9" data-name="Pfad 9" d="M480.741,306.285l-69.072,47.252,26.892-37.323-12.13-23.734-68.9-37.647L369,206.4l36.705-24.939,46.5,9.2,85.293,56,47.314,48.526Z" transform="translate(-81.482 -41.362)" fill="#5a3b8a"/>
      <path id="Pfad_10" data-name="Pfad 10" d="M277.815,419.845l-30.405-55.73,38.883,20.993L333.7,381.3l51.808-21.032-25.371,51.283L345.86,426.184,291.1,423Z" transform="translate(-56.386 -82.114)" fill="#5a3b8a"/>
      <path id="Pfad_11" data-name="Pfad 11" d="M249.456,249.749a27.718,27.718,0,0,0-26.846-28.514,28.137,28.137,0,0,0-20.4,7.837,28.9,28.9,0,0,0-7.4,11.512,28.833,28.833,0,0,0,7.142,30.035,28.471,28.471,0,0,0,20.623,8.153,27.5,27.5,0,0,0,26.877-29.015" transform="translate(-44.04 -50.423)" fill="#fff"/>
      <path id="Pfad_12" data-name="Pfad 12" d="M251.617,250.091a25.315,25.315,0,0,0-6.918-18.206,25.609,25.609,0,0,0-18.021-7.976,24.62,24.62,0,0,0-9.96,1.892,24.3,24.3,0,0,0-8.254,5.891,25.28,25.28,0,0,0-6.733,18.376,28.459,28.459,0,0,0,.533,4.694c.2,1.042.425,2.069.71,3.073a26.177,26.177,0,0,0,5.683,10.408,24.628,24.628,0,0,0,9.975,6.787,24.029,24.029,0,0,0,8.022,1.274,25.626,25.626,0,0,0,18.075-7.976,25.363,25.363,0,0,0,6.918-18.237h-.023Zm-2.517,0a22.249,22.249,0,0,1-7.065,15.481,21.514,21.514,0,0,1-15.388,5.883,24.906,24.906,0,0,1-15.457-5.829,21.787,21.787,0,0,1-5.945-8.555,17.373,17.373,0,0,1-.772-2.741,20.5,20.5,0,0,1-.309-4.262,22.268,22.268,0,0,1,7.25-15.342,23.291,23.291,0,0,1,7.119-4.393,22.262,22.262,0,0,1,8.13-1.691,21.587,21.587,0,0,1,15.411,5.914,22.271,22.271,0,0,1,7.042,15.527h-.023Z" transform="translate(-45.969 -51.036)" fill="#5a3b8a"/>
      <path id="Pfad_13" data-name="Pfad 13" d="M223.008,279.53s1.39.131,3.505.247c1.011.054,2.216.124,3.49.131.95,0,1.93-.039,2.934-.069,2.316-.085,4.717-.3,6.856-.324.934-.015,1.814.023,2.61.062,2.347.1,3.922.255,3.922.255a.946.946,0,0,0-.039-1.892s-1.56.216-3.907.432c-.8.069-1.668.147-2.61.178-2.116.07-4.532-.039-6.848-.015-1,.008-2,.015-2.934.062-1.282.069-2.463.193-3.49.293-2.108.208-3.49.409-3.49.409a.11.11,0,0,0-.108.124.116.116,0,0,0,.124.116" transform="translate(-50.8 -63.35)" fill="#5a3b8a"/>
      <path id="Pfad_14" data-name="Pfad 14" d="M219.067,266.395a19.373,19.373,0,1,1,26.29-.656l-26.29.649Z" transform="translate(-48.441 -52.925)" fill="#5a3b8a"/>
      <path id="Pfad_15" data-name="Pfad 15" d="M218.914,266.259l26.313.232a.858.858,0,0,0,.587-.247,20.444,20.444,0,0,0,5.575-8.871,20.651,20.651,0,0,0,.332-10.6,19.972,19.972,0,0,0-1.868-4.494,20.354,20.354,0,0,0-7.891-7.574,26.133,26.133,0,0,0-4.223-1.807,21.107,21.107,0,0,0-10.709-1,17.934,17.934,0,0,0-5.93,2.193,18.877,18.877,0,0,0-6.478,6.941,22.256,22.256,0,0,0-2.587,9.041,22.9,22.9,0,0,0,.131,6.323,13.717,13.717,0,0,0,.44,1.807,16.055,16.055,0,0,0,2.116,3.768,19.383,19.383,0,0,0,4.185,4.293" transform="translate(-48.288 -52.788)" fill="#5a3b8a"/>
      <path id="Pfad_16" data-name="Pfad 16" d="M231.776,266.906c12.8.548,19.611-13.164,19.611-13.164,1.1,6-2.841,12.94-5.814,16.029l-25.865-1.15c-4.185-4.416-6.455-9.566-4.2-16.67,2.641,7.482,4.069,14.438,16.268,14.956" transform="translate(-48.913 -57.427)" fill="#9ccce1"/>
      <path id="Pfad_17" data-name="Pfad 17" d="M229.1,241.214a7.248,7.248,0,0,0-1.428-4.833,6.243,6.243,0,0,0-4.679-2.471,5.612,5.612,0,0,0-2.7.587,5.8,5.8,0,0,0-2.054,1.8,7.288,7.288,0,0,0-1.336,4.918,9.561,9.561,0,0,0,.124,1.066c.039.239.077.479.124.71a7.336,7.336,0,0,0,1.876,3.868,5.447,5.447,0,0,0,1.776,1.274,5.524,5.524,0,0,0,2.2.409,6.22,6.22,0,0,0,4.694-2.478,7.167,7.167,0,0,0,1.428-4.849h-.015Z" transform="translate(-49.425 -53.316)" fill="#fff"/>
      <path id="Pfad_18" data-name="Pfad 18" d="M409.053,269.757a27.8,27.8,0,0,0,19.773,9,28.459,28.459,0,0,0,20.623-8.153,29.023,29.023,0,0,0,7.289-11.7,28.715,28.715,0,0,0-.147-18.33,28.978,28.978,0,0,0-7.4-11.512,28.143,28.143,0,0,0-20.4-7.845,29.447,29.447,0,0,0-19.743,48.526" transform="translate(-91.597 -50.419)" fill="#fff"/>
      <path id="Pfad_19" data-name="Pfad 19" d="M401.616,250.091A25.426,25.426,0,0,0,426.609,276.3a23.966,23.966,0,0,0,8.022-1.274,24.68,24.68,0,0,0,9.976-6.787,26.124,26.124,0,0,0,5.683-10.408c.278-1,.51-2.031.71-3.073a28.463,28.463,0,0,0,.533-4.694,25.28,25.28,0,0,0-6.733-18.376,24.406,24.406,0,0,0-8.254-5.891,24.726,24.726,0,0,0-9.96-1.892,25.426,25.426,0,0,0-24.939,26.182h-.023Zm2.517,0a22.286,22.286,0,0,1,7.042-15.527,21.587,21.587,0,0,1,15.411-5.914,22.262,22.262,0,0,1,8.13,1.691,23,23,0,0,1,7.119,4.393,22.253,22.253,0,0,1,7.25,15.342,20.464,20.464,0,0,1-.309,4.262,17.372,17.372,0,0,1-.772,2.741,21.787,21.787,0,0,1-5.945,8.555,24.906,24.906,0,0,1-15.457,5.829,21.527,21.527,0,0,1-15.388-5.883,22.264,22.264,0,0,1-7.065-15.481h-.023Z" transform="translate(-91.527 -51.036)" fill="#5a3b8a"/>
      <path id="Pfad_20" data-name="Pfad 20" d="M437.808,279.53s-1.39.131-3.505.247c-1.011.054-2.216.124-3.49.131-.95,0-1.93-.039-2.934-.069-2.316-.085-4.718-.3-6.848-.324-.934-.015-1.814.023-2.61.062-2.347.1-3.922.255-3.922.255a.946.946,0,0,1,.039-1.892s1.56.216,3.907.432c.8.069,1.668.147,2.61.178,2.123.07,4.532-.039,6.856-.015,1,.008,2,.015,2.934.062,1.282.069,2.463.193,3.49.293,2.108.208,3.49.409,3.49.409a.11.11,0,0,1,.108.124.114.114,0,0,1-.116.116" transform="translate(-94.256 -63.35)" fill="#5a3b8a"/>
      <path id="Pfad_21" data-name="Pfad 21" d="M441.363,261.963a16.079,16.079,0,0,0,2.123-3.768,14.016,14.016,0,0,0,.44-1.807,22.91,22.91,0,0,0,.131-6.323,22.256,22.256,0,0,0-2.587-9.041,18.877,18.877,0,0,0-6.478-6.941,18,18,0,0,0-5.93-2.193,21.039,21.039,0,0,0-10.709,1,26.837,26.837,0,0,0-4.223,1.807,19.387,19.387,0,0,0-9.759,12.068,20.645,20.645,0,0,0,.332,10.6,20.329,20.329,0,0,0,5.575,8.871.894.894,0,0,0,.587.247l26.313-.232a19.379,19.379,0,0,0,4.185-4.293" transform="translate(-92.036 -52.786)" fill="#5a3b8a"/>
      <path id="Pfad_22" data-name="Pfad 22" d="M425.326,266.906c-12.8.548-19.611-13.164-19.611-13.164-1.1,6,2.841,12.94,5.814,16.029l25.865-1.15c4.185-4.416,6.455-9.566,4.2-16.67-2.641,7.482-4.069,14.438-16.268,14.956" transform="translate(-92.421 -57.427)" fill="#9ccce1"/>
      <path id="Pfad_23" data-name="Pfad 23" d="M435.274,241.214a7.167,7.167,0,0,0,1.428,4.849,6.269,6.269,0,0,0,4.694,2.478,5.524,5.524,0,0,0,2.2-.409,5.65,5.65,0,0,0,1.776-1.274,7.28,7.28,0,0,0,1.876-3.868c.039-.232.077-.471.124-.71a9.558,9.558,0,0,0,.124-1.066,7.259,7.259,0,0,0-1.336-4.918,5.957,5.957,0,0,0-2.054-1.8,5.612,5.612,0,0,0-2.7-.587,6.206,6.206,0,0,0-4.679,2.471,7.29,7.29,0,0,0-1.428,4.833h-.015Z" transform="translate(-99.196 -53.316)" fill="#fff"/>
      <path id="Pfad_24" data-name="Pfad 24" d="M285,331.979,309.676,363.8l11.1-3.59,15.851-2.834L360.2,316.421l-19.827-9.991-39.516,9.335Z" transform="translate(-64.952 -69.843)" fill="#5a3b8a"/>
      <g id="Gruppe_1" data-name="Gruppe 1" transform="translate(155.655 111.558)">
        <path id="Pfad_25" data-name="Pfad 25" d="M260.418,155.038a46.312,46.312,0,0,0-9.435-6,49.926,49.926,0,0,0-10.269-3.513,56.061,56.061,0,0,0-20.584-.147,56.809,56.809,0,0,0-18.53,6.941,57.462,57.462,0,0,1,18.839-1.714,51.553,51.553,0,0,1,17.488,4.2,41.784,41.784,0,0,1,7.636,4.108,35.733,35.733,0,0,1,6.308,5.49,6.241,6.241,0,0,0,8.895-.355,6.422,6.422,0,0,0-.347-9.01" transform="translate(-201.6 -144.496)" fill="#5a3b8a"/>
        <path id="Pfad_26" data-name="Pfad 26" d="M393.458,165.922a38.664,38.664,0,0,1,14.639-9.9,56.7,56.7,0,0,1,35.625-2.185,57.5,57.5,0,0,0-28.807-7.9,49.711,49.711,0,0,0-15.6,2.594,45.783,45.783,0,0,0-14.415,8.022,6.437,6.437,0,0,0-.347,9.01,6.243,6.243,0,0,0,8.9.355" transform="translate(-242.915 -144.825)" fill="#5a3b8a"/>
      </g>
      <path id="Pfad_27" data-name="Pfad 27" d="M44.022,397.888a.877.877,0,0,1-.872-.872V350.073a.872.872,0,1,1,1.745,0v46.943A.877.877,0,0,1,44.022,397.888Z" transform="translate(-9.834 -79.591)" fill="#fff"/>
      <path id="Pfad_28" data-name="Pfad 28" d="M62.5,380.931a.877.877,0,0,1-.872-.872V356.6a.872.872,0,1,1,1.745,0v23.456A.877.877,0,0,1,62.5,380.931Z" transform="translate(-14.046 -81.079)" fill="#fff"/>
      <path id="Pfad_29" data-name="Pfad 29" d="M308.762,506.339a.877.877,0,0,1-.872-.872V467.572a.872.872,0,1,1,1.745,0v37.894A.877.877,0,0,1,308.762,506.339Z" transform="translate(-70.169 -106.369)" fill="#fff"/>
      <path id="Pfad_30" data-name="Pfad 30" d="M302.392,483.537a.877.877,0,0,1-.872-.872v-19.1a.872.872,0,1,1,1.745,0v19.1A.877.877,0,0,1,302.392,483.537Z" transform="translate(-68.717 -105.456)" fill="#fff"/>
      <path id="Pfad_31" data-name="Pfad 31" d="M203.886,337.747c2.208-4.741,9.713-10.331,19.163-16.43,18.391-11.883,43.593-24.591,58.672-33.007-16.276,6.231-43.33,15.218-63.343,24.553a114.888,114.888,0,0,0-18.569,10.5,30.324,30.324,0,0,0-7.744,7.891,6.749,6.749,0,0,0,11.829,6.5" transform="translate(-43.583 -65.714)" fill="#5a3b8a"/>
      <path id="Pfad_32" data-name="Pfad 32" d="M199.641,357c9.1-9.528,19.943-17.635,31.641-24.7a272.76,272.76,0,0,1,37.007-18.461,265.2,265.2,0,0,0-40.157,12.153,158.4,158.4,0,0,0-37.485,20.978,6.736,6.736,0,1,0,8.987,10.037" transform="translate(-42.936 -71.532)" fill="#5a3b8a"/>
      <path id="Pfad_33" data-name="Pfad 33" d="M433.013,329.067c-1.977-3.714-8.678-8.084-17.117-12.863-16.43-9.3-38.945-19.256-52.425-25.834,14.546,4.88,38.713,11.913,56.595,19.217a108.347,108.347,0,0,1,16.592,8.215,25.417,25.417,0,0,1,6.918,6.177c1.591,2.556.54,5.76-2.386,7.165a6.488,6.488,0,0,1-8.176-2.077" transform="translate(-82.836 -66.183)" fill="#5a3b8a"/>
      <path id="Pfad_34" data-name="Pfad 34" d="M449.592,351.025a119.416,119.416,0,0,0-24.746-19.341A213.9,213.9,0,0,0,395.9,317.23a206.74,206.74,0,0,1,31.4,9.512,123.754,123.754,0,0,1,29.317,16.422,5.271,5.271,0,1,1-7.034,7.852" transform="translate(-90.227 -72.305)" fill="#5a3b8a"/>
      <path id="Pfad_35" data-name="Pfad 35" d="M303.76,394.17l4.4,19.8,3.042-9.281,13.288-.517,26.908-3.1L358.023,409l5.119-13.3,10.748-18.129-24.028,12.755Z" transform="translate(-69.228 -86.056)" fill="#fff"/>
      <path id="Pfad_36" data-name="Pfad 36" d="M306.068,430.065l-2.718-12.9,5.829,8.169,3.652-9.9,37.848-5.49,8.678,9.551,2.919-10.485,2.108,17.689-7.35,4.37Z" transform="translate(-69.135 -93.222)" fill="#fff"/>
    </g>
  </g>
</svg>
