<svg xmlns="http://www.w3.org/2000/svg" width="7.072" height="14" viewBox="0 0 7.072 14">
  <g id="facebook" transform="translate(-76.703)">
    <path id="XMLID_835_" d="M76.929,7.456h1.535v6.318a.226.226,0,0,0,.226.226h2.6a.226.226,0,0,0,.226-.226V7.486h1.764a.226.226,0,0,0,.224-.2l.268-2.326a.226.226,0,0,0-.224-.252H81.517V3.251c0-.44.237-.662.7-.662h1.329a.226.226,0,0,0,.226-.226V.227A.226.226,0,0,0,83.549,0H81.718l-.084,0A3.509,3.509,0,0,0,79.34.865,2.406,2.406,0,0,0,78.54,3v1.7H76.929a.226.226,0,0,0-.226.226v2.3A.226.226,0,0,0,76.929,7.456Z" transform="translate(0)" fill="#4a5568"/>
  </g>
</svg>
