<svg id="Symbols_Atoms_Icon_Newsletter" data-name="Symbols/Atoms/Icon/Newsletter" xmlns="http://www.w3.org/2000/svg" width="56" height="36.75" viewBox="0 0 56 36.75">
  <path id="Symbols_Atoms_Icon_Newsletter-2" data-name="Symbols/Atoms/Icon/Newsletter" d="M55.986,11.1c0-.022.01-.044.012-.066a.955.955,0,0,0-.009-.206c0-.017,0-.034,0-.051a.913.913,0,0,0-.093-.266c-.007-.015-.018-.028-.026-.043s0,0,0-.007,0,0,0-.006-.012-.021-.019-.03a.913.913,0,0,0-.206-.211c-.018-.013-.038-.02-.057-.032a.9.9,0,0,0-.22-.107.814.814,0,0,0-.1-.023.913.913,0,0,0-.207-.018.886.886,0,0,0-.11.008c-.024,0-.048,0-.072.006L.744,21.073a.926.926,0,0,0-.735.771.916.916,0,0,0,.488.942L16,30.848l2.72,14.876c0,.011,0,.023,0,.034a.852.852,0,0,0,0,.218.837.837,0,0,0,.019.108.88.88,0,0,0,.1.246c.009.015.009.032.02.047a.068.068,0,0,0,.011.012c.012.017.029.031.043.049a.946.946,0,0,0,.142.143c.008.006.014.017.023.023s.03.013.044.022a.955.955,0,0,0,.178.091c.025.009.048.02.075.028a.946.946,0,0,0,.258.04h0l.011,0,.048,0a.932.932,0,0,0,.664-.289l10.33-6.788,10.816,6.929a.946.946,0,0,0,.8.1.927.927,0,0,0,.581-.555l13.05-34.912a.832.832,0,0,0,.031-.1c0-.014,0-.028.007-.04A.327.327,0,0,0,55.986,11.1Zm-10.8,5.866L22.816,33.18a.9.9,0,0,0-.1.091.382.382,0,0,0-.035.032c-.02.021-.037.042-.055.065s-.03.045-.045.068a.934.934,0,0,0-.086.173c0,.012-.012.021-.016.033s0,.006-.006.009l-2.564,8.213L17.882,30.753ZM21.359,43.633,23.9,35.358l3.957,2.536,1.132.725-3.845,2.526ZM48.525,13.217,16.849,29.209,3.665,22.355ZM41.546,44.469l-14.363-9.2-2.175-1.394L53.122,13.5Z" transform="translate(0 -10.035)"/>
</svg>
