<svg xmlns="http://www.w3.org/2000/svg" width="19.005" height="22.004" viewBox="0 0 19.005 22.004">
  <path id="icon-PDF" d="M2513.065,33657h-10.3a2.654,2.654,0,0,1-1.951-.863,3,3,0,0,1-.811-2.059v-16.168a2.974,2.974,0,0,1,.811-2.062,2.722,2.722,0,0,1,1.951-.852h13.481a2.721,2.721,0,0,1,1.951.852,3.045,3.045,0,0,1,.811,2.063v12.84a.536.536,0,0,1-.051.227.432.432,0,0,1-.093.16l-5.313,5.6A.587.587,0,0,1,2513.065,33657Zm-10.3-20.789a1.565,1.565,0,0,0-1.14.5,1.727,1.727,0,0,0-.473,1.2v16.168a1.74,1.74,0,0,0,.473,1.207,1.565,1.565,0,0,0,1.14.5h9.739v-2.738h-.008a2.958,2.958,0,0,1,.819-2.051,2.656,2.656,0,0,1,1.951-.855l2.593.008v-12.238a1.727,1.727,0,0,0-.473-1.2,1.582,1.582,0,0,0-1.14-.5Zm11.082,12.047h-1v-5.152h3.277v.91h-2.281v1.371h2.07v.867h-2.07v2Zm-4.114,0h-1.681v-5.152h1.723a2.283,2.283,0,0,1,.836.152,2.18,2.18,0,0,1,.7.457,2.04,2.04,0,0,1,.507.8,3.273,3.273,0,0,1,.186,1.148,3.644,3.644,0,0,1-.186,1.234,2.022,2.022,0,0,1-.524.809,2.278,2.278,0,0,1-.718.414A2.682,2.682,0,0,1,2509.729,33648.258Zm-.684-4.242v3.313h.684a1.581,1.581,0,0,0,.465-.059.985.985,0,0,0,.372-.227,1.217,1.217,0,0,0,.279-.516,3.533,3.533,0,0,0,.093-.863,1.985,1.985,0,0,0-.321-1.25,1.041,1.041,0,0,0-.845-.4Zm-4.494,4.242h-1v-5.152h2.095a1.86,1.86,0,0,1,1.284.438,1.538,1.538,0,0,1,.49,1.2,1.56,1.56,0,0,1-.473,1.191,1.826,1.826,0,0,1-1.3.441h-1.1v1.883Zm0-4.242v1.438h1.081a.762.762,0,0,0,.549-.2.763.763,0,0,0-.009-1.062.818.818,0,0,0-.541-.18Z" transform="translate(-2499.998 -33634.996)" fill="#4a5568"/>
</svg>
