<svg xmlns="http://www.w3.org/2000/svg" width="19.005" height="22.004" viewBox="0 0 19.005 22.004">
  <path id="icon-DOC" d="M2513.065,33657h-10.3a2.654,2.654,0,0,1-1.951-.863,3,3,0,0,1-.811-2.059v-16.168a2.974,2.974,0,0,1,.811-2.062,2.722,2.722,0,0,1,1.951-.852h13.481a2.721,2.721,0,0,1,1.951.852,3.045,3.045,0,0,1,.811,2.063v12.84a.536.536,0,0,1-.051.227.432.432,0,0,1-.093.16l-5.313,5.6A.587.587,0,0,1,2513.065,33657Zm-10.3-20.789a1.565,1.565,0,0,0-1.14.5,1.727,1.727,0,0,0-.473,1.2v16.168a1.74,1.74,0,0,0,.473,1.207,1.565,1.565,0,0,0,1.14.5h9.739v-2.738h-.008a2.958,2.958,0,0,1,.819-2.051,2.656,2.656,0,0,1,1.951-.855l2.593.008v-12.238a1.727,1.727,0,0,0-.473-1.2,1.582,1.582,0,0,0-1.14-.5Zm11.5,11.895a2.048,2.048,0,0,1-1.571-.66,2.811,2.811,0,0,1-.608-1.977,2.5,2.5,0,0,1,.642-1.816,2.058,2.058,0,0,1,1.529-.656,1.922,1.922,0,0,1,1.318.473,1.887,1.887,0,0,1,.634,1.266l-.963.152a1.43,1.43,0,0,0-.3-.734.829.829,0,0,0-.676-.277,1.025,1.025,0,0,0-.836.414,1.811,1.811,0,0,0-.346,1.18,2.166,2.166,0,0,0,.338,1.336,1.042,1.042,0,0,0,.845.422c.563,0,.9-.395.988-1.172l1,.219a2.222,2.222,0,0,1-.634,1.344A1.871,1.871,0,0,1,2514.256,33648.105Zm-4.933,0a2.15,2.15,0,0,1-.811-.152,2.115,2.115,0,0,1-.693-.437,2.064,2.064,0,0,1-.49-.812,3.469,3.469,0,0,1-.186-1.2,2.922,2.922,0,0,1,.186-1.09,2.017,2.017,0,0,1,1.191-1.258,2.113,2.113,0,0,1,1.614,0,2.073,2.073,0,0,1,1.191,1.258,3.161,3.161,0,0,1,.177,1.09,3.683,3.683,0,0,1-.177,1.2,2.082,2.082,0,0,1-.5.813,2.115,2.115,0,0,1-.693.438A2.151,2.151,0,0,1,2509.323,33648.105Zm0-4.23a1.016,1.016,0,0,0-.836.414,1.891,1.891,0,0,0-.338,1.215,2.13,2.13,0,0,0,.33,1.316,1.01,1.01,0,0,0,.844.414,1.024,1.024,0,0,0,.845-.406,2.106,2.106,0,0,0,.329-1.324,1.891,1.891,0,0,0-.338-1.215A1.025,1.025,0,0,0,2509.323,33643.875Zm-4.933,4.129h-1.639v-4.9h1.681a2.129,2.129,0,0,1,.811.145,1.931,1.931,0,0,1,.684.43,2.047,2.047,0,0,1,.5.77,3.136,3.136,0,0,1,.177,1.1,3.257,3.257,0,0,1-.186,1.164,1.749,1.749,0,0,1-.507.77,2.269,2.269,0,0,1-.7.4A2.9,2.9,0,0,1,2504.39,33648Zm-.667-4.027v3.148h.667a1.428,1.428,0,0,0,.448-.059.943.943,0,0,0,.372-.219,1.064,1.064,0,0,0,.262-.492,2.792,2.792,0,0,0,.093-.809,1.85,1.85,0,0,0-.312-1.2,1.012,1.012,0,0,0-.819-.371Z" transform="translate(-2499.998 -33634.996)" fill="#4a5568"/>
</svg>
