<svg id="icon_Socialmedia_pinterest" data-name="icon/Socialmedia/pinterest" xmlns="http://www.w3.org/2000/svg" width="24" height="24" viewBox="0 0 24 24">
  <path id="icons8-pinterest" d="M14,2A12,12,0,0,0,9.845,25.258a15.278,15.278,0,0,1,.106-4.03c.2-.875,1.315-5.576,1.315-5.576a4.049,4.049,0,0,1-.336-1.665c0-1.56.9-2.724,2.029-2.724a1.409,1.409,0,0,1,1.419,1.58,22.49,22.49,0,0,1-.929,3.735A1.629,1.629,0,0,0,15.111,18.6c1.994,0,3.526-2.1,3.526-5.137A4.428,4.428,0,0,0,13.953,8.9a4.855,4.855,0,0,0-5.065,4.868,4.364,4.364,0,0,0,.835,2.56.336.336,0,0,1,.078.321c-.085.354-.274,1.116-.311,1.272-.049.206-.163.249-.375.15-1.4-.652-2.277-2.7-2.277-4.346,0-3.538,2.571-6.788,7.412-6.788,3.892,0,6.916,2.772,6.916,6.479,0,3.866-2.438,6.977-5.821,6.977a3,3,0,0,1-2.57-1.288s-.563,2.142-.7,2.667A20.414,20.414,0,0,1,10.32,25.42,12,12,0,1,0,14,2Z" transform="translate(-2 -2)" fill="#fff"/>
</svg>
