<svg xmlns="http://www.w3.org/2000/svg" xmlns:xlink="http://www.w3.org/1999/xlink" width="32" height="32" viewBox="0 0 32 32">
  <defs>
    <clipPath id="clip-icon-instagram-bg">
      <rect width="32" height="32"/>
    </clipPath>
  </defs>
  <g id="icon-instagram-bg" clip-path="url(#clip-icon-instagram-bg)">
    <g id="Gruppe_2128" data-name="Gruppe 2128">
      <g id="Gruppe_23" data-name="Gruppe 23" transform="translate(-256 -11339)">
        <g id="Symbols_Molecules_Buttons_Btn-Icon-Ghost" data-name="Symbols/Molecules/Buttons/Btn-Icon-Ghost" transform="translate(256 11339)">
          <circle id="Ellipse_1" data-name="Ellipse 1" cx="16" cy="16" r="16" fill="#fff"/>
        </g>
        <g id="Symbols_Atoms_Icons_Instagram" data-name="Symbols/Atoms/Icons/Instagram" transform="translate(262 11345)">
          <path id="Pfad_91" data-name="Pfad 91" d="M2.925,19.965H17.04a2.928,2.928,0,0,0,2.925-2.925V2.925A2.928,2.928,0,0,0,17.04,0H2.925A2.928,2.928,0,0,0,0,2.925V17.04A2.928,2.928,0,0,0,2.925,19.965ZM1.17,2.925A1.757,1.757,0,0,1,2.925,1.17H17.04A1.757,1.757,0,0,1,18.8,2.925V17.04A1.757,1.757,0,0,1,17.04,18.8H2.925A1.757,1.757,0,0,1,1.17,17.04Zm0,0"/>
          <path id="Pfad_92" data-name="Pfad 92" d="M126.264,131.528A5.264,5.264,0,1,0,121,126.264,5.27,5.27,0,0,0,126.264,131.528Zm0-9.359a4.094,4.094,0,1,1-4.094,4.094A4.1,4.1,0,0,1,126.264,122.17Zm0,0" transform="translate(-116.282 -116.282)"/>
          <path id="Pfad_93" data-name="Pfad 93" d="M362.755,64.509A1.755,1.755,0,1,0,361,62.755,1.757,1.757,0,0,0,362.755,64.509Zm0-2.34a.585.585,0,1,1-.585.585A.586.586,0,0,1,362.755,62.17Zm0,0" transform="translate(-346.923 -58.621)"/>
        </g>
      </g>
    </g>
  </g>
</svg>
