<svg id="IMG-Erwin_Event" xmlns="http://www.w3.org/2000/svg" width="520" height="200" viewBox="0 0 520 200">
  <path id="IMG" d="M6,0H514a6,6,0,0,1,6,6V200a0,0,0,0,1,0,0H0a0,0,0,0,1,0,0V6A6,6,0,0,1,6,0Z" fill="#1f114c"/>
  <path id="Text" d="M7.533.248l5.8-12.71,5.8,12.71L26.753-22.01H21.7L18.29-11.687,13.33-22.258,8.37-11.687,4.96-22.01H-.093ZM23.622,0H28.83l1.612-3.41H38.5L40.114,0h5.208L34.472-22.258Zm8.711-7.44L34.472-12,36.611-7.44ZM52.514.248c4.092,0,7.006-2.573,7.006-6.541,0-3.038-1.767-5.239-4.805-6.6l-1.178-.527c-2.015-.9-2.976-1.519-2.976-2.666a1.583,1.583,0,0,1,1.7-1.519c1.023,0,1.705.279,2.821,1.643L58.435-19.5a7.26,7.26,0,0,0-6.169-2.759,6.438,6.438,0,0,0-6.7,6.355c0,2.976,1.829,5.425,5.146,6.913l1.24.558c1.86.837,2.573,1.457,2.573,2.449,0,1.023-.651,1.581-2.108,1.581A5.354,5.354,0,0,1,48.36-7.13L44.609-4.061C46.128-1.209,48.98.248,52.514.248Zm12.4-8.153h2.077c4.619,0,7.781-3.162,7.781-7.161a7.159,7.159,0,0,0-7.285-7.192,7.081,7.081,0,0,0-7.192,7.192h4.712a2.528,2.528,0,0,1,2.48-2.821,2.592,2.592,0,0,1,2.573,2.821c0,1.922-1.333,2.79-3.069,2.79H64.914ZM66.867.248A3.334,3.334,0,0,0,70.215-3.1a3.39,3.39,0,0,0-1.24-2.6H64.759a3.294,3.294,0,0,0-1.24,2.6A3.334,3.334,0,0,0,66.867.248Zm21.3,0,5.8-12.71,5.8,12.71,7.626-22.258h-5.053l-3.41,10.323-4.96-10.571L89-11.687,85.591-22.01H80.538Zm30.287,0A11.272,11.272,0,0,0,129.7-11.005a11.272,11.272,0,0,0-11.253-11.253A11.272,11.272,0,0,0,107.2-11.005,11.272,11.272,0,0,0,118.451.248Zm0-4.774a6.333,6.333,0,0,1-6.262-6.479,6.333,6.333,0,0,1,6.262-6.479,6.333,6.333,0,0,1,6.262,6.479A6.333,6.333,0,0,1,118.451-4.526Zm17.174-3.379H137.7c4.619,0,7.781-3.162,7.781-7.161a7.159,7.159,0,0,0-7.285-7.192,7.081,7.081,0,0,0-7.192,7.192h4.712a2.528,2.528,0,0,1,2.48-2.821,2.592,2.592,0,0,1,2.573,2.821c0,1.922-1.333,2.79-3.069,2.79h-2.077ZM137.578.248A3.334,3.334,0,0,0,140.926-3.1a3.39,3.39,0,0,0-1.24-2.6H135.47a3.294,3.294,0,0,0-1.24,2.6A3.334,3.334,0,0,0,137.578.248Zm21.3,0,5.8-12.71,5.8,12.71L178.1-22.01h-5.053l-3.41,10.323-4.96-10.571-4.96,10.571L156.3-22.01h-5.053ZM174.964,0h5.208l1.612-3.41h8.06L191.456,0h5.208l-10.85-22.258Zm8.711-7.44L185.814-12l2.139,4.557ZM216.69.248V-22.01h-4.96v11.5L197.842-22.258V0h4.96V-11.5Zm22.847,0V-22.01h-4.96v11.5L220.689-22.258V0h4.96V-11.5Zm7.13-8.153h2.077c4.619,0,7.781-3.162,7.781-7.161a7.16,7.16,0,0,0-7.285-7.192,7.081,7.081,0,0,0-7.192,7.192h4.712a2.528,2.528,0,0,1,2.48-2.821,2.592,2.592,0,0,1,2.573,2.821c0,1.922-1.333,2.79-3.069,2.79h-2.077ZM248.62.248A3.334,3.334,0,0,0,251.968-3.1a3.39,3.39,0,0,0-1.24-2.6h-4.216a3.294,3.294,0,0,0-1.24,2.6A3.334,3.334,0,0,0,248.62.248ZM2.356,34h4.96V25.382h6.2V20.608h-6.2v-3.72h8.06v-4.9H2.356ZM17.98,34h4.96V25.072H23L29.822,34h5.921l-7.161-9.331A6.548,6.548,0,0,0,26.288,11.99H17.98Zm4.96-13.113V16.516h2.79a2.212,2.212,0,0,1,2.294,2.2,2.187,2.187,0,0,1-2.294,2.17ZM34.379,34h5.208L41.2,30.59h8.06L50.871,34h5.208L45.229,11.742Zm8.711-7.44L45.229,22l2.139,4.557Zm23.281,7.688c3.72,0,6.882-1.116,9.052-3.6V20.67h-8l-2.108,4.65h5.3v3.069a7.032,7.032,0,0,1-4.247,1.085,6.333,6.333,0,0,1-6.262-6.479,6.333,6.333,0,0,1,6.262-6.479,5.911,5.911,0,0,1,5.146,2.449L75.268,15.9a11,11,0,0,0-8.9-4.154,11.253,11.253,0,1,0,0,22.506ZM84.723,34h13.64V29.1h-8.68v-3.72H96.5V20.608h-6.82v-3.72h8.68v-4.9H84.723Zm16.771,0h4.96V25.072h.062L113.336,34h5.921L112.1,24.669A6.548,6.548,0,0,0,109.8,11.99h-8.308Zm4.96-13.113V16.516h2.79a2.212,2.212,0,0,1,2.294,2.2,2.187,2.187,0,0,1-2.294,2.17Zm18.6,13.361,5.8-12.71,5.8,12.71,7.626-22.258h-5.053l-3.41,10.323-4.96-10.571-4.96,10.571-3.41-10.323h-5.053ZM145.824,34h4.96V11.99h-4.96Zm27.807.248V11.99h-4.96v11.5L154.783,11.742V34h4.96V22.5Zm4.836-8.153h2.852l.93-5.7v-8.4h-4.712v8.4Zm1.426,8.153a3.334,3.334,0,0,0,3.348-3.348A3.39,3.39,0,0,0,182,28.3h-4.216a3.39,3.39,0,0,0-1.24,2.6A3.334,3.334,0,0,0,179.893,34.248Z" transform="translate(16 73)" fill="#82cde4"/>
  <g id="NW_Erwin_Logo_rgb_helllblau-dunkelblau" transform="translate(16 16)">
    <rect id="Rechteck_2" data-name="Rechteck 2" width="62.45" height="20" fill="#fff"/>
    <path id="Pfad_42" data-name="Pfad 42" d="M39.53,54.024V40.01h8.685v3.119H42.688V45.5H47.03v3.04H42.688v2.368h5.527v3.119Z" transform="translate(-36.633 -37.078)" fill="#21184c"/>
    <path id="Pfad_43" data-name="Pfad 43" d="M185.03,54.024V40.01h5.29a4.161,4.161,0,0,1,3.415,6.543,4.267,4.267,0,0,1-1.954,1.53l4.559,5.941h-3.77l-4.342-5.684h-.04v5.684H185.03Zm3.158-8.349h1.777a1.456,1.456,0,0,0,1.046-.395,1.307,1.307,0,0,0,.415-.987,1.338,1.338,0,0,0-.415-1,1.437,1.437,0,0,0-1.046-.4h-1.777Z" transform="translate(-171.471 -37.078)" fill="#21184c"/>
    <path id="Pfad_44" data-name="Pfad 44" d="M324.525,52.19,319.67,38.018h3.218l2.171,6.573,3.158-6.731,3.158,6.731,2.171-6.573h3.218L331.908,52.19,328.217,44.1l-3.691,8.093Z" transform="translate(-296.245 -35.086)" fill="#21184c"/>
    <path id="Pfad_45" data-name="Pfad 45" d="M572.59,54.024V40.01h3.158V54.024Z" transform="translate(-530.631 -37.078)" fill="#21184c"/>
    <path id="Pfad_46" data-name="Pfad 46" d="M660.94,52.19,652.1,44.709v7.323H648.94V37.86l8.843,7.481V38.018h3.158V52.19Z" transform="translate(-601.386 -35.086)" fill="#21184c"/>
  </g>
  <g id="Erwin_Kopf_700x533px" transform="translate(307.279 30.984)">
    <path id="Pfad_1" data-name="Pfad 1" d="M158.473,66.837l-9.14-6L147.521,47.48l2.052-8.306L151.4,14.025l-13.871,2.636-17.534,9.268L112.6,23.459c.163-.085.325-.173.482-.261a18.713,18.713,0,0,0,5.192-3.873A4.605,4.605,0,0,0,119.5,16.56a.852.852,0,0,0-.682-.962,1.311,1.311,0,0,0-.339-.04,2.768,2.768,0,0,0-.578.069c-.493.1-1.077.331-1.458.381a26.275,26.275,0,0,0-6.061,1.637,36.951,36.951,0,0,0-4.993,2.108s2.772-2.026,4.587-3.023a18.713,18.713,0,0,0,5.192-3.873,4.611,4.611,0,0,0,1.223-2.764.852.852,0,0,0-.682-.962,1.311,1.311,0,0,0-.339-.04,2.769,2.769,0,0,0-.578.069c-.493.1-2.961.624-3.708.8a1.544,1.544,0,0,0-.253-1.463,1.652,1.652,0,0,0-1.311-.525,3.041,3.041,0,0,0-.52.048c-1.826.336-6.1,2.8-6.259,2.905-.016.011,2.74-2.655,3.329-3.415a9.657,9.657,0,0,0,.949-1.53,16.858,16.858,0,0,0,.93-2.4,1.573,1.573,0,0,0-.227-1.559,1.651,1.651,0,0,0-1.311-.525,3.041,3.041,0,0,0-.52.048c-1.829.336-5.582,2.535-5.739,2.636a15.3,15.3,0,0,0-1.6,1.229c.179-2.258-.221-4.108-1.354-5.014A1.892,1.892,0,0,0,95.969-.03h-.037a2.727,2.727,0,0,0-.291.016,5.977,5.977,0,0,0-2.532,1.1C90.43,2.9,86.795,6.956,83.753,11.538a50.907,50.907,0,0,0-4.742,8.57L62.283,26.489l-4.763-1.263-2.122.784L42.518,15.387l-13.607-1.5L25.448,34.656l1.858,26.9L15.657,76.822,0,93.514l47.2,7.352,17.355,16.388,24.392,11.006L108.5,122.4l9.812-12.307,23.68-16.2,39.09-5.283-22.6-21.769ZM89.988,13.471c-.762,1.535-3.969,8.4-3.969,8.4l-1.941-1.877s4.5-8.4,8.735-11.075c0,0-2.156,3.215-2.823,4.555Z" transform="translate(0 0)" fill="#fff"/>
    <path id="Pfad_2" data-name="Pfad 2" d="M187.508,128.062l-8.484-18.208-2.01-14.81,2.052-8.306,3.257-18.36L170.129,70.7l-17.536,9.268L126.8,71.345l-4.212,5.72-6.6-4.835-21.114,8.3-4.763-1.263.584,3.015L73.586,68.16,64.339,69l-1.57,14.031.08,14.81-.482,15.319-16.5,22.5,28.95,8.338,11.1,1.6,12.826,17.838,17.944,8.263H135.7l12.155-14.114-.011-.032,20.879-21.391Z" transform="translate(-33.643 -50.014)" fill="#9ccce1"/>
    <path id="Pfad_3" data-name="Pfad 3" d="M121.98,107.271l.029-13.37,1.2-8.719,3.439-1.842,19.6,14.085Z" transform="translate(-89.466 -61.148)" fill="#5a3b8a"/>
    <path id="Pfad_4" data-name="Pfad 4" d="M468.845,108.8l4.124-18.6L461.36,94.438l-11.84,5.875Z" transform="translate(-329.699 -66.179)" fill="#5a3b8a"/>
    <path id="Pfad_5" data-name="Pfad 5" d="M324.252,27.963a26.806,26.806,0,0,1-6.872,4.622c-6.117,3.113-13.73,5.536-16.569,5.875l.1-.123c.634-.77,1.818-2.274,2.684-3.4a.85.85,0,0,0,.952.248,13.193,13.193,0,0,0,1.317-.781l4.22-2.642a77.091,77.091,0,0,1,8.1-4.246,25.259,25.259,0,0,1,5.72-1.749c.36-.059.874-.256,1.349-.394a3.633,3.633,0,0,1,.48-.1,4.491,4.491,0,0,1-1.477,2.679M300.88,34.942a18.065,18.065,0,0,1,2.21-4.473,38.526,38.526,0,0,1,2.282-3.127,34.65,34.65,0,0,1-2.394,5.158c-.088.141-1.159,1.487-2.18,2.74.024-.1.051-.2.083-.3m7.455-10.918a23.028,23.028,0,0,1,3.364-2.935,27.427,27.427,0,0,1,4.414-2.231c-.115.325-.235.645-.373.954a7.827,7.827,0,0,1-.869,1.527c-.544.72-1.261,1.535-2.012,2.346-1.186,1.277-2.458,2.546-3.313,3.447-1.2,1.274-2.42,2.546-3.609,3.854l-.045.051a46.134,46.134,0,0,0,2.444-7.01m17.774.184a2.048,2.048,0,0,0-.917.029c-.493.1-1.077.331-1.458.381a26.274,26.274,0,0,0-6.061,1.637,77.052,77.052,0,0,0-8.367,4.084c-.147.077-.291.157-.432.237.677-.7,1.362-1.4,2.044-2.092.869-.893,2.167-2.148,3.375-3.415.816-.856,1.591-1.714,2.18-2.476a9.66,9.66,0,0,0,.949-1.53,16.867,16.867,0,0,0,.93-2.4,1.571,1.571,0,0,0-.227-1.559,1.869,1.869,0,0,0-1.831-.477c-1.829.336-5.582,2.535-5.739,2.636a15.3,15.3,0,0,0-1.6,1.229c.179-2.258-.221-4.108-1.354-5.014a2.063,2.063,0,0,0-1.565-.416,5.977,5.977,0,0,0-2.532,1.1c-2.679,1.815-6.315,5.867-9.356,10.449-3.838,5.792-6.7,12.429-5.648,16.4a.435.435,0,1,0,.842-.219c-.92-3.809,2.066-10.022,5.851-15.457,3.015-4.329,6.563-8.162,9.167-9.849a5.35,5.35,0,0,1,1.607-.765.692.692,0,0,1,.613.04,2.73,2.73,0,0,1,.717,2,13.8,13.8,0,0,1-.405,3.646,43.182,43.182,0,0,0-5.611,6.858c-2.079,3.247-3.295,6.637-2.591,9.148.059.208.866,1.335,1.767.429.064-.064.179-.2.336-.379,3.276-.264,13.053-3.081,19.578-6.664a18.713,18.713,0,0,0,5.192-3.873,4.611,4.611,0,0,0,1.223-2.764.852.852,0,0,0-.682-.962" transform="translate(-211.441 -11.062)" fill="#5a3b8a"/>
    <path id="Pfad_6" data-name="Pfad 6" d="M118.2,141.025l.632-6.291.957-4.172,2.6,4.331.829-1.709,1.394,1.247,1.25-1.146,3.161-.179-.045-3.654,3.924,1.725.037-2.332,3.2,1.482-.89-3.668,5.539,2.756-3.95-4.617,5.2,1.3,5.9,3.929Z" transform="translate(-86.694 -91.556)" fill="#9ccce1"/>
    <path id="Pfad_7" data-name="Pfad 7" d="M459.913,130.579l-.568-5.632-.856-3.732-2.33,3.878-.741-1.53-1.242,1.114-1.122-1.024-2.831-.16.04-3.271-3.51,1.543-.032-2.087L443.858,121l.8-3.281-4.958,2.466,3.534-4.129-4.649,1.159-5.283,3.518Z" transform="translate(-317.803 -85.146)" fill="#9ccce1"/>
    <path id="Pfad_8" data-name="Pfad 8" d="M21.1,224.673l14.391-15.063,18.931-19.072,17.934-9.079,14.719.355,8.087,9.191,3.268,16.873L75.693,218.916,72.47,229.884l8.055,16.582L62.949,231.534Z" transform="translate(-15.476 -133.113)" fill="#5a3b8a"/>
    <path id="Pfad_9" data-name="Pfad 9" d="M400.066,224.553l-23.846,16.313,9.284-12.885-4.188-8.194-23.787-13,3.961-16.721,12.672-8.61,16.052,3.175,29.446,19.333,16.334,16.753Z" transform="translate(-262.23 -133.113)" fill="#5a3b8a"/>
    <path id="Pfad_10" data-name="Pfad 10" d="M257.907,380.837l-10.5-19.24,13.424,7.248,16.366-1.314,17.886-7.261-8.759,17.7-4.929,5.051-18.907-1.1Z" transform="translate(-181.462 -264.261)" fill="#5a3b8a"/>
    <path id="Pfad_11" data-name="Pfad 11" d="M212.648,231.068a9.569,9.569,0,0,0-9.268-9.844,9.714,9.714,0,0,0-7.042,2.705,9.976,9.976,0,0,0-2.554,3.974,9.954,9.954,0,0,0,2.466,10.369,9.829,9.829,0,0,0,7.12,2.815,9.494,9.494,0,0,0,9.279-10.017" transform="translate(-141.731 -162.274)" fill="#fff"/>
    <path id="Pfad_12" data-name="Pfad 12" d="M218.935,232.948a8.74,8.74,0,0,0-2.388-6.285,8.841,8.841,0,0,0-6.221-2.753,8.5,8.5,0,0,0-3.439.653,8.39,8.39,0,0,0-2.849,2.034,8.728,8.728,0,0,0-2.324,6.344,9.826,9.826,0,0,0,.184,1.621c.069.36.147.714.245,1.061a9.037,9.037,0,0,0,1.962,3.593,8.5,8.5,0,0,0,3.444,2.343,8.3,8.3,0,0,0,2.769.44,8.847,8.847,0,0,0,6.24-2.753,8.756,8.756,0,0,0,2.388-6.3h-.008Zm-.869,0a7.681,7.681,0,0,1-2.439,5.344,7.427,7.427,0,0,1-5.312,2.031,8.6,8.6,0,0,1-5.336-2.012,7.522,7.522,0,0,1-2.052-2.953,6,6,0,0,1-.267-.946,7.08,7.08,0,0,1-.107-1.471,7.688,7.688,0,0,1,2.5-5.3,8.041,8.041,0,0,1,2.458-1.517,7.686,7.686,0,0,1,2.807-.584,7.452,7.452,0,0,1,5.32,2.042,7.689,7.689,0,0,1,2.431,5.36h-.008Z" transform="translate(-147.939 -164.247)" fill="#5a3b8a"/>
    <path id="Pfad_13" data-name="Pfad 13" d="M222.937,278.489s.48.045,1.21.085c.349.019.765.043,1.2.045.328,0,.666-.013,1.013-.024.8-.029,1.629-.1,2.367-.112.323-.005.626.008.9.021.81.035,1.354.088,1.354.088a.327.327,0,0,0-.013-.653s-.538.075-1.349.149c-.277.024-.576.051-.9.061-.73.024-1.565-.013-2.364-.005-.346,0-.69.005-1.013.021-.442.024-.85.067-1.2.1-.728.072-1.2.141-1.2.141a.038.038,0,0,0-.037.043.04.04,0,0,0,.043.04" transform="translate(-163.486 -203.876)" fill="#5a3b8a"/>
    <path id="Pfad_14" data-name="Pfad 14" d="M214.8,244a6.688,6.688,0,1,1,9.076-.227L214.8,244Z" transform="translate(-155.895 -170.324)" fill="#5a3b8a"/>
    <path id="Pfad_15" data-name="Pfad 15" d="M214.307,243.563l9.084.08a.3.3,0,0,0,.2-.085,7.058,7.058,0,0,0,1.924-3.063,7.129,7.129,0,0,0,.115-3.66,6.893,6.893,0,0,0-.645-1.551,7.027,7.027,0,0,0-2.724-2.615,9.023,9.023,0,0,0-1.458-.624,7.287,7.287,0,0,0-3.7-.344,6.192,6.192,0,0,0-2.047.757,6.517,6.517,0,0,0-2.236,2.4,7.684,7.684,0,0,0-.893,3.121,7.906,7.906,0,0,0,.045,2.183,4.729,4.729,0,0,0,.152.624,5.542,5.542,0,0,0,.73,1.3,6.692,6.692,0,0,0,1.445,1.482" transform="translate(-155.402 -169.886)" fill="#5a3b8a"/>
    <path id="Pfad_16" data-name="Pfad 16" d="M220.543,257.113c4.419.189,6.77-4.545,6.77-4.545.379,2.071-.981,4.467-2.007,5.534l-8.929-.4a5.366,5.366,0,0,1-1.45-5.755c.912,2.583,1.4,4.985,5.616,5.163" transform="translate(-157.412 -184.814)" fill="#9ccce1"/>
    <path id="Pfad_17" data-name="Pfad 17" d="M221.092,236.431a2.5,2.5,0,0,0-.493-1.669,2.155,2.155,0,0,0-1.615-.853,1.938,1.938,0,0,0-.933.2,2,2,0,0,0-.709.621,2.516,2.516,0,0,0-.461,1.7,3.3,3.3,0,0,0,.043.368c.013.083.027.165.043.245a2.533,2.533,0,0,0,.648,1.335,1.881,1.881,0,0,0,.613.44,1.907,1.907,0,0,0,.76.141,2.147,2.147,0,0,0,1.621-.856,2.474,2.474,0,0,0,.493-1.674H221.1Z" transform="translate(-159.063 -171.582)" fill="#fff"/>
    <path id="Pfad_18" data-name="Pfad 18" d="M404.378,237.963a9.6,9.6,0,0,0,6.826,3.108,9.825,9.825,0,0,0,7.12-2.815,10.02,10.02,0,0,0,2.516-4.041,9.914,9.914,0,0,0-.051-6.328,10,10,0,0,0-2.554-3.974,9.716,9.716,0,0,0-7.042-2.708,10.166,10.166,0,0,0-6.816,16.753" transform="translate(-294.782 -162.26)" fill="#fff"/>
    <path id="Pfad_19" data-name="Pfad 19" d="M401.608,232.948A8.778,8.778,0,0,0,410.236,242a8.274,8.274,0,0,0,2.77-.44,8.52,8.52,0,0,0,3.444-2.343,9.019,9.019,0,0,0,1.962-3.593c.1-.347.176-.7.245-1.061a9.823,9.823,0,0,0,.184-1.621,8.728,8.728,0,0,0-2.324-6.344,8.426,8.426,0,0,0-2.849-2.034,8.536,8.536,0,0,0-3.438-.653,8.778,8.778,0,0,0-8.61,9.039h-.008Zm.869,0a7.694,7.694,0,0,1,2.431-5.36,7.453,7.453,0,0,1,5.32-2.042,7.685,7.685,0,0,1,2.807.584,7.94,7.94,0,0,1,2.458,1.517,7.682,7.682,0,0,1,2.5,5.3,7.065,7.065,0,0,1-.107,1.471,5.991,5.991,0,0,1-.267.946,7.521,7.521,0,0,1-2.052,2.953,8.6,8.6,0,0,1-5.336,2.012,7.432,7.432,0,0,1-5.312-2.031,7.686,7.686,0,0,1-2.439-5.344h-.008Z" transform="translate(-294.555 -164.247)" fill="#5a3b8a"/>
    <path id="Pfad_20" data-name="Pfad 20" d="M421.944,278.489s-.48.045-1.21.085c-.349.019-.765.043-1.2.045-.328,0-.666-.013-1.013-.024-.8-.029-1.629-.1-2.364-.112-.323-.005-.626.008-.9.021-.81.035-1.354.088-1.354.088a.327.327,0,0,1,.013-.653s.538.075,1.349.149c.277.024.576.051.9.061.733.024,1.565-.013,2.367-.005.347,0,.69.005,1.013.021.443.024.85.067,1.2.1.728.072,1.2.141,1.2.141a.038.038,0,0,1,.037.043.039.039,0,0,1-.04.04" transform="translate(-303.339 -203.876)" fill="#5a3b8a"/>
    <path id="Pfad_21" data-name="Pfad 21" d="M416.792,242.072a5.551,5.551,0,0,0,.733-1.3,4.846,4.846,0,0,0,.152-.624,7.91,7.91,0,0,0,.045-2.183,7.683,7.683,0,0,0-.893-3.121,6.517,6.517,0,0,0-2.236-2.4,6.215,6.215,0,0,0-2.047-.757,7.264,7.264,0,0,0-3.7.344,9.263,9.263,0,0,0-1.458.624,6.694,6.694,0,0,0-3.369,4.166,7.127,7.127,0,0,0,.115,3.66,7.018,7.018,0,0,0,1.924,3.063.309.309,0,0,0,.2.085l9.084-.08a6.69,6.69,0,0,0,1.445-1.482" transform="translate(-296.194 -169.877)" fill="#5a3b8a"/>
    <path id="Pfad_22" data-name="Pfad 22" d="M412.362,257.113c-4.419.189-6.77-4.545-6.77-4.545-.379,2.071.981,4.467,2.007,5.534l8.929-.4a5.366,5.366,0,0,0,1.45-5.755c-.912,2.583-1.4,4.985-5.616,5.163" transform="translate(-297.433 -184.814)" fill="#9ccce1"/>
    <path id="Pfad_23" data-name="Pfad 23" d="M435.262,236.431a2.474,2.474,0,0,0,.493,1.674,2.164,2.164,0,0,0,1.621.856,1.907,1.907,0,0,0,.76-.141,1.95,1.95,0,0,0,.613-.44,2.513,2.513,0,0,0,.648-1.335c.013-.08.027-.163.043-.245a3.308,3.308,0,0,0,.043-.368,2.506,2.506,0,0,0-.461-1.7,2.057,2.057,0,0,0-.709-.621,1.938,1.938,0,0,0-.933-.2,2.143,2.143,0,0,0-1.615.853,2.517,2.517,0,0,0-.493,1.669h-.005Z" transform="translate(-319.238 -171.582)" fill="#fff"/>
    <path id="Pfad_24" data-name="Pfad 24" d="M285,315.25l8.519,10.985L297.352,325l5.472-.978,8.138-14.138-6.845-3.449-13.642,3.223Z" transform="translate(-209.033 -224.772)" fill="#5a3b8a"/>
    <g id="Gruppe_1" data-name="Gruppe 1" transform="translate(53.737 38.494)">
      <path id="Pfad_25" data-name="Pfad 25" d="M221.906,148.135a15.988,15.988,0,0,0-3.257-2.071,17.238,17.238,0,0,0-3.545-1.213A19.354,19.354,0,0,0,208,144.8a19.612,19.612,0,0,0-6.4,2.4,19.837,19.837,0,0,1,6.5-.592,17.8,17.8,0,0,1,6.037,1.45,14.425,14.425,0,0,1,2.636,1.418,12.338,12.338,0,0,1,2.178,1.9,2.155,2.155,0,0,0,3.071-.123,2.217,2.217,0,0,0-.12-3.111" transform="translate(-201.6 -144.496)" fill="#5a3b8a"/>
      <path id="Pfad_26" data-name="Pfad 26" d="M386.534,152.838a13.348,13.348,0,0,1,5.054-3.417,19.576,19.576,0,0,1,12.3-.754,19.849,19.849,0,0,0-9.945-2.727,17.162,17.162,0,0,0-5.384.9,15.806,15.806,0,0,0-4.977,2.769,2.222,2.222,0,0,0-.12,3.111,2.155,2.155,0,0,0,3.073.123" transform="translate(-334.562 -145.555)" fill="#5a3b8a"/>
    </g>
    <path id="Pfad_27" data-name="Pfad 27" d="M43.451,366.009a.3.3,0,0,1-.3-.3V349.5a.3.3,0,1,1,.6,0v16.206A.3.3,0,0,1,43.451,366.009Z" transform="translate(-31.648 -256.142)" fill="#fff"/>
    <path id="Pfad_28" data-name="Pfad 28" d="M61.931,364.43a.3.3,0,0,1-.3-.3v-8.1a.3.3,0,0,1,.6,0v8.1A.3.3,0,0,1,61.931,364.43Z" transform="translate(-45.202 -260.931)" fill="#fff"/>
    <path id="Pfad_29" data-name="Pfad 29" d="M308.191,480.385a.3.3,0,0,1-.3-.3V467a.3.3,0,1,1,.6,0v13.082A.3.3,0,0,1,308.191,480.385Z" transform="translate(-225.821 -342.322)" fill="#fff"/>
    <path id="Pfad_30" data-name="Pfad 30" d="M301.821,469.887a.3.3,0,0,1-.3-.3v-6.595a.3.3,0,0,1,.6,0v6.595A.3.3,0,0,1,301.821,469.887Z" transform="translate(-221.149 -339.381)" fill="#fff"/>
    <path id="Pfad_31" data-name="Pfad 31" d="M195.6,305.377c.762-1.637,3.353-3.566,6.616-5.672,6.349-4.1,15.05-8.49,20.255-11.4-5.619,2.151-14.959,5.254-21.868,8.476a39.669,39.669,0,0,0-6.411,3.625,10.469,10.469,0,0,0-2.673,2.724,2.33,2.33,0,0,0,4.084,2.244" transform="translate(-140.261 -211.482)" fill="#5a3b8a"/>
    <path id="Pfad_32" data-name="Pfad 32" d="M192.278,328.74a52.634,52.634,0,0,1,10.923-8.527,94.163,94.163,0,0,1,12.776-6.373,91.546,91.546,0,0,0-13.863,4.2,54.685,54.685,0,0,0-12.941,7.242,2.326,2.326,0,1,0,3.1,3.465" transform="translate(-138.179 -230.207)" fill="#5a3b8a"/>
    <path id="Pfad_33" data-name="Pfad 33" d="M387.478,303.73c-.682-1.282-3-2.791-5.909-4.441-5.672-3.212-13.445-6.648-18.1-8.919,5.022,1.685,13.365,4.113,19.538,6.634a37.4,37.4,0,0,1,5.728,2.836,8.776,8.776,0,0,1,2.388,2.132,1.712,1.712,0,0,1-.824,2.474,2.24,2.24,0,0,1-2.823-.717" transform="translate(-266.586 -212.993)" fill="#5a3b8a"/>
    <path id="Pfad_34" data-name="Pfad 34" d="M414.436,328.9a41.225,41.225,0,0,0-8.543-6.677,73.846,73.846,0,0,0-9.993-4.99,71.363,71.363,0,0,1,10.841,3.284,42.724,42.724,0,0,1,10.121,5.67,1.82,1.82,0,1,1-2.428,2.711" transform="translate(-290.372 -232.694)" fill="#5a3b8a"/>
    <path id="Pfad_35" data-name="Pfad 35" d="M303.76,383.3l1.519,6.837,1.05-3.2,4.587-.179,9.289-1.069,2.287,2.735,1.767-4.593,3.71-6.259-8.3,4.4Z" transform="translate(-222.792 -276.95)" fill="#fff"/>
    <path id="Pfad_36" data-name="Pfad 36" d="M304.288,416.279l-.938-4.454,2.012,2.82,1.261-3.417,13.066-1.9,3,3.3,1.008-3.62.728,6.107-2.538,1.509Z" transform="translate(-222.491 -300.01)" fill="#fff"/>
  </g>
</svg>
