<svg width="56" height="56" viewBox="0 0 56 56" fill="none" xmlns="http://www.w3.org/2000/svg">
<path d="M56 28C56 12.536 43.464 0 28 0C12.536 0 0 12.536 0 28C0 43.464 12.536 56 28 56C43.464 56 56 43.464 56 28Z" fill="white"/>
<path fill-rule="evenodd" clip-rule="evenodd" d="M47.7043 40.0935C45.6568 43.4529 42.7792 46.229 39.3484 48.1548C35.9177 50.0805 32.0491 51.091 28.1148 51.0892C23.1336 51.0974 18.2864 49.4768 14.3117 46.4746L47.7043 40.0935ZM5.17324 28.1475C5.17321 25.1347 5.7666 22.1515 6.91952 19.3681C8.07245 16.5846 9.76234 14.0556 11.8927 11.9253C14.023 9.79496 16.5521 8.10513 19.3356 6.95225C22.119 5.79938 25.1023 5.20605 28.115 5.20613C31.1545 5.20229 34.1643 5.80436 36.9685 6.97716C39.7726 8.14995 42.3148 9.86993 44.4466 12.0366L42.321 12.6621L40.1877 25.0844L38.1986 13.873L33.6515 15.2092L31.6615 27.5904L29.5281 16.421L24.2697 17.9672L21.6077 18.7546V30.5546L16.9168 20.1386L11.6572 21.6906V42.5888L14.6426 41.7086V28.345L19.9021 40.1566L24.4517 38.815V18.8315L28.3921 37.6495L32.5146 36.4375L34.7888 22.2675L37.0615 35.0995L41.1835 33.8875L45.3339 12.987C49.0286 17.1719 51.064 22.5642 51.0561 28.1466C51.0573 30.0289 50.8277 31.9042 50.3724 33.7306L12.3906 44.8537C10.1086 42.711 8.29067 40.1229 7.04923 37.2494C5.8078 34.3758 5.16929 31.2781 5.17324 28.1479" fill="#D1050C"/>
</svg>
