<svg xmlns="http://www.w3.org/2000/svg" xmlns:xlink="http://www.w3.org/1999/xlink" width="80" height="80" viewBox="0 0 80 80">
  <defs>
    <clipPath id="clip-path">
      <rect id="Rechteck_1" data-name="Rechteck 1" width="80" height="80"/>
    </clipPath>
  </defs>
  <g id="nw-wortmarke-logo" clip-path="url(#clip-path)">
    <g id="NW-Logo_Short-Logo" clip-path="url(#clip-path)">
      <g id="Gruppe_1" data-name="Gruppe 1">
        <rect id="BG" width="80" height="80" rx="40" fill="#fff" opacity="0.5"/>
        <g id="Gruppe_1959" data-name="Gruppe 1959" transform="translate(2.602 2.649)">
          <g id="Symbols_Atoms_Logo_Logo-Icon" data-name="Symbols/Atoms/Logo/Logo-Icon" transform="translate(0 0)">
            <path id="path3389" d="M-80.739-66.235a37.58,37.58,0,0,1-32.107,18.022,37.433,37.433,0,0,1-22.623-7.563Zm-69.707-19.579a37.6,37.6,0,0,1,37.6-37.6,37.484,37.484,0,0,1,26.767,11.195l-3.484,1.025-3.5,20.36-3.26-18.375-7.453,2.19-3.262,20.292-3.5-18.306-8.618,2.534-4.363,1.29v19.34L-131.2-98.94l-8.62,2.544v34.251l4.893-1.443v-21.9l8.62,19.359,7.457-2.2v-32.754l6.458,30.842,6.757-1.986,3.727-23.224,3.725,21.033,6.756-1.986,6.8-34.255a37.461,37.461,0,0,1,9.379,24.846,37.737,37.737,0,0,1-1.121,9.152l-62.251,18.23a37.493,37.493,0,0,1-11.829-27.38" transform="translate(150.446 123.414)" fill="#d1050c" fill-rule="evenodd"/>
          </g>
        </g>
      </g>
    </g>
  </g>
</svg>
