<svg xmlns="http://www.w3.org/2000/svg" width="56" height="55.999" viewBox="0 0 56 55.999">
  <path id="spotify_icon" d="M28.253.277a28,28,0,1,0,28,28,28,28,0,0,0-28-28h0ZM41.093,40.66a1.744,1.744,0,0,1-2.4.578c-6.574-4.016-14.85-4.925-24.6-2.7a1.746,1.746,0,0,1-.777-3.4c10.666-2.438,19.815-1.388,27.2,3.123A1.745,1.745,0,0,1,41.093,40.66Zm3.427-7.625a2.182,2.182,0,0,1-3,.721c-7.526-4.627-19-5.967-27.9-3.265a2.183,2.183,0,1,1-1.269-4.177c10.169-3.085,22.81-1.591,31.453,3.72a2.182,2.182,0,0,1,.719,3Zm.294-7.939c-9.024-5.36-23.913-5.853-32.529-3.238a2.619,2.619,0,1,1-1.52-5.012c9.891-3,26.332-2.422,36.722,3.745a2.619,2.619,0,1,1-2.671,4.5Z" transform="translate(-0.253 -0.277)" fill="#1ed760"/>
</svg>
