<svg xmlns="http://www.w3.org/2000/svg" width="16.831" height="14" viewBox="0 0 16.831 14">
  <path id="twitter" d="M16.563,36.12a6.664,6.664,0,0,1-1.16.391,3.618,3.618,0,0,0,.955-1.521h0a.19.19,0,0,0-.278-.221h0a6.7,6.7,0,0,1-1.774.733.452.452,0,0,1-.111.014.47.47,0,0,1-.311-.119,3.628,3.628,0,0,0-2.4-.906,3.879,3.879,0,0,0-1.15.177A3.515,3.515,0,0,0,7.965,37.2a3.871,3.871,0,0,0-.086,1.336.13.13,0,0,1-.033.1.135.135,0,0,1-.1.045H7.733A9.514,9.514,0,0,1,1.194,35.19h0a.19.19,0,0,0-.311.024h0a3.633,3.633,0,0,0,.59,4.411,3.252,3.252,0,0,1-.828-.32h0a.19.19,0,0,0-.282.164h0a3.633,3.633,0,0,0,2.119,3.347H2.406a3.265,3.265,0,0,1-.611-.058h0A.19.19,0,0,0,1.578,43h0a3.637,3.637,0,0,0,2.873,2.474A6.7,6.7,0,0,1,.7,46.615H.281a.278.278,0,0,0-.272.21.287.287,0,0,0,.138.318,9.959,9.959,0,0,0,5,1.349,10.1,10.1,0,0,0,4.277-.907,9.444,9.444,0,0,0,3.129-2.345,10.28,10.28,0,0,0,1.916-3.209,10.137,10.137,0,0,0,.651-3.512v-.055a.617.617,0,0,1,.231-.481A7.172,7.172,0,0,0,16.8,36.4h0a.19.19,0,0,0-.235-.279Z" transform="translate(0 -34.491)" fill="#4a5568"/>
</svg>
