<svg xmlns="http://www.w3.org/2000/svg" width="19.005" height="22.004" viewBox="0 0 19.005 22.004">
  <path id="icon_zip" d="M2513.065,33657h-10.3a2.654,2.654,0,0,1-1.951-.863,3,3,0,0,1-.811-2.059v-16.168a2.974,2.974,0,0,1,.811-2.062,2.722,2.722,0,0,1,1.951-.852h13.481a2.721,2.721,0,0,1,1.951.852,3.045,3.045,0,0,1,.811,2.063v12.84a.536.536,0,0,1-.051.227.432.432,0,0,1-.093.16l-5.313,5.6A.587.587,0,0,1,2513.065,33657Zm-10.3-20.789a1.565,1.565,0,0,0-1.14.5,1.727,1.727,0,0,0-.473,1.2v16.168a1.74,1.74,0,0,0,.473,1.207,1.565,1.565,0,0,0,1.14.5h9.739v-2.738h-.008a2.958,2.958,0,0,1,.819-2.051,2.656,2.656,0,0,1,1.951-.855l2.593.008v-12.238a1.727,1.727,0,0,0-.473-1.2,1.582,1.582,0,0,0-1.14-.5Zm9.333,12.512H2511v-5.617h2.281a2.016,2.016,0,0,1,1.4.48,1.877,1.877,0,0,1,.017,2.6,1.989,1.989,0,0,1-1.419.492h-1.191v2.043Zm0-4.621v1.57h1.174a.863.863,0,0,0,.6-.219.729.729,0,0,0,.228-.566.683.683,0,0,0-.237-.59.908.908,0,0,0-.591-.2Zm-2.416,4.621H2508.6v-5.617h1.081v5.617Zm-2.086,0h-4.063v-1.023l2.711-3.539v-.016h-2.6v-1.039h3.953v1.012l-2.728,3.551v.016h2.728v1.039Z" transform="translate(-2499.998 -33634.996)" fill="#4a5568"/>
</svg>
