<svg width="67" height="32" viewBox="0 0 67 32" fill="none" xmlns="http://www.w3.org/2000/svg">
<g filter="url(#filter0_d_5816_10912)">
<rect x="4.40967" width="58.5035" height="24" rx="6" fill="#F2F5F9"/>
<path fill-rule="evenodd" clip-rule="evenodd" d="M21.6089 9.78216H18.7712C18.7712 9.28908 18.7192 8.9501 18.6048 8.78574C18.4385 8.53921 17.9708 8.40567 17.212 8.40567C16.474 8.40567 15.9854 8.47757 15.7463 8.62139C15.5073 8.7652 15.3825 9.08364 15.3825 9.56644C15.3825 10.0081 15.4865 10.2958 15.7048 10.4293C15.8607 10.532 16.0582 10.5834 16.3076 10.6039L16.8793 10.645C18.1059 10.7272 18.8751 10.7888 19.1765 10.8299C20.1432 10.9327 20.8501 11.21 21.2867 11.6517C21.6297 12.001 21.8376 12.453 21.8999 13.0077C21.9415 13.3466 21.9623 13.7267 21.9623 14.1479C21.9623 15.1238 21.8791 15.8325 21.7024 16.2845C21.3906 17.1166 20.6734 17.6302 19.5715 17.8562C19.1038 17.9486 18.397 18 17.451 18C15.8607 18 14.7588 17.8973 14.1352 17.6918C13.366 17.4453 12.867 16.942 12.6176 16.1818C12.4824 15.7606 12.4097 15.0621 12.4097 14.076H15.2474V14.3225C15.2474 14.8464 15.3929 15.1854 15.6736 15.3292C15.8711 15.4319 16.1101 15.4833 16.3804 15.4936H17.4199C17.95 15.4936 18.293 15.4627 18.4385 15.4011C18.6984 15.2881 18.8751 15.1135 18.9479 14.8772C18.9894 14.7231 19.0102 14.5382 19.0102 14.302C19.0102 13.7678 18.8231 13.4494 18.4697 13.3364C18.3346 13.2953 17.7005 13.2234 16.5779 13.1412C15.6736 13.0693 15.0395 13.0077 14.6861 12.946C13.761 12.7611 13.1373 12.3811 12.8358 11.8058C12.5656 11.3127 12.4305 10.5731 12.4305 9.57671C12.4305 8.81656 12.5032 8.21049 12.6487 7.75851C12.7943 7.30653 13.0333 6.95727 13.3556 6.72101C13.8337 6.36148 14.447 6.14576 15.185 6.08412C15.8711 6.02249 16.5571 5.99167 17.2432 6.00195C18.4281 6.00195 19.2805 6.07385 19.7898 6.21766C21.0268 6.56692 21.6401 7.56334 21.6401 9.18636C21.6297 9.3199 21.6193 9.51507 21.6089 9.78216ZM37.7829 11.9907H39.7267C40.3399 11.9702 40.7245 11.9188 40.8597 11.8469C41.0468 11.7442 41.1715 11.5387 41.2339 11.2306C41.2755 11.0251 41.2963 10.7169 41.2963 10.3163C41.2963 9.82325 41.2547 9.45344 41.1819 9.20691C41.0676 8.86792 40.7973 8.66247 40.3711 8.59057C40.288 8.5803 40.0801 8.57002 39.7682 8.57002H37.7933L37.7829 11.9907ZM34.6541 17.7432V6.00195H40.4751C41.2755 6.00195 41.8783 6.06358 42.3045 6.19712C43.2608 6.50529 43.9053 7.12163 44.2379 8.05641C44.4042 8.54948 44.4874 9.28908 44.4874 10.2855C44.4874 11.4771 44.3938 12.3297 44.2067 12.8536C43.8325 13.8808 43.0633 14.4766 41.8991 14.6307C41.764 14.6512 41.1819 14.6718 40.1528 14.6923L39.6331 14.7129H37.7725V17.7432H34.6541ZM50.5267 13.4288L49.061 8.33376L47.637 13.4288H50.5267ZM51.1503 15.7195H46.9717L46.4104 17.7535H43.1777L46.6703 6.01222H51.379L54.9132 17.7535H51.7532L51.1503 15.7195ZM30.1429 7.56334C31.463 7.56334 32.6376 8.1694 33.4171 9.12473L34.1032 7.64552C32.9806 6.58747 31.4941 5.99167 29.935 6.00195C27.4195 6.00195 25.2574 7.52225 24.3738 9.67943H23.0329L22.243 11.3846H23.9685C23.9581 11.5387 23.9477 11.7031 23.9477 11.8572C23.9477 12.0523 23.9581 12.2475 23.9789 12.4324H23.1057L22.3157 14.1376H24.4258C25.3405 16.2332 27.461 17.7124 29.9454 17.7124C31.1927 17.7124 32.3569 17.3426 33.3132 16.6954V14.6101C32.544 15.4936 31.411 16.0483 30.1429 16.0483C28.6668 16.0483 27.3675 15.2881 26.6191 14.1376H31.0264L31.8164 12.4324H25.9642C25.9122 12.0832 25.9019 11.7236 25.9434 11.3744H32.3049L33.0949 9.66916H26.484C27.222 8.41594 28.5837 7.56334 30.1429 7.56334Z" fill="#4C4C4C"/>
<path fill-rule="evenodd" clip-rule="evenodd" d="M30.1428 7.56347C31.4629 7.56347 32.6375 8.16954 33.4171 9.12486L34.1032 7.64565C32.9805 6.58761 31.4941 5.99181 29.9349 6.00208C27.4194 6.00208 25.2574 7.52238 24.3738 9.67957H23.0329L22.2429 11.3848H23.9684C23.958 11.5389 23.9476 11.7032 23.9476 11.8573C23.9476 12.0525 23.958 12.2476 23.9788 12.4325H23.1057L22.3157 14.1378H24.4258C25.3405 16.2333 27.461 17.7125 29.9453 17.7125C31.1927 17.7125 32.3569 17.3427 33.3132 16.6956V14.6103C32.544 15.4937 31.411 16.0484 30.1428 16.0484C28.6668 16.0484 27.3675 15.2882 26.619 14.1378H31.0264L31.8163 12.4325H25.9642C25.9122 12.0833 25.9018 11.7238 25.9434 11.3745H32.3049L33.0949 9.6693H26.4839C27.2219 8.41608 28.5836 7.56347 30.1428 7.56347Z" fill="#737373"/>
</g>
<defs>
<filter id="filter0_d_5816_10912" x="0.409668" y="0" width="66.5034" height="32" filterUnits="userSpaceOnUse" color-interpolation-filters="sRGB">
<feFlood flood-opacity="0" result="BackgroundImageFix"/>
<feColorMatrix in="SourceAlpha" type="matrix" values="0 0 0 0 0 0 0 0 0 0 0 0 0 0 0 0 0 0 127 0" result="hardAlpha"/>
<feOffset dy="4"/>
<feGaussianBlur stdDeviation="2"/>
<feComposite in2="hardAlpha" operator="out"/>
<feColorMatrix type="matrix" values="0 0 0 0 0 0 0 0 0 0 0 0 0 0 0 0 0 0 0.25 0"/>
<feBlend mode="normal" in2="BackgroundImageFix" result="effect1_dropShadow_5816_10912"/>
<feBlend mode="normal" in="SourceGraphic" in2="effect1_dropShadow_5816_10912" result="shape"/>
</filter>
</defs>
</svg>
