<svg width="60" height="32" viewBox="0 0 60 32" fill="none" xmlns="http://www.w3.org/2000/svg">
<g filter="url(#filter0_d_5899_59670)">
<path d="M52.1845 0.00122299H8.64952C6.5879 0.00122299 4.91699 1.67213 4.91699 3.73336V20.2659C4.91699 22.3271 6.5879 23.998 8.64952 23.998H52.1845C54.2461 23.998 55.917 22.3271 55.917 20.2659V3.73336C55.917 1.67213 54.2461 0.00122299 52.1845 0.00122299Z" fill="#F2F5F9"/>
<path d="M20.8356 9.41267V9.41256C20.2783 8.86642 19.5224 8.53532 18.6293 8.53532C17.0813 8.53532 15.7648 9.52984 15.2843 10.915L13.417 9.46105C14.3748 7.58248 16.3287 6.29603 18.581 6.29603C20.0731 6.29603 21.4346 6.86027 22.4615 7.7871L20.8356 9.41267Z" fill="#4C4C4C"/>
<path d="M15.0902 12.0738C15.0902 12.4685 15.1544 12.8481 15.2734 13.2024L13.4042 14.6855C13.0093 13.9067 12.7871 13.025 12.7871 12.0889C12.7871 11.1427 13.0146 10.2495 13.4168 9.46076L15.2839 10.9148C15.1586 11.2779 15.0902 11.6679 15.0902 12.0738Z" fill="#262626"/>
<path d="M22.3834 16.444C21.391 17.3495 20.0509 17.8525 18.5814 17.8525C16.318 17.8525 14.3573 16.5697 13.4043 14.6861L15.274 13.2031C15.7456 14.604 17.0692 15.6131 18.6286 15.6131C19.4083 15.5959 20.0783 15.4128 20.6047 15.0507L22.3834 16.444Z" fill="#4C4C4C"/>
<path d="M22.3828 16.4443L20.6041 15.0508C21.1874 14.6497 21.5933 14.0289 21.7729 13.17H18.5703V11.0152H23.993C24.39 13.368 23.688 15.2541 22.3828 16.4443Z" fill="#262626"/>
<path d="M28.6187 12.081H30.8813C31.5548 12.081 32.0704 11.9223 32.4282 11.6049C32.7872 11.2875 32.9661 10.8287 32.9661 10.2288C32.9661 9.65956 32.7872 9.20424 32.4282 8.8627C32.0704 8.52116 31.5782 8.34378 30.9538 8.33068H28.6187V12.081ZM28.6187 13.1104V16.8477H27.3606V7.30125H30.8813C31.9266 7.30125 32.7451 7.56797 33.3367 8.10116C33.9296 8.63458 34.2254 9.34035 34.2254 10.2189C34.2254 11.1457 33.9354 11.8592 33.3566 12.3596C32.7778 12.8602 31.9476 13.1104 30.8684 13.1104H28.6187Z" fill="#4C4C4C"/>
<path d="M37.9363 15.9228C38.3169 15.9228 38.677 15.8245 39.0188 15.6278C39.3594 15.4311 39.6055 15.1754 39.7594 14.8607V13.4051H38.8079C37.3229 13.4051 36.5786 13.8402 36.5786 14.7099C36.5786 15.0902 36.7059 15.3875 36.9593 15.6016C37.2126 15.8158 37.5387 15.9228 37.9363 15.9228ZM39.9498 16.8474C39.8794 16.7075 39.8225 16.4584 39.7788 16.0999C39.2152 16.6857 38.5412 16.9785 37.7593 16.9785C37.0599 16.9785 36.4865 16.7807 36.038 16.3851C35.5907 15.9895 35.3665 15.488 35.3665 14.8803C35.3665 14.1417 35.6465 13.568 36.2089 13.1593C36.7702 12.7506 37.5605 12.5463 38.5788 12.5463H39.7594V11.9889C39.7594 11.565 39.6322 11.2274 39.3788 10.9759C39.1255 10.7246 38.7521 10.5989 38.2575 10.5989C37.8248 10.5989 37.4623 10.7082 37.169 10.9268C36.8756 11.1453 36.7302 11.4098 36.7302 11.72H35.5107C35.5107 11.3661 35.6356 11.0241 35.8877 10.6939C36.1386 10.3639 36.4793 10.1028 36.9108 9.91046C37.3411 9.71821 37.8139 9.62196 38.3303 9.62196C39.1473 9.62196 39.7873 9.82634 40.2504 10.235C40.7134 10.6437 40.9547 11.2065 40.9716 11.9234V15.1886C40.9716 15.8399 41.0553 16.3579 41.2213 16.7424V16.8474H39.9498Z" fill="#4C4C4C"/>
<path d="M45.0962 15.0708L46.7491 9.75347H48.047L45.1953 17.9426C44.7539 19.1229 44.0516 19.7129 43.091 19.7129L42.8602 19.6933L42.4088 19.6081V18.6246L42.7361 18.6508C43.1474 18.6508 43.4672 18.5677 43.6967 18.4016C43.9262 18.2355 44.1155 17.9317 44.2635 17.4903L44.5331 16.769L42.0024 9.75347H43.3267L45.0962 15.0708Z" fill="#4C4C4C"/>
</g>
<defs>
<filter id="filter0_d_5899_59670" x="0.916992" y="0.000976562" width="59" height="31.9971" filterUnits="userSpaceOnUse" color-interpolation-filters="sRGB">
<feFlood flood-opacity="0" result="BackgroundImageFix"/>
<feColorMatrix in="SourceAlpha" type="matrix" values="0 0 0 0 0 0 0 0 0 0 0 0 0 0 0 0 0 0 127 0" result="hardAlpha"/>
<feOffset dy="4"/>
<feGaussianBlur stdDeviation="2"/>
<feComposite in2="hardAlpha" operator="out"/>
<feColorMatrix type="matrix" values="0 0 0 0 0 0 0 0 0 0 0 0 0 0 0 0 0 0 0.25 0"/>
<feBlend mode="normal" in2="BackgroundImageFix" result="effect1_dropShadow_5899_59670"/>
<feBlend mode="normal" in="SourceGraphic" in2="effect1_dropShadow_5899_59670" result="shape"/>
</filter>
</defs>
</svg>
