<svg width="60" height="32" viewBox="0 0 60 32" fill="none" xmlns="http://www.w3.org/2000/svg">
<g filter="url(#filter0_d_5899_59658)">
<path d="M52.1835 8.22833e-08H8.64292C6.58101 8.22833e-08 4.90967 1.67118 4.90967 3.73258V20.2674C4.90967 22.3288 6.58101 24 8.64292 24H52.1835C54.2454 24 55.9167 22.3288 55.9167 20.2674V3.73258C55.9167 1.67118 54.2454 8.22833e-08 52.1835 8.22833e-08Z" fill="#F2F5F9"/>
</g>
<path d="M23.0162 14.4641C22.2384 14.3425 21.6351 13.4412 21.6351 12.347C21.6351 11.3889 22.097 10.5786 22.7349 10.3099C22.7936 10.2877 22.8387 10.2743 22.8763 10.2636C22.4069 9.57334 21.5945 8.99322 20.5956 8.99322C19.7651 8.99322 19.4958 9.52113 18.5871 9.55227C17.6799 9.52113 17.4106 8.99322 16.5801 8.99322C12.5496 8.99322 12.9528 16.1896 16.7441 17.8219C17.2737 18.0029 17.5776 17.3489 18.5871 17.316C19.5981 17.3489 19.902 18.0029 20.4316 17.8219C21.7525 17.2531 22.6627 16.008 23.117 14.6269C23.1366 14.5679 23.1516 14.5145 23.1547 14.4763C23.1547 14.4763 23.1185 14.4758 23.0162 14.4641Z" fill="#4C4C4C"/>
<path d="M18.5468 8.84228C18.8044 8.81219 19.6503 8.67088 20.1551 8.077C20.657 7.48313 20.6584 6.62552 20.645 6.36551C20.6435 6.32262 20.6063 6.29061 20.5631 6.29553C20.304 6.32561 19.4582 6.46677 18.9548 7.0608C18.4515 7.65467 18.4515 8.51228 18.4634 8.77214C18.4664 8.81517 18.5036 8.84719 18.5468 8.84228Z" fill="#4C4C4C"/>
<path d="M27.6711 12.0804H29.9333C30.6069 12.0804 31.1223 11.9217 31.4811 11.6042C31.8398 11.2868 32.0184 10.8279 32.0184 10.2279C32.0184 9.65864 31.8398 9.20323 31.4811 8.86156C31.1223 8.52005 30.6304 8.34256 30.0053 8.32955H27.6711V12.0804ZM27.6711 13.11V16.8477H26.4116V7.3H29.9333C30.9782 7.3 31.7975 7.56663 32.3897 8.10005C32.9818 8.63331 33.2779 9.33937 33.2779 10.2181C33.2779 11.145 32.9881 11.8586 32.4085 12.3591C31.8304 12.8598 31.0001 13.11 29.9208 13.11H27.6711Z" fill="#4C4C4C"/>
<path d="M36.9898 15.9228C37.3697 15.9228 37.7302 15.8243 38.0714 15.6277C38.4126 15.431 38.6605 15.1752 38.8134 14.8604V13.4048H37.8622C36.375 13.4048 35.6314 13.8398 35.6314 14.7096C35.6314 15.0899 35.7585 15.3874 36.0128 15.6014C36.2655 15.8158 36.5923 15.9228 36.9898 15.9228ZM39.0033 16.8473C38.9325 16.7075 38.8762 16.4583 38.8327 16.0999C38.2678 16.6857 37.595 16.9785 36.8128 16.9785C36.1126 16.9785 35.5397 16.7809 35.0906 16.3851C34.6432 15.9895 34.4194 15.4878 34.4194 14.88C34.4194 14.1414 34.6995 13.5677 35.2612 13.1588C35.8229 12.75 36.6132 12.5456 37.632 12.5456H38.8134V11.9883C38.8134 11.5643 38.6862 11.2266 38.4319 10.9752C38.1792 10.7238 37.8058 10.5981 37.3117 10.5981C36.8788 10.5981 36.515 10.7074 36.2221 10.926C35.9291 11.1447 35.7827 11.4092 35.7827 11.7195H34.5627C34.5627 11.3654 34.6882 11.0234 34.9409 10.6932C35.192 10.3631 35.5332 10.1021 35.9629 9.90957C36.3943 9.71724 36.8675 9.621 37.3825 9.621C38.2002 9.621 38.8407 9.8254 39.3043 10.2342C39.7678 10.643 40.0076 11.2059 40.0253 11.9227V15.1884C40.0253 15.8398 40.109 16.3579 40.2748 16.7426V16.8473H39.0033Z" fill="#4C4C4C"/>
<path d="M44.1501 15.0702L45.8031 9.75208H47.1011L44.2475 17.9423C43.8066 19.1227 43.1048 19.7129 42.1437 19.7129L41.9141 19.6931L41.4617 19.6079V18.6243L41.7886 18.6506C42.1998 18.6506 42.5202 18.5675 42.7497 18.4014C42.9793 18.2351 43.1692 17.9314 43.3178 17.4898L43.5853 16.7685L41.0554 9.75208H42.3798L44.1501 15.0702Z" fill="#4C4C4C"/>
<defs>
<filter id="filter0_d_5899_59658" x="0.909668" y="0" width="59.0071" height="32" filterUnits="userSpaceOnUse" color-interpolation-filters="sRGB">
<feFlood flood-opacity="0" result="BackgroundImageFix"/>
<feColorMatrix in="SourceAlpha" type="matrix" values="0 0 0 0 0 0 0 0 0 0 0 0 0 0 0 0 0 0 127 0" result="hardAlpha"/>
<feOffset dy="4"/>
<feGaussianBlur stdDeviation="2"/>
<feComposite in2="hardAlpha" operator="out"/>
<feColorMatrix type="matrix" values="0 0 0 0 0 0 0 0 0 0 0 0 0 0 0 0 0 0 0.25 0"/>
<feBlend mode="normal" in2="BackgroundImageFix" result="effect1_dropShadow_5899_59658"/>
<feBlend mode="normal" in="SourceGraphic" in2="effect1_dropShadow_5899_59658" result="shape"/>
</filter>
</defs>
</svg>
