<svg width="87" height="32" viewBox="0 0 87 32" fill="none" xmlns="http://www.w3.org/2000/svg">
<g filter="url(#filter0_d_5816_10901)">
<rect x="4.08667" width="78.3231" height="24" rx="6" fill="#F2F5F9"/>
<mask id="mask0_5816_10901" style="mask-type:luminance" maskUnits="userSpaceOnUse" x="12" y="6" width="38" height="12">
<path d="M31.3052 9.83634C31.284 11.5079 32.7949 12.4408 33.9331 12.9953C35.1025 13.5644 35.4953 13.9293 35.4908 14.4382C35.4819 15.217 34.5579 15.5607 33.6931 15.5741C32.1845 15.5975 31.3074 15.1668 30.61 14.841L30.0666 17.384C30.7662 17.7065 32.0618 17.9877 33.4053 18C36.5587 18 38.6219 16.4434 38.6331 14.0298C38.6453 10.9667 34.3961 10.7971 34.4252 9.42793C34.4352 9.01283 34.8313 8.56984 35.6995 8.45713C36.1291 8.40022 37.3152 8.3567 38.6599 8.97601L39.1877 6.51553C38.4646 6.25219 37.5351 6 36.3779 6C33.4097 6 31.3219 7.57783 31.3052 9.83634ZM44.2593 6.21201C43.6835 6.21201 43.1981 6.54789 42.9816 7.06342L38.4769 17.8192H41.6281L42.2552 16.0863H46.106L46.4698 17.8192H49.2472L46.8235 6.21201H44.2593ZM44.7 9.34759L45.6095 13.7062H43.1188L44.7 9.34759ZM27.4845 6.21201L25.0006 17.8192H28.0034L30.4862 6.21201H27.4845ZM23.0422 6.21201L19.9167 14.1123L18.6524 7.39483C18.504 6.64497 17.9182 6.21201 17.2676 6.21201H12.1581L12.0867 6.549C13.1356 6.77664 14.3273 7.14376 15.0493 7.53655C15.4912 7.77646 15.6173 7.98624 15.7623 8.55644L18.157 17.8192H21.3305L26.1957 6.21201H23.0422Z" fill="white"/>
</mask>
<g mask="url(#mask0_5816_10901)">
<path d="M8.19507 7.43357L44.8092 -6.05053L53.1387 16.5677L16.525 30.0518" fill="#4C4C4C"/>
</g>
<g clip-path="url(#clip0_5816_10901)">
<path d="M62.8438 7.80664H67.9776V16.1917H62.8438V7.80664Z" fill="#262626"/>
<path d="M63.3727 12.0005C63.3721 11.1931 63.5551 10.3961 63.908 9.6699C64.2608 8.94368 64.7742 8.30723 65.4094 7.80873C64.6227 7.19051 63.678 6.80608 62.6832 6.69937C61.6884 6.59265 60.6837 6.76797 59.7838 7.20527C58.884 7.64258 58.1253 8.32423 57.5945 9.17232C57.0637 10.0204 56.7822 11.0007 56.7822 12.0012C56.7822 13.0017 57.0637 13.982 57.5945 14.8301C58.1253 15.6782 58.884 16.3599 59.7838 16.7972C60.6837 17.2345 61.6884 17.4098 62.6832 17.3031C63.678 17.1964 64.6227 16.8119 65.4094 16.1937C64.774 15.6951 64.2605 15.0584 63.9077 14.3319C63.5548 13.6054 63.3719 12.8081 63.3727 12.0005V12.0005Z" fill="#737373"/>
<path d="M73.5277 15.305V15.1332H73.6018V15.0977H73.4255V15.1332H73.4952V15.305L73.5277 15.305ZM73.8699 15.305V15.0977H73.8166L73.7544 15.2458L73.6921 15.0977H73.6388V15.305H73.6773V15.148L73.7351 15.2828H73.7751L73.8329 15.148V15.305H73.8699Z" fill="#4C4C4C"/>
<path d="M74.0371 12.0007C74.0371 13.0012 73.7556 13.9816 73.2247 14.8297C72.6938 15.6779 71.935 16.3595 71.035 16.7967C70.135 17.234 69.1302 17.4092 68.1353 17.3023C67.1405 17.1954 66.1958 16.8108 65.4092 16.1924C66.0441 15.6935 66.5573 15.0568 66.9103 14.3306C67.2632 13.6043 67.4466 12.8074 67.4466 11.9999C67.4466 11.1924 67.2632 10.3955 66.9103 9.66923C66.5573 8.94297 66.0441 8.30635 65.4092 7.8074C66.1958 7.18899 67.1405 6.80436 68.1353 6.6975C69.1302 6.59063 70.135 6.76583 71.035 7.20308C71.935 7.64032 72.6938 8.32197 73.2247 9.17009C73.7556 10.0182 74.0371 10.9986 74.0371 11.9992V12.0007Z" fill="#4C4C4C"/>
</g>
</g>
<defs>
<filter id="filter0_d_5816_10901" x="0.0866699" y="0" width="86.323" height="32" filterUnits="userSpaceOnUse" color-interpolation-filters="sRGB">
<feFlood flood-opacity="0" result="BackgroundImageFix"/>
<feColorMatrix in="SourceAlpha" type="matrix" values="0 0 0 0 0 0 0 0 0 0 0 0 0 0 0 0 0 0 127 0" result="hardAlpha"/>
<feOffset dy="4"/>
<feGaussianBlur stdDeviation="2"/>
<feComposite in2="hardAlpha" operator="out"/>
<feColorMatrix type="matrix" values="0 0 0 0 0 0 0 0 0 0 0 0 0 0 0 0 0 0 0.25 0"/>
<feBlend mode="normal" in2="BackgroundImageFix" result="effect1_dropShadow_5816_10901"/>
<feBlend mode="normal" in="SourceGraphic" in2="effect1_dropShadow_5816_10901" result="shape"/>
</filter>
<clipPath id="clip0_5816_10901">
<rect width="18" height="12" fill="white" transform="translate(56.4097 6)"/>
</clipPath>
</defs>
</svg>
