<svg xmlns="http://www.w3.org/2000/svg" width="43" height="43" viewBox="0 0 43 43">
  <g id="icons_outline_icon-bell" data-name="icons/outline/icon-bell" transform="translate(1.5 1.5)">
    <g id="Group" transform="translate(0 0)">
      <path id="Shape" d="M20,40c-4.135,0-7.5-2.99-7.5-6.666V31.111H0l3.513-3.122A4.25,4.25,0,0,0,5,24.8V17.778A12.27,12.27,0,0,1,7.815,10,14.921,14.921,0,0,1,15,5.2V4.444A4.752,4.752,0,0,1,20,0a4.752,4.752,0,0,1,5,4.444V5.2A14.921,14.921,0,0,1,32.184,10,12.271,12.271,0,0,1,35,17.778V24.8a4.25,4.25,0,0,0,1.488,3.192L40,31.109l0,0H27.5v2.222C27.5,37.009,24.135,40,20,40Z" fill="none" stroke="#d20a11" stroke-linecap="round" stroke-linejoin="round" stroke-miterlimit="10" stroke-width="3"/>
      <path id="Path" d="M15,.5H0" transform="translate(12.5 30.611)" fill="none" stroke="#d20a11" stroke-linecap="round" stroke-linejoin="round" stroke-miterlimit="10" stroke-width="3"/>
    </g>
  </g>
</svg>
