<svg xmlns="http://www.w3.org/2000/svg" width="184.748" height="57.599" viewBox="0 0 184.748 57.599">
  <path id="spakasse_logo-pd-hx" d="M271.721,49.55a3.142,3.142,0,0,0,.634.939,2.85,2.85,0,0,0,.939.634,3,3,0,0,0,2.3,0,2.974,2.974,0,0,0,1.572-1.572,2.984,2.984,0,0,0,0-2.29,2.974,2.974,0,0,0-1.572-1.572,2.868,2.868,0,0,0-1.145-.228,2.941,2.941,0,0,0-1.152.228,2.865,2.865,0,0,0-.939.634,3.142,3.142,0,0,0-.634.939,2.886,2.886,0,0,0,0,2.29Zm-5.9,17.12a2.974,2.974,0,0,0,1.572,1.572,2.868,2.868,0,0,0,1.145.228h11.825a2.941,2.941,0,0,0,1.152-.228,2.865,2.865,0,0,0,.939-.634,3,3,0,0,0,.625-.939,2.868,2.868,0,0,0,.228-1.145v-6.5h-13.6v-1.77h13.6V56.079a2.892,2.892,0,0,0-.228-1.145,3.042,3.042,0,0,0-.625-.939,2.886,2.886,0,0,0-.939-.634,2.916,2.916,0,0,0-1.152-.228H268.54a2.892,2.892,0,0,0-1.145.228,2.974,2.974,0,0,0-1.572,1.572,2.868,2.868,0,0,0-.228,1.145v6.5h13.566v1.77H265.595v1.175A2.892,2.892,0,0,0,265.823,66.671ZM187.8,92.324h3.224c2.586,0,3.536,1.334,3.536,3.017,0,1.564-.941,3.3-3.706,3.3h-1.564v4.232H187.8V92.322Zm2.905,5.085c1.564,0,2.26-.779,2.26-1.994,0-1.535-1.015-1.845-2.26-1.845h-1.416v3.84Zm4.966,3.291a2.292,2.292,0,0,1,1.579-2.32,8.239,8.239,0,0,1,2.98-.363V97.6c0-1.134-.645-1.439-1.794-1.439a6.2,6.2,0,0,0-2.157.422v-1.2a7.624,7.624,0,0,1,2.446-.348c2.046,0,2.958.772,2.958,2.55v5.285h-1.394l-.029-.652a3.435,3.435,0,0,1-2.216.8,2.135,2.135,0,0,1-2.372-2.32Zm4.558.475V99.091h-.549c-1.712,0-2.535.393-2.535,1.549a1.157,1.157,0,0,0,1.3,1.245,2.514,2.514,0,0,0,1.778-.712Zm3.55-2.083c0-2.586,1.408-4.054,3.217-4.054a2.66,2.66,0,0,1,2,.734V91.717h1.475v11.155h-1.408l-.038-.986a2.366,2.366,0,0,1-2.216,1.134C205.054,103.02,203.778,101.848,203.778,99.091Zm5.218.29V97.009a2.223,2.223,0,0,0-1.668-.727c-1.156,0-1.957,1.008-1.957,2.809s.593,2.72,1.772,2.72c1.334,0,1.854-1.178,1.854-2.432Zm3.617-.334c0-2.4,1.2-4.04,3.4-4.04,2.046,0,3.09,1.274,3.09,3.581,0,.341-.007.638-.029.9h-4.9c.118,1.549.845,2.4,2.32,2.4a6.848,6.848,0,0,0,1.838-.245l.29,1.127a7.678,7.678,0,0,1-2.343.29c-2.336,0-3.67-1.557-3.67-4.01Zm4.944-.623v-.348c0-1.267-.489-1.986-1.579-1.986-1.149,0-1.742.859-1.831,2.334h3.409Zm3.6-3.232h1.408l.029,1.453a2.411,2.411,0,0,1,2.171-1.5,2.867,2.867,0,0,1,.578.045v1.394a2.365,2.365,0,0,0-.526-.045,2.154,2.154,0,0,0-2.187,2.171v4.159h-1.475V95.191Zm7.071,7.028-.029.652h-1.408V91.715h1.475v4.4a2.615,2.615,0,0,1,2.171-1.082c1.964,0,3.076,1.356,3.076,3.891s-1.216,4.092-3.246,4.092A2.667,2.667,0,0,1,228.231,102.219Zm3.706-3.276c0-1.823-.667-2.661-1.809-2.661s-1.861.948-1.861,2.706v1.941a1.982,1.982,0,0,0,1.7.9C231.6,101.826,231.937,100.2,231.937,98.943Zm3.373.089c0-2.372,1.194-4.025,3.476-4.025s3.491,1.653,3.491,4.025-1.267,4.025-3.491,4.025S235.31,101.315,235.31,99.032Zm5.388,0c0-1.941-.763-2.854-1.912-2.854-1.4,0-1.9,1.274-1.9,2.854s.5,2.854,1.9,2.854C240.41,101.886,240.7,100.174,240.7,99.032Zm3.706-3.84h1.408l.029,1.453a2.411,2.411,0,0,1,2.171-1.5,2.868,2.868,0,0,1,.578.045v1.394a2.365,2.365,0,0,0-.526-.045,2.154,2.154,0,0,0-2.187,2.171v4.159H244.4V95.193Zm5.633,0h1.408l.029,1.075a2.738,2.738,0,0,1,2.416-1.231,2.3,2.3,0,0,1,2.49,2.505v5.33h-1.475V97.966c0-1.156-.482-1.667-1.468-1.667a2.04,2.04,0,0,0-1.927,2.113v4.462h-1.475V95.194Zm8.4,2.653h3.751v1.475h-3.751Zm6-5.522h3.113c3,0,4.8,1.772,4.8,5.277s-1.8,5.27-4.8,5.27H264.44V92.322Zm3.128,9.288c1.986,0,3.143-1.341,3.143-4.01s-1.156-4.018-3.143-4.018h-1.609v8.027Zm6.633-2.565c0-2.4,1.2-4.04,3.4-4.04,2.046,0,3.09,1.274,3.09,3.581,0,.341-.007.638-.029.9h-4.9c.118,1.549.845,2.4,2.32,2.4a6.848,6.848,0,0,0,1.838-.245l.29,1.127a7.678,7.678,0,0,1-2.343.29C275.535,103.056,274.2,101.5,274.2,99.046Zm4.944-.623v-.348c0-1.267-.489-1.986-1.579-1.986-1.149,0-1.742.859-1.831,2.334h3.409Zm3.862,2.32v-4.4h-1.2V95.191h1.2v-1.72a13.056,13.056,0,0,0,1.468-.652v2.372h1.994V96.34h-1.994v4.239c0,.89.3,1.26,1.1,1.26a3.527,3.527,0,0,0,1-.141l.259,1.1a6.062,6.062,0,0,1-1.668.223C283.63,103.02,283.007,102.167,283.007,100.744Zm5.189-5.551H289.6l.029,1.015a2.488,2.488,0,0,1,2.224-1.171,2.045,2.045,0,0,1,2.106,1.274,2.75,2.75,0,0,1,2.4-1.274,2.159,2.159,0,0,1,2.334,2.432v5.4h-1.475V97.89c0-1.1-.37-1.593-1.29-1.593a1.9,1.9,0,0,0-1.756,2.068v4.507H292.7V97.89c0-1.1-.37-1.593-1.29-1.593a1.887,1.887,0,0,0-1.742,2.068v4.507H288.2Zm12.6,3.84c0-2.372,1.194-4.025,3.476-4.025s3.491,1.653,3.491,4.025-1.267,4.025-3.491,4.025S300.8,101.315,300.8,99.032Zm5.388,0c0-1.941-.763-2.854-1.912-2.854-1.4,0-1.9,1.274-1.9,2.854s.5,2.854,1.9,2.854C305.9,101.886,306.186,100.174,306.186,99.032ZM310,92.792c-.148-.022-.482-.067-1-.118v-.957h2.476v11.155H310V92.792Zm3.617,6.3c0-2.586,1.408-4.054,3.217-4.054a2.66,2.66,0,0,1,2,.734V91.718h1.475v11.155H318.9l-.038-.986a2.366,2.366,0,0,1-2.216,1.134c-1.756,0-3.032-1.171-3.032-3.929Zm5.218.29V97.01a2.222,2.222,0,0,0-1.667-.727c-1.156,0-1.957,1.008-1.957,2.809s.593,2.72,1.771,2.72c1.334,0,1.852-1.178,1.852-2.432Zm3.572-1.535h3.751v1.475H322.4Zm6-5.522h1.519V96.41h4.529V92.325h1.526v10.548h-1.526V97.684h-4.529v5.189h-1.519Zm9.873,6.709c0-2.372,1.194-4.025,3.476-4.025s3.491,1.653,3.491,4.025-1.267,4.025-3.491,4.025S338.28,101.316,338.28,99.034Zm1.089-5.663a.853.853,0,0,1,.9-.868.877.877,0,0,1,.912.868.868.868,0,0,1-.875.852h-.038A.864.864,0,0,1,339.369,93.371Zm4.3,5.663c0-1.941-.763-2.854-1.912-2.854-1.4,0-1.9,1.274-1.9,2.854s.5,2.854,1.9,2.854C343.38,101.887,343.669,100.176,343.669,99.034Zm-1.3-5.663a.878.878,0,0,1,.845-.868.888.888,0,0,1,.957.868.878.878,0,0,1-.912.852A.862.862,0,0,1,342.364,93.371Zm6.709,5.663c-.319-.46-.674-.979-1.06-1.564s-.66-1.022-.83-1.327-.334-.623-.5-.948h1.5a28.827,28.827,0,0,0,1.72,2.728,31.558,31.558,0,0,0,1.712-2.728h1.46a38.989,38.989,0,0,1-2.4,3.824l2.735,3.855h-1.682l-1.838-2.706-1.9,2.706h-1.638l2.728-3.84Zm6.048,1.712v-4.4h-1.2V95.193h1.2v-1.72a13.048,13.048,0,0,0,1.468-.652v2.372h1.994v1.149h-1.994v4.239c0,.89.3,1.26,1.1,1.26a3.509,3.509,0,0,0,1-.141l.259,1.1a6.059,6.059,0,0,1-1.667.223c-1.535,0-2.157-.852-2.157-2.276Zm4.692-1.7c0-2.4,1.2-4.04,3.4-4.04,2.046,0,3.09,1.274,3.09,3.581,0,.341-.007.638-.029.9h-4.9c.118,1.549.845,2.4,2.32,2.4a6.848,6.848,0,0,0,1.838-.245l.29,1.127a7.678,7.678,0,0,1-2.343.29c-2.336,0-3.67-1.557-3.67-4.01Zm4.944-.623v-.348c0-1.267-.489-1.986-1.579-1.986-1.149,0-1.742.859-1.831,2.334h3.409Zm3.6-3.232h1.408l.029,1.453a2.411,2.411,0,0,1,2.171-1.5,2.87,2.87,0,0,1,.578.045v1.394a2.364,2.364,0,0,0-.526-.045,2.154,2.154,0,0,0-2.187,2.171v4.159h-1.475V95.193ZM240.266,84.682l.43-1.223a7.583,7.583,0,0,0,2.742.6c1.979,0,2.327-.941,2.327-1.742,0-.845-.652-1.319-1.394-1.609a14.339,14.339,0,0,1-2.684-1.171,2.444,2.444,0,0,1-1.134-2.187c0-1.845,1.439-2.914,3.735-2.914a9.146,9.146,0,0,1,2.49.393v1.341a7.9,7.9,0,0,0-2.624-.475c-1.327,0-2.1.563-2.1,1.579s.986,1.356,2.387,1.854c1.542.571,2.943,1.149,2.943,3.173s-1.4,3.054-3.766,3.054a7.98,7.98,0,0,1-3.358-.674Zm9.05-7.19h1.408l.029,1.12a2.488,2.488,0,0,1,2.2-1.274c2.394,0,3.083,1.972,3.083,3.891,0,2.595-1.164,4.092-3.306,4.092a2.9,2.9,0,0,1-1.941-.616V88.24h-1.475V77.493Zm5.145,3.766c0-1.854-.7-2.675-1.809-2.675-1.194,0-1.861,1.187-1.861,2.854v1.972a2.229,2.229,0,0,0,1.638.719c1.72,0,2.031-1.526,2.031-2.869ZM257.649,83a2.292,2.292,0,0,1,1.579-2.32,8.239,8.239,0,0,1,2.98-.363V79.9c0-1.134-.645-1.439-1.794-1.439a6.205,6.205,0,0,0-2.157.422v-1.2a7.624,7.624,0,0,1,2.446-.348c2.046,0,2.958.772,2.958,2.55v5.285h-1.394l-.029-.652a3.435,3.435,0,0,1-2.216.8A2.135,2.135,0,0,1,257.65,83Zm4.558.475V81.391h-.549c-1.712,0-2.535.393-2.535,1.549a1.157,1.157,0,0,0,1.3,1.245,2.514,2.514,0,0,0,1.778-.712Zm3.9-5.982h1.408l.029,1.453a2.411,2.411,0,0,1,2.171-1.5,2.869,2.869,0,0,1,.578.045v1.394a2.365,2.365,0,0,0-.526-.045,2.154,2.154,0,0,0-2.187,2.171v4.159H266.1V77.493Zm5.633-3.476h1.475v6.448l2.869-2.972h1.772l-3.232,3.32a22.475,22.475,0,0,1,3.581,4.358h-1.845q-.468-.666-1.045-1.4c-.377-.489-.749-.935-1.111-1.334s-.682-.749-.986-1.045v3.78h-1.475V74.015ZM278.915,83a2.292,2.292,0,0,1,1.579-2.32,8.239,8.239,0,0,1,2.98-.363V79.9c0-1.134-.645-1.439-1.794-1.439a6.205,6.205,0,0,0-2.157.422v-1.2a7.623,7.623,0,0,1,2.446-.348c2.046,0,2.958.772,2.958,2.55v5.285h-1.394l-.029-.652a3.435,3.435,0,0,1-2.216.8A2.135,2.135,0,0,1,278.916,83Zm4.558.475V81.393h-.549c-1.712,0-2.535.393-2.535,1.549a1.157,1.157,0,0,0,1.3,1.245,2.514,2.514,0,0,0,1.778-.712Zm3.306,1.319.393-1.111a5.591,5.591,0,0,0,2.246.46c1.372,0,1.7-.5,1.7-1.053s-.46-.837-1.082-1.031c-1.653-.519-3.032-.868-3.032-2.476,0-1.453,1.134-2.246,2.838-2.246a7.75,7.75,0,0,1,2.291.3v1.216a6.768,6.768,0,0,0-2.2-.348c-1.015,0-1.49.311-1.49.957s.7.859,1.854,1.216c1.765.54,2.327,1.164,2.327,2.32,0,1.571-1.238,2.32-3.113,2.32A6.6,6.6,0,0,1,286.78,84.795Zm7.182,0,.393-1.111a5.591,5.591,0,0,0,2.246.46c1.372,0,1.7-.5,1.7-1.053s-.46-.837-1.082-1.031c-1.653-.519-3.032-.868-3.032-2.476,0-1.453,1.134-2.246,2.838-2.246a7.75,7.75,0,0,1,2.291.3v1.216a6.767,6.767,0,0,0-2.2-.348c-1.015,0-1.49.311-1.49.957s.7.859,1.854,1.216c1.765.54,2.327,1.164,2.327,2.32,0,1.571-1.238,2.32-3.113,2.32A6.6,6.6,0,0,1,293.962,84.795Zm7.486-3.447c0-2.4,1.2-4.04,3.4-4.04,2.046,0,3.09,1.274,3.09,3.581,0,.341-.007.638-.029.9h-4.9c.118,1.549.845,2.4,2.32,2.4a6.847,6.847,0,0,0,1.838-.245l.29,1.127a7.678,7.678,0,0,1-2.343.29C302.782,85.358,301.447,83.8,301.447,81.348Zm4.944-.623v-.348c0-1.267-.489-1.986-1.579-1.986-1.149,0-1.742.859-1.831,2.334h3.409Z" transform="translate(-187.798 -45.46)" fill="#d20a11"/>
</svg>
