<svg xmlns="http://www.w3.org/2000/svg" width="1517.18" height="293.7" viewBox="0 0 1517.18 293.7">
    <path id="spakasse_logo-pd-hx"
          d="M168.18,114.83a22.56,22.56,0,0,0,4.55,6.74,20.465,20.465,0,0,0,6.74,4.55,21.545,21.545,0,0,0,16.49,0,21.352,21.352,0,0,0,11.29-11.29,21.42,21.42,0,0,0,0-16.44A21.352,21.352,0,0,0,195.96,87.1a20.592,20.592,0,0,0-8.22-1.64,21.117,21.117,0,0,0-8.27,1.64,20.569,20.569,0,0,0-6.74,4.55,22.561,22.561,0,0,0-4.55,6.74,20.723,20.723,0,0,0,0,16.44ZM125.83,237.76a21.352,21.352,0,0,0,11.29,11.29,20.592,20.592,0,0,0,8.22,1.64h84.91a21.117,21.117,0,0,0,8.27-1.64,20.569,20.569,0,0,0,6.74-4.55,21.554,21.554,0,0,0,4.49-6.74,20.592,20.592,0,0,0,1.64-8.22V182.86H153.77V170.15h97.62v-8.44a20.765,20.765,0,0,0-1.64-8.22,21.845,21.845,0,0,0-4.49-6.74,20.724,20.724,0,0,0-6.74-4.55,20.939,20.939,0,0,0-8.27-1.64H145.34a20.765,20.765,0,0,0-8.22,1.64,21.352,21.352,0,0,0-11.29,11.29,20.592,20.592,0,0,0-1.64,8.22v46.68H221.6V221.1H124.19v8.44a20.765,20.765,0,0,0,1.64,8.22Zm188.99,64.32h23.15c18.57,0,25.39,9.58,25.39,21.66,0,11.23-6.76,23.68-26.61,23.68H325.52v30.39h-10.7V302.07Zm20.86,36.51c11.23,0,16.23-5.59,16.23-14.32,0-11.02-7.29-13.25-16.23-13.25H325.51v27.57Zm35.66,23.63c0-8.36,3.89-13.68,11.34-16.66,5.38-2.13,12.03-2.61,21.4-2.61v-2.98c0-8.14-4.63-10.33-12.88-10.33a44.552,44.552,0,0,0-15.49,3.03v-8.62c7.29-1.97,10.43-2.5,17.56-2.5,14.69,0,21.24,5.54,21.24,18.31v37.95H404.5l-.21-4.68c-2.93,2.93-9.47,5.75-15.91,5.75-9.26,0-17.03-4.58-17.03-16.66Zm32.73,3.41V350.67h-3.94c-12.29,0-18.2,2.82-18.2,11.12,0,5.64,3.3,8.94,9.37,8.94a18.052,18.052,0,0,0,12.77-5.11Zm25.49-14.96c0-18.57,10.11-29.11,23.1-29.11,7.24,0,12.13,2.71,14.37,5.27V297.72h10.59v80.1H467.51l-.27-7.08c-3.67,5.7-8.52,8.14-15.91,8.14-12.61,0-21.77-8.41-21.77-28.21Zm37.47,2.08V335.72c-3.35-3.3-6.87-5.22-11.98-5.22-8.3,0-14.05,7.24-14.05,20.17s4.26,19.53,12.72,19.53c9.58,0,13.31-8.46,13.31-17.46Zm25.97-2.4c0-17.24,8.62-29.01,24.43-29.01,14.69,0,22.19,9.15,22.19,25.71,0,2.45-.05,4.58-.21,6.44H504.23c.85,11.12,6.07,17.24,16.66,17.24a49.171,49.171,0,0,0,13.2-1.76l2.08,8.09c-4.63,1.44-9.74,2.08-16.82,2.08-16.77,0-26.35-11.18-26.35-28.79Zm35.5-4.47v-2.5c0-9.1-3.51-14.26-11.34-14.26-8.25,0-12.51,6.17-13.15,16.76h24.48Zm25.87-23.21h10.11l.21,10.43c3.67-7.77,10.38-10.91,15.59-10.75a20.6,20.6,0,0,1,4.15.32v10.01a16.977,16.977,0,0,0-3.78-.32c-10.59,0-15.7,8.73-15.7,15.59v29.86H554.36V322.67Zm50.77,50.46-.21,4.68H594.82v-80.1h10.59v31.62c2.29-4.31,9.21-7.77,15.59-7.77,14.1,0,22.09,9.74,22.09,27.94s-8.73,29.38-23.31,29.38c-6.87,0-11.66-2.5-14.64-5.75Zm26.61-23.52c0-13.09-4.79-19.11-12.99-19.11s-13.36,6.81-13.36,19.43v13.94a14.23,14.23,0,0,0,12.19,6.44C629.3,370.31,631.75,358.65,631.75,349.61Zm24.22.64c0-17.03,8.57-28.9,24.96-28.9S706,333.22,706,350.25s-9.1,28.9-25.07,28.9S655.97,366.64,655.97,350.25Zm38.69,0c0-13.94-5.48-20.49-13.73-20.49-10.06,0-13.62,9.15-13.62,20.49s3.57,20.49,13.62,20.49C692.59,370.74,694.66,358.45,694.66,350.25Zm26.61-27.57h10.11l.21,10.43c3.67-7.77,10.38-10.91,15.59-10.75a20.6,20.6,0,0,1,4.15.32v10.01a16.977,16.977,0,0,0-3.78-.32c-10.59,0-15.7,8.73-15.7,15.59v29.86H721.26V322.68Zm40.45,0h10.11l.21,7.72c3.35-5.27,9.26-8.84,17.35-8.84,13.15,0,17.88,8.89,17.88,17.99v38.27H796.68V342.59c0-8.3-3.46-11.97-10.54-11.97-9.95,0-13.84,9.58-13.84,15.17v32.04H761.71V322.69Zm60.3,19.05h26.93v10.59H822.02Zm43.11-39.65h22.35c21.56,0,34.44,12.72,34.44,37.89s-12.93,37.84-34.44,37.84H865.13V302.07Zm22.46,66.69c14.26,0,22.57-9.63,22.57-28.79s-8.3-28.85-22.57-28.85H876.04v57.64h11.55Zm47.63-18.42c0-17.24,8.62-29.01,24.43-29.01,14.69,0,22.19,9.15,22.19,25.71,0,2.45-.05,4.58-.21,6.44H946.45c.85,11.12,6.07,17.24,16.66,17.24a49.171,49.171,0,0,0,13.2-1.76l2.08,8.09c-4.63,1.44-9.74,2.08-16.82,2.08-16.77,0-26.35-11.18-26.35-28.79Zm35.5-4.47v-2.5c0-9.1-3.51-14.26-11.34-14.26-8.25,0-12.51,6.17-13.15,16.76h24.48Zm27.73,16.66V330.92h-8.62v-8.25h8.62V310.32a93.734,93.734,0,0,0,10.54-4.68v17.03h14.32v8.25h-14.32v30.44c0,6.39,2.13,9.05,7.88,9.05a25.331,25.331,0,0,0,7.19-1.01l1.86,7.88a43.527,43.527,0,0,1-11.98,1.6C1002.92,378.88,998.45,372.76,998.45,362.54Zm37.26-39.86h10.11l.21,7.29c3.35-5.11,8.36-8.41,15.97-8.41s12.93,3.25,15.12,9.15c3.99-5.75,9.42-9.15,17.24-9.15,10.86,0,16.76,6.39,16.76,17.46v38.8h-10.59V342.05c0-7.93-2.66-11.44-9.26-11.44-7.18,0-12.61,6.55-12.61,14.85v32.36h-10.59V342.05c0-7.93-2.66-11.44-9.26-11.44-7.24,0-12.51,6.55-12.51,14.85v32.36h-10.59Zm90.48,27.57c0-17.03,8.57-28.9,24.96-28.9s25.07,11.87,25.07,28.9-9.1,28.9-25.07,28.9S1126.19,366.64,1126.19,350.25Zm38.69,0c0-13.94-5.48-20.49-13.73-20.49-10.06,0-13.62,9.15-13.62,20.49s3.57,20.49,13.62,20.49C1162.81,370.74,1164.88,358.45,1164.88,350.25Zm27.36-44.81c-1.06-.16-3.46-.48-7.18-.85v-6.87h17.78v80.1h-10.59V305.44Zm25.97,45.24c0-18.57,10.11-29.11,23.1-29.11,7.24,0,12.13,2.71,14.37,5.27V297.73h10.59v80.1h-10.11l-.27-7.08c-3.67,5.7-8.52,8.14-15.91,8.14-12.61,0-21.77-8.41-21.77-28.21Zm37.47,2.08V335.73c-3.35-3.3-6.87-5.22-11.97-5.22-8.3,0-14.05,7.24-14.05,20.17s4.26,19.53,12.72,19.53c9.58,0,13.3-8.46,13.3-17.46Zm25.65-11.02h26.93v10.59h-26.93Zm43.11-39.65h10.91v29.33h32.52V302.09h10.96v75.74h-10.96V340.57h-32.52v37.26h-10.91Zm70.89,48.17c0-17.03,8.57-28.9,24.96-28.9s25.07,11.87,25.07,28.9-9.1,28.9-25.07,28.9S1395.33,366.65,1395.33,350.26Zm7.82-40.66a6.125,6.125,0,0,1,6.44-6.23,6.3,6.3,0,0,1,6.55,6.23,6.23,6.23,0,0,1-6.28,6.12h-.27A6.2,6.2,0,0,1,1403.15,309.6Zm30.87,40.66c0-13.94-5.48-20.49-13.73-20.49-10.06,0-13.62,9.15-13.62,20.49s3.57,20.49,13.62,20.49C1431.95,370.75,1434.02,358.46,1434.02,350.26Zm-9.37-40.66a6.307,6.307,0,0,1,6.07-6.23c4.95,0,6.87,3.67,6.87,6.23,0,4.21-3.78,6.12-6.55,6.12a6.19,6.19,0,0,1-6.39-6.12Zm48.17,40.66c-2.29-3.3-4.84-7.03-7.61-11.23-2.71-4.2-4.74-7.34-5.96-9.53s-2.4-4.47-3.62-6.81h10.75a207.018,207.018,0,0,0,12.35,19.59c6.01-8.89,10.11-15.38,12.29-19.59h10.48q-4.545,8.94-17.24,27.46l19.64,27.68h-12.08l-13.2-19.43L1465,377.83h-11.76l19.59-27.57Zm43.43,12.29V330.93h-8.62v-8.25h8.62V310.33a93.744,93.744,0,0,0,10.54-4.68v17.03h14.32v8.25h-14.32v30.44c0,6.39,2.13,9.05,7.88,9.05a25.193,25.193,0,0,0,7.18-1.01l1.86,7.88a43.507,43.507,0,0,1-11.97,1.6c-11.02,0-15.49-6.12-15.49-16.34Zm33.69-12.19c0-17.24,8.62-29.01,24.43-29.01,14.69,0,22.19,9.15,22.19,25.71,0,2.45-.05,4.58-.21,6.44h-35.18c.85,11.12,6.07,17.24,16.66,17.24a49.17,49.17,0,0,0,13.2-1.76l2.08,8.09c-4.63,1.44-9.74,2.08-16.82,2.08-16.77,0-26.35-11.18-26.35-28.79Zm35.5-4.47v-2.5c0-9.1-3.51-14.26-11.34-14.26-8.25,0-12.51,6.17-13.15,16.76h24.48Zm25.87-23.21h10.11l.21,10.43c3.67-7.77,10.38-10.91,15.59-10.75a20.6,20.6,0,0,1,4.15.32v10.01a16.977,16.977,0,0,0-3.78-.32c-10.59,0-15.7,8.73-15.7,15.59v29.86H1611.3V322.68ZM307.95,247.21l3.09-8.78c3.67,1.92,13.15,4.31,19.69,4.31,14.21,0,16.71-6.76,16.71-12.51,0-6.07-4.68-9.47-10.01-11.55-7.82-3.19-13.31-4.47-19.27-8.41-6.55-4.52-8.14-10.06-8.14-15.7,0-13.25,10.33-20.92,26.82-20.92a65.666,65.666,0,0,1,17.88,2.82v9.63a56.744,56.744,0,0,0-18.84-3.41c-9.53,0-15.06,4.04-15.06,11.34s7.08,9.74,17.14,13.31c11.07,4.1,21.13,8.25,21.13,22.78s-10.06,21.93-27.04,21.93c-12.56,0-21.13-3.41-24.11-4.84Zm64.98-51.63h10.11l.21,8.04c2.71-5.54,9.31-9.15,15.81-9.15,17.19,0,22.14,14.16,22.14,27.94,0,18.63-8.36,29.38-23.74,29.38-6.23,0-10.7-1.7-13.94-4.42v25.39H372.93V195.59Zm36.94,27.04c0-13.31-5-19.21-12.99-19.21-8.57,0-13.36,8.52-13.36,20.49v14.16a16.008,16.008,0,0,0,11.76,5.16c12.35,0,14.58-10.96,14.58-20.6Zm22.89,12.51c0-8.36,3.89-13.68,11.34-16.66,5.38-2.13,12.03-2.61,21.4-2.61v-2.98c0-8.14-4.63-10.33-12.88-10.33a44.552,44.552,0,0,0-15.49,3.03v-8.62c7.29-1.97,10.43-2.5,17.56-2.5,14.69,0,21.24,5.54,21.24,18.31v37.95H465.92l-.21-4.68c-2.93,2.93-9.47,5.75-15.91,5.75-9.26,0-17.03-4.58-17.03-16.66Zm32.73,3.41V223.58h-3.94c-12.29,0-18.2,2.82-18.2,11.12,0,5.64,3.3,8.94,9.37,8.94a18.052,18.052,0,0,0,12.77-5.11Zm28-42.95H503.6l.21,10.43c3.67-7.77,10.38-10.91,15.59-10.75a20.6,20.6,0,0,1,4.15.32V205.6a16.976,16.976,0,0,0-3.78-.32c-10.59,0-15.7,8.73-15.7,15.59v29.86H493.48V195.59Zm40.45-24.96h10.59v46.3l20.6-21.34h12.72l-23.21,23.84c9.15,8.04,18.47,20.22,25.71,31.29H567.1q-3.36-4.785-7.5-10.06c-2.71-3.51-5.38-6.71-7.98-9.58-2.55-2.87-4.9-5.38-7.08-7.5v27.14H533.95v-80.1Zm51.52,64.51c0-8.36,3.89-13.68,11.34-16.66,5.38-2.13,12.03-2.61,21.4-2.61v-2.98c0-8.14-4.63-10.33-12.88-10.33a44.552,44.552,0,0,0-15.49,3.03v-8.62c7.29-1.97,10.43-2.5,17.56-2.5,14.69,0,21.24,5.54,21.24,18.31v37.95H618.62l-.21-4.68c-2.93,2.93-9.47,5.75-15.91,5.75-9.26,0-17.03-4.58-17.03-16.66Zm32.73,3.41V223.59h-3.94c-12.29,0-18.2,2.82-18.2,11.12,0,5.64,3.3,8.94,9.37,8.94a18.052,18.052,0,0,0,12.77-5.11Zm23.74,9.47,2.82-7.98a40.147,40.147,0,0,0,16.13,3.3c9.85,0,12.24-3.62,12.24-7.56s-3.3-6.01-7.77-7.4c-11.87-3.73-21.77-6.23-21.77-17.78,0-10.43,8.14-16.13,20.38-16.13a55.641,55.641,0,0,1,16.45,2.18v8.73a48.592,48.592,0,0,0-15.81-2.5c-7.29,0-10.7,2.23-10.7,6.87s5.06,6.17,13.31,8.73c12.67,3.88,16.71,8.36,16.71,16.66,0,11.28-8.89,16.66-22.35,16.66C651.67,251.8,644.86,249.4,641.93,248.02Zm51.57,0,2.82-7.98a40.147,40.147,0,0,0,16.13,3.3c9.85,0,12.24-3.62,12.24-7.56s-3.3-6.01-7.77-7.4c-11.87-3.73-21.77-6.23-21.77-17.78,0-10.43,8.14-16.13,20.38-16.13a55.641,55.641,0,0,1,16.45,2.18v8.73a48.592,48.592,0,0,0-15.81-2.5c-7.29,0-10.7,2.23-10.7,6.87s5.06,6.17,13.31,8.73c12.67,3.88,16.71,8.36,16.71,16.66,0,11.28-8.89,16.66-22.35,16.66C703.24,251.8,696.43,249.4,693.5,248.02Zm53.75-24.75c0-17.24,8.62-29.01,24.43-29.01,14.69,0,22.19,9.15,22.19,25.71,0,2.45-.05,4.58-.21,6.44H758.48c.85,11.12,6.07,17.24,16.66,17.24a49.172,49.172,0,0,0,13.2-1.76l2.08,8.09c-4.63,1.44-9.74,2.08-16.82,2.08-16.77,0-26.35-11.18-26.35-28.79Zm35.5-4.47v-2.5c0-9.1-3.51-14.26-11.34-14.26-8.25,0-12.51,6.17-13.15,16.76h24.48Z"
          transform="translate(-124.19 -85.46)" fill="#d20a11"/>
</svg>
